<?xml version="1.0" encoding="utf-8"?>
<!-- Generator: Adobe Illustrator 24.3.0, SVG Export Plug-In . SVG Version: 6.00 Build 0)  -->
<svg version="1.1" id="Layer_1" xmlns="http://www.w3.org/2000/svg" xmlns:xlink="http://www.w3.org/1999/xlink" x="0px" y="0px"
	 viewBox="0 0 250 76" style="enable-background:new 0 0 250 76;" xml:space="preserve">
<style type="text/css">
	.st0{fill:url(#SVGID_1_);}
	.st1{fill:url(#SVGID_2_);}
	.st2{fill:url(#SVGID_3_);}
	.st3{fill:url(#SVGID_4_);}
	.st4{fill:url(#SVGID_5_);}
	.st5{fill:url(#SVGID_6_);}
	.st6{fill:url(#SVGID_7_);}
	.st7{fill:url(#SVGID_8_);}
	.st8{fill:url(#SVGID_9_);}
	.st9{fill:url(#SVGID_10_);}
	.st10{fill:#00347A;}
	.st11{fill:url(#SVGID_11_);stroke:url(#SVGID_12_);stroke-linecap:round;stroke-miterlimit:15;}
	.st12{fill:#FFFFFF;}
	.st13{fill:url(#SVGID_13_);}
	.st14{fill:url(#SVGID_14_);}
	.st15{fill:url(#SVGID_15_);}
	.st16{fill:url(#SVGID_16_);}
	.st17{fill:url(#SVGID_17_);}
	.st18{fill:#0F172A;}
	.st19{fill:url(#SVGID_18_);}
	.st20{fill:url(#SVGID_19_);}
	.st21{fill:url(#SVGID_20_);}
	.st22{fill:url(#SVGID_21_);}
	.st23{fill:url(#SVGID_22_);}
	.st24{fill:url(#SVGID_23_);}
	.st25{fill:url(#SVGID_24_);}
	.st26{fill:url(#SVGID_25_);}
	.st27{fill:url(#SVGID_26_);}
	.st28{fill:url(#SVGID_27_);}
	.st29{fill:url(#SVGID_28_);}
	.st30{fill:url(#SVGID_29_);}
	.st31{fill:url(#SVGID_30_);}
	.st32{fill:url(#SVGID_31_);}
	.st33{fill:url(#SVGID_32_);}
	.st34{fill:url(#SVGID_33_);}
	.st35{fill:url(#SVGID_34_);}
	.st36{fill:url(#SVGID_35_);}
	.st37{fill:url(#SVGID_36_);}
	.st38{fill:url(#SVGID_37_);}
	.st39{fill:url(#SVGID_38_);}
	.st40{fill:url(#SVGID_39_);}
</style>
<radialGradient id="SVGID_1_" cx="-65" cy="42" r="50" gradientUnits="userSpaceOnUse">
	<stop  offset="0" style="stop-color:#A2BCDF"/>
	<stop  offset="1" style="stop-color:#F5F6FA"/>
</radialGradient>
<rect x="-115" y="-8" class="st0" width="100" height="100"/>
<linearGradient id="SVGID_2_" gradientUnits="userSpaceOnUse" x1="91.464" y1="-4.0494" x2="83.8505" y2="33.1225">
	<stop  offset="0" style="stop-color:#8DDAFD"/>
	<stop  offset="0.3219" style="stop-color:#5BAEFE"/>
	<stop  offset="0.6171" style="stop-color:#358CFE"/>
	<stop  offset="0.853" style="stop-color:#1E77FF"/>
	<stop  offset="1" style="stop-color:#156FFF"/>
</linearGradient>
<path class="st1" d="M85.4,40.8c-2.1,0-4.1-0.4-5.8-1.2c-1.7-0.8-3-2-4-3.6s-1.5-3.6-1.5-6c0-1.9,0.3-3.7,0.9-5.4
	c0.6-1.6,1.4-3.1,2.6-4.3c1.1-1.2,2.5-2.2,4.2-2.9c1.6-0.7,3.5-1.1,5.6-1.1c1.6,0,3.1,0.2,4.6,0.7c1.4,0.5,2.5,1.2,3.4,2l-2,4.2
	c-0.9-0.7-1.9-1.3-2.9-1.7c-1-0.4-2.1-0.6-3.2-0.6c-1.6,0-3,0.4-4.1,1.2s-2,1.8-2.5,3.2c-0.6,1.3-0.9,2.8-0.9,4.5
	c0,1.5,0.2,2.7,0.7,3.7c0.5,1,1.2,1.7,2.1,2.1c0.9,0.5,2.1,0.7,3.5,0.7c1,0,2-0.2,2.9-0.5c1-0.3,2-0.9,3.1-1.6l1.4,4.1
	c-0.6,0.6-1.4,1-2.3,1.4c-0.9,0.4-1.8,0.7-2.8,0.9C87.4,40.7,86.4,40.8,85.4,40.8z"/>
<linearGradient id="SVGID_3_" gradientUnits="userSpaceOnUse" x1="111.2879" y1="1.095637e-02" x2="103.6744" y2="37.1828">
	<stop  offset="0" style="stop-color:#8DDAFD"/>
	<stop  offset="0.3219" style="stop-color:#5BAEFE"/>
	<stop  offset="0.6171" style="stop-color:#358CFE"/>
	<stop  offset="0.853" style="stop-color:#1E77FF"/>
	<stop  offset="1" style="stop-color:#156FFF"/>
</linearGradient>
<path class="st2" d="M104.2,39.8c-1.7,0-3.2-0.3-4.4-0.9c-1.2-0.6-2.2-1.5-2.8-2.7c-0.6-1.2-1-2.5-1-4c0-1.5,0.3-2.9,0.8-4.1
	c0.5-1.2,1.2-2.2,2.1-3.1c0.9-0.8,1.9-1.5,3.1-1.9c1.1-0.4,2.3-0.6,3.6-0.6c1.7,0,3.2,0.3,4.4,0.9c1.2,0.6,2.2,1.5,2.8,2.7
	c0.7,1.2,1,2.5,1,4c0,1.6-0.3,2.9-0.8,4.1c-0.5,1.2-1.2,2.2-2.1,3.1c-0.9,0.8-1.9,1.5-3,1.9C106.7,39.6,105.5,39.8,104.2,39.8z
	 M104.3,36c0.9,0,1.6-0.3,2.3-0.8c0.6-0.5,1.1-1.3,1.5-2.2c0.4-0.9,0.5-1.9,0.5-3.1c0-1.2-0.3-2.1-0.8-2.7c-0.6-0.6-1.3-0.9-2.3-0.9
	c-0.9,0-1.7,0.3-2.3,0.8c-0.6,0.5-1.1,1.2-1.5,2.1c-0.3,0.9-0.5,1.9-0.5,3.1c0,1.2,0.3,2.1,0.8,2.7C102.6,35.7,103.4,36,104.3,36z"
	/>
<linearGradient id="SVGID_4_" gradientUnits="userSpaceOnUse" x1="129.627" y1="3.7671" x2="122.0134" y2="40.939">
	<stop  offset="0" style="stop-color:#8DDAFD"/>
	<stop  offset="0.3219" style="stop-color:#5BAEFE"/>
	<stop  offset="0.6171" style="stop-color:#358CFE"/>
	<stop  offset="0.853" style="stop-color:#1E77FF"/>
	<stop  offset="1" style="stop-color:#156FFF"/>
</linearGradient>
<path class="st3" d="M120.4,40.8c-1.2,0-2.2-0.2-3-0.7c-0.8-0.5-1.4-1.3-1.8-2.3c-0.3-1.1-0.4-2.4-0.2-4l1.6-9.9h5.1l-1.6,9.8
	c-0.1,0.7-0.1,1.3,0,1.7c0.1,0.5,0.3,0.8,0.7,1.1c0.3,0.2,0.8,0.4,1.4,0.4c0.7,0,1.3-0.2,1.9-0.5c0.6-0.3,1-0.8,1.4-1.4
	c0.4-0.6,0.6-1.3,0.7-2.2l1.4-8.8h5.1l-2.6,16.6h-5l0.5-3.2h0.3c-0.6,1.1-1.4,2-2.4,2.6C122.9,40.5,121.7,40.8,120.4,40.8z"/>
<linearGradient id="SVGID_5_" gradientUnits="userSpaceOnUse" x1="149.4061" y1="7.8183" x2="141.7926" y2="44.9901">
	<stop  offset="0" style="stop-color:#8DDAFD"/>
	<stop  offset="0.3219" style="stop-color:#5BAEFE"/>
	<stop  offset="0.6171" style="stop-color:#358CFE"/>
	<stop  offset="0.853" style="stop-color:#1E77FF"/>
	<stop  offset="1" style="stop-color:#156FFF"/>
</linearGradient>
<path class="st4" d="M133.5,46.6l3.6-22.7h5l-0.4,2.8h-0.2c0.4-0.7,0.9-1.2,1.5-1.7c0.6-0.5,1.2-0.9,2-1.1c0.7-0.2,1.5-0.4,2.3-0.4
	c1.2,0,2.3,0.3,3.3,0.9c0.9,0.6,1.7,1.4,2.2,2.5c0.5,1.1,0.8,2.3,0.8,3.8c0,1.9-0.3,3.7-1,5.2c-0.7,1.5-1.6,2.7-2.9,3.6
	c-1.3,0.9-2.7,1.3-4.5,1.3c-1.2,0-2.3-0.3-3.3-0.8c-0.9-0.6-1.6-1.4-2-2.5h0.3l-1.5,9.1H133.5z M144,37c0.9,0,1.7-0.3,2.3-0.8
	c0.6-0.5,1.1-1.3,1.5-2.2c0.3-0.9,0.5-1.9,0.5-3.1c0-1.2-0.3-2.1-0.8-2.7c-0.6-0.6-1.3-0.9-2.3-0.9c-0.9,0-1.6,0.3-2.3,0.8
	c-0.6,0.5-1.1,1.2-1.5,2.1c-0.3,0.9-0.5,1.9-0.5,3.1c0,1.2,0.3,2.1,0.8,2.7C142.3,36.7,143,37,144,37z"/>
<linearGradient id="SVGID_6_" gradientUnits="userSpaceOnUse" x1="168.6654" y1="11.763" x2="161.0519" y2="48.9348">
	<stop  offset="0" style="stop-color:#8DDAFD"/>
	<stop  offset="0.3219" style="stop-color:#5BAEFE"/>
	<stop  offset="0.6171" style="stop-color:#358CFE"/>
	<stop  offset="0.853" style="stop-color:#1E77FF"/>
	<stop  offset="1" style="stop-color:#156FFF"/>
</linearGradient>
<path class="st5" d="M163.8,40.8c-1.7,0-3.2-0.3-4.4-0.9c-1.2-0.6-2.2-1.5-2.8-2.7c-0.6-1.2-1-2.5-1-4c0-1.5,0.3-2.9,0.8-4.1
	c0.5-1.2,1.2-2.2,2.1-3.1c0.9-0.8,1.9-1.5,3.1-1.9c1.1-0.4,2.3-0.6,3.6-0.6c1.7,0,3.2,0.3,4.4,0.9c1.2,0.6,2.2,1.5,2.8,2.7
	c0.7,1.2,1,2.5,1,4c0,1.6-0.3,2.9-0.8,4.1c-0.5,1.2-1.2,2.2-2.1,3.1s-1.9,1.5-3,1.9S165.1,40.8,163.8,40.8z M163.9,37
	c0.9,0,1.6-0.3,2.3-0.8c0.6-0.5,1.1-1.3,1.5-2.2c0.3-0.9,0.5-1.9,0.5-3.1c0-1.2-0.3-2.1-0.8-2.7c-0.6-0.6-1.3-0.9-2.3-0.9
	c-0.9,0-1.7,0.3-2.3,0.8c-0.6,0.5-1.1,1.2-1.5,2.1c-0.3,0.9-0.5,1.9-0.5,3.1c0,1.2,0.3,2.1,0.8,2.7C162.2,36.7,163,37,163.9,37z"/>
<linearGradient id="SVGID_7_" gradientUnits="userSpaceOnUse" x1="187.9299" y1="15.7087" x2="180.3163" y2="52.8806">
	<stop  offset="0" style="stop-color:#8DDAFD"/>
	<stop  offset="0.3219" style="stop-color:#5BAEFE"/>
	<stop  offset="0.6171" style="stop-color:#358CFE"/>
	<stop  offset="0.853" style="stop-color:#1E77FF"/>
	<stop  offset="1" style="stop-color:#156FFF"/>
</linearGradient>
<path class="st6" d="M175.1,40.5l2.6-16.6h5l-0.5,3.1H182c0.6-1.1,1.4-2,2.4-2.6c1-0.6,2.2-0.9,3.6-0.9c1.2,0,2.2,0.2,3.1,0.7
	s1.4,1.3,1.8,2.3c0.3,1.1,0.4,2.4,0.2,4l-1.6,9.9h-5.1l1.6-9.8c0.1-0.7,0.1-1.3,0-1.8c-0.1-0.5-0.4-0.8-0.7-1.1
	c-0.3-0.2-0.8-0.4-1.4-0.4c-0.8,0-1.4,0.2-2,0.5c-0.6,0.3-1,0.8-1.4,1.4c-0.4,0.6-0.6,1.4-0.7,2.2l-1.4,8.9H175.1z"/>
<linearGradient id="SVGID_8_" gradientUnits="userSpaceOnUse" x1="201.1722" y1="41.1576" x2="206.0086" y2="18.8358">
	<stop  offset="0" style="stop-color:#FEAC11"/>
	<stop  offset="1" style="stop-color:#E74D08"/>
</linearGradient>
<path class="st7" d="M194.8,40.5l0.5-3.3l10.3-10.7l0.2,1.2h-9.1l0.6-3.8H211l-0.5,3.3L200,38l-0.2-1.4h9.6l-0.6,3.8H194.8z"/>
<linearGradient id="SVGID_9_" gradientUnits="userSpaceOnUse" x1="217.3526" y1="44.6634" x2="222.189" y2="22.3416">
	<stop  offset="0" style="stop-color:#FEAC11"/>
	<stop  offset="1" style="stop-color:#E74D08"/>
</linearGradient>
<path class="st8" d="M220.3,40.8c-1.7,0-3.3-0.3-4.5-0.9c-1.3-0.6-2.3-1.5-3-2.7c-0.7-1.2-1.1-2.5-1.1-4c0-1.9,0.4-3.6,1.2-5
	c0.8-1.4,1.9-2.6,3.4-3.4c1.4-0.8,3-1.3,4.8-1.3c1.9,0,3.3,0.4,4.5,1.2c1.1,0.8,1.9,1.9,2.3,3.2s0.5,2.8,0.3,4.4l-0.1,0.9h-12.2
	l0.4-2.6h8.5l-0.5,0.5c0.1-0.8,0.1-1.5-0.1-2.2c-0.2-0.6-0.5-1.1-1-1.5c-0.5-0.4-1.2-0.6-2-0.6c-0.9,0-1.6,0.2-2.2,0.6
	c-0.6,0.4-1.1,0.9-1.4,1.5c-0.3,0.6-0.6,1.3-0.7,2l-0.2,1.2c-0.2,1-0.1,1.8,0.2,2.6c0.3,0.7,0.8,1.3,1.5,1.6
	c0.7,0.4,1.6,0.6,2.6,0.6c0.9,0,1.9-0.1,2.8-0.4c0.9-0.3,1.7-0.7,2.3-1.2l1.2,3.4c-0.8,0.7-1.8,1.2-3,1.5S221.6,40.8,220.3,40.8z"/>
<linearGradient id="SVGID_10_" gradientUnits="userSpaceOnUse" x1="233.3179" y1="48.1225" x2="238.1543" y2="25.8007">
	<stop  offset="0" style="stop-color:#FEAC11"/>
	<stop  offset="1" style="stop-color:#E74D08"/>
</linearGradient>
<path class="st9" d="M229.9,40.5l2.6-16.6h5l-0.7,4h-0.3c0.4-1.3,1.1-2.3,2.1-3.1c1-0.8,2.3-1.2,3.7-1.3l1.6-0.1l-0.2,4.3l-3.3,0.3
	c-0.9,0.1-1.6,0.3-2.2,0.6c-0.6,0.3-1,0.8-1.3,1.4c-0.3,0.6-0.5,1.3-0.7,2.2l-1.3,8.3H229.9z"/>
<g>
	<polygon class="st10" points="83.3,50 82.6,50 78.8,55.2 75,50 74.2,50 78.4,55.7 78.4,61.1 79.1,61.1 79.1,55.7 	"/>
	<path class="st10" d="M88.1,53.9c-0.5-0.3-1.1-0.5-1.8-0.5s-1.3,0.2-1.8,0.5c-0.5,0.3-0.9,0.8-1.2,1.4c-0.3,0.6-0.4,1.3-0.4,2.1
		s0.1,1.5,0.4,2.1c0.3,0.6,0.7,1,1.2,1.4c0.5,0.3,1.1,0.5,1.8,0.5s1.3-0.2,1.8-0.5c0.5-0.3,0.9-0.8,1.2-1.4c0.3-0.6,0.4-1.3,0.4-2.1
		s-0.1-1.5-0.4-2.1C89,54.6,88.6,54.2,88.1,53.9z M88.3,59.7c-0.5,0.6-1.1,0.9-2,0.9c-0.8,0-1.5-0.3-2-0.9c-0.5-0.6-0.7-1.4-0.7-2.4
		s0.2-1.9,0.7-2.4c0.5-0.6,1.2-0.9,2-0.9c0.8,0,1.5,0.3,2,0.9c0.5,0.6,0.7,1.4,0.7,2.4S88.8,59.2,88.3,59.7z"/>
	<path class="st10" d="M97.1,57.9c0,0.6-0.1,1-0.3,1.5c-0.2,0.4-0.5,0.7-0.9,1s-0.8,0.3-1.3,0.3c-0.5,0-0.8-0.1-1.1-0.3
		c-0.3-0.2-0.5-0.4-0.7-0.8c-0.1-0.4-0.2-0.8-0.2-1.3v-4.8h-0.7v4.8c0,0.6,0.1,1.2,0.3,1.6c0.2,0.4,0.5,0.8,0.9,1
		c0.4,0.2,0.9,0.3,1.5,0.3c0.6,0,1.2-0.2,1.7-0.5c0.4-0.3,0.7-0.6,0.9-1v1.4h0.6v-7.6h-0.7V57.9z"/>
	<path class="st10" d="M103.7,53.3c-0.7,0.1-1.3,0.2-1.8,0.5c-0.4,0.2-0.6,0.6-0.8,1v-1.4h-0.6v7.6h0.7v-4.6c0-0.7,0.2-1.3,0.7-1.8
		s1-0.7,1.8-0.8l0.5-0.1l-0.1-0.6L103.7,53.3z"/>
	<path class="st10" d="M112.7,57.2l-1.3-0.3c-0.5-0.1-0.8-0.3-1.1-0.5c-0.2-0.2-0.3-0.5-0.3-0.9c0-0.5,0.2-0.8,0.5-1.1
		s0.9-0.4,1.5-0.4c0.3,0,0.6,0,0.8,0.1c0.3,0.1,0.5,0.2,0.8,0.3c0.2,0.1,0.5,0.3,0.7,0.5l0.3-0.5c-0.2-0.2-0.4-0.4-0.7-0.6
		c-0.3-0.2-0.6-0.3-0.9-0.3c-0.3-0.1-0.6-0.1-1-0.1c-0.5,0-1,0.1-1.4,0.3c-0.4,0.2-0.7,0.4-1,0.8s-0.3,0.7-0.3,1.1
		c0,0.5,0.2,0.9,0.5,1.3c0.3,0.3,0.8,0.6,1.5,0.7l1.3,0.3c0.5,0.1,0.9,0.3,1.1,0.5c0.2,0.2,0.4,0.5,0.4,0.8c0,0.5-0.2,0.8-0.5,1.1
		c-0.4,0.3-0.9,0.4-1.6,0.4c-0.3,0-0.6,0-0.9-0.1c-0.3-0.1-0.6-0.2-0.9-0.3c-0.3-0.1-0.5-0.3-0.8-0.5l-0.3,0.5
		c0.2,0.2,0.5,0.4,0.8,0.5c0.3,0.2,0.6,0.3,1,0.3s0.7,0.1,1.1,0.1c0.6,0,1.1-0.1,1.5-0.3c0.4-0.2,0.8-0.4,1-0.7
		c0.2-0.3,0.4-0.7,0.4-1.1c0-0.5-0.2-0.9-0.5-1.2C113.8,57.6,113.3,57.4,112.7,57.2z"/>
	<path class="st10" d="M121.2,53.7c-0.4-0.2-0.9-0.3-1.4-0.3c-0.3,0-0.7,0-1,0.1c-0.3,0.1-0.7,0.2-1,0.3c-0.3,0.1-0.6,0.3-0.9,0.5
		l0.3,0.6c0.5-0.3,0.9-0.5,1.3-0.7c0.4-0.1,0.9-0.2,1.3-0.2c0.6,0,1.1,0.2,1.4,0.5c0.3,0.3,0.4,0.9,0.4,1.6v0.6h-0.5
		c-1.2,0-2.1,0.1-2.8,0.2c-0.7,0.1-1.2,0.4-1.4,0.7c-0.3,0.3-0.4,0.8-0.4,1.3c0,0.4,0.1,0.8,0.3,1.1s0.5,0.6,0.9,0.8
		s0.8,0.3,1.3,0.3c0.5,0,0.9-0.1,1.2-0.2c0.4-0.2,0.7-0.4,0.9-0.7c0.1-0.2,0.3-0.4,0.4-0.6v1.4h0.6v-4.9c0-0.6-0.1-1.2-0.3-1.6
		C121.9,54.2,121.6,53.9,121.2,53.7z M121.4,59.3c-0.2,0.4-0.5,0.7-0.9,1c-0.4,0.2-0.8,0.4-1.3,0.4c-0.6,0-1.1-0.2-1.4-0.5
		c-0.4-0.3-0.5-0.7-0.5-1.2c0-0.3,0.1-0.6,0.2-0.8c0.1-0.2,0.3-0.4,0.6-0.5c0.3-0.1,0.7-0.2,1.2-0.3c0.5,0,1.2-0.1,1.9-0.1h0.4v0.6
		C121.7,58.5,121.6,58.9,121.4,59.3z"/>
	<polygon class="st10" points="127.5,60.4 124.7,53.5 123.9,53.5 127.2,61.1 127.9,61.1 131.2,53.5 130.4,53.5 	"/>
	<rect x="132.8" y="53.5" class="st10" width="0.7" height="7.6"/>
	<rect x="132.7" y="50.4" class="st10" width="1" height="1"/>
	<path class="st10" d="M141,53.7c-0.4-0.2-0.9-0.3-1.5-0.3c-0.7,0-1.3,0.2-1.8,0.5c-0.4,0.3-0.7,0.6-0.9,1.1v-1.4h-0.6v7.6h0.7v-4.4
		c0-0.6,0.1-1,0.3-1.5c0.2-0.4,0.5-0.7,0.9-1s0.9-0.3,1.4-0.3c0.5,0,0.9,0.1,1.2,0.3s0.5,0.4,0.7,0.8c0.1,0.3,0.2,0.8,0.2,1.3v4.8
		h0.7v-4.8c0-0.6-0.1-1.2-0.3-1.6C141.7,54.2,141.4,53.9,141,53.7z"/>
	<path class="st10" d="M150.5,55c-0.2-0.4-0.5-0.8-0.8-1.1c-0.5-0.4-1.1-0.6-1.9-0.6c-0.7,0-1.3,0.2-1.8,0.5
		c-0.5,0.3-0.9,0.8-1.2,1.3s-0.4,1.2-0.4,2c0,0.7,0.1,1.4,0.4,2s0.7,1,1.2,1.3c0.5,0.3,1.1,0.5,1.8,0.5c0.7,0,1.3-0.2,1.9-0.6
		c0.4-0.3,0.7-0.6,0.8-1.1v1.6c0,0.8-0.2,1.5-0.6,1.9c-0.4,0.4-1,0.7-1.8,0.7c-0.4,0-0.7,0-1.1-0.1c-0.3-0.1-0.6-0.2-0.9-0.3
		c-0.3-0.2-0.6-0.3-0.9-0.6l-0.3,0.5c0.4,0.4,0.9,0.6,1.5,0.8c0.5,0.2,1.1,0.3,1.8,0.3c0.7,0,1.2-0.1,1.7-0.4c0.5-0.2,0.8-0.6,1-1.1
		s0.3-1.1,0.3-1.8v-7.3h-0.7V55z M149.8,59.5c-0.5,0.6-1.2,0.9-2,0.9c-0.8,0-1.5-0.3-2-0.9s-0.7-1.3-0.7-2.3c0-1,0.2-1.7,0.7-2.3
		s1.2-0.9,2-0.9c0.8,0,1.5,0.3,2,0.9c0.5,0.6,0.7,1.3,0.7,2.3C150.5,58.1,150.3,58.9,149.8,59.5z"/>
	<path class="st10" d="M157,57.2l-1.3-0.3c-0.5-0.1-0.8-0.3-1.1-0.5c-0.2-0.2-0.3-0.5-0.3-0.9c0-0.5,0.2-0.8,0.5-1.1
		s0.9-0.4,1.5-0.4c0.3,0,0.6,0,0.8,0.1c0.3,0.1,0.5,0.2,0.8,0.3c0.2,0.1,0.5,0.3,0.7,0.5l0.3-0.5c-0.2-0.2-0.4-0.4-0.7-0.6
		c-0.3-0.2-0.6-0.3-0.9-0.3c-0.3-0.1-0.6-0.1-1-0.1c-0.5,0-1,0.1-1.4,0.3c-0.4,0.2-0.7,0.4-1,0.8s-0.3,0.7-0.3,1.1
		c0,0.5,0.2,0.9,0.5,1.3c0.3,0.3,0.8,0.6,1.5,0.7l1.3,0.3c0.5,0.1,0.9,0.3,1.1,0.5c0.2,0.2,0.4,0.5,0.4,0.8c0,0.5-0.2,0.8-0.5,1.1
		c-0.4,0.3-0.9,0.4-1.6,0.4c-0.3,0-0.6,0-0.9-0.1c-0.3-0.1-0.6-0.2-0.9-0.3c-0.3-0.1-0.5-0.3-0.8-0.5l-0.3,0.5
		c0.2,0.2,0.5,0.4,0.8,0.5c0.3,0.2,0.6,0.3,1,0.3c0.4,0.1,0.7,0.1,1.1,0.1c0.6,0,1.1-0.1,1.5-0.3c0.4-0.2,0.8-0.4,1-0.7
		c0.2-0.3,0.4-0.7,0.4-1.1c0-0.5-0.2-0.9-0.5-1.2C158.2,57.6,157.7,57.4,157,57.2z"/>
	<path class="st10" d="M170.7,55c-0.2-0.4-0.5-0.8-0.8-1.1c-0.5-0.4-1.1-0.6-1.9-0.6c-0.7,0-1.3,0.2-1.8,0.5
		c-0.5,0.3-0.9,0.8-1.2,1.4s-0.4,1.3-0.4,2.1c0,0.8,0.1,1.5,0.4,2.1s0.7,1,1.2,1.4c0.5,0.3,1.1,0.5,1.8,0.5c0.7,0,1.4-0.2,1.9-0.6
		c0.4-0.3,0.7-0.6,0.8-1v1.5h0.7V50h-0.7V55z M170,59.7c-0.5,0.6-1.1,0.9-2,0.9c-0.8,0-1.5-0.3-2-0.9c-0.5-0.6-0.7-1.4-0.7-2.4
		s0.2-1.9,0.7-2.4c0.5-0.6,1.2-0.9,2-0.9c0.8,0,1.5,0.3,2,0.9c0.5,0.6,0.7,1.4,0.7,2.4S170.5,59.2,170,59.7z"/>
	<path class="st10" d="M178.8,53.8c-0.5-0.3-1-0.4-1.7-0.4c-0.7,0-1.3,0.2-1.8,0.5c-0.5,0.3-0.9,0.8-1.2,1.4s-0.4,1.3-0.4,2.1
		c0,0.8,0.1,1.5,0.4,2.1c0.3,0.6,0.7,1,1.3,1.3c0.5,0.3,1.2,0.5,1.9,0.5c0.5,0,1.1-0.1,1.6-0.3c0.5-0.2,0.9-0.5,1.3-0.8l-0.3-0.5
		c-0.4,0.4-0.8,0.6-1.2,0.8s-0.9,0.2-1.3,0.2c-0.6,0-1.1-0.1-1.6-0.4c-0.4-0.3-0.8-0.6-1-1.1c-0.2-0.5-0.3-1-0.3-1.7h5.9V57
		c0-0.8-0.1-1.4-0.4-2S179.2,54.1,178.8,53.8z M174.6,55.6c0.2-0.5,0.5-0.9,1-1.2c0.4-0.3,0.9-0.4,1.5-0.4c0.8,0,1.5,0.3,1.9,0.8
		c0.4,0.5,0.6,1.2,0.6,2.1h-5.3C174.3,56.4,174.4,56,174.6,55.6z"/>
	<path class="st10" d="M185.5,57.2l-1.3-0.3c-0.5-0.1-0.8-0.3-1.1-0.5c-0.2-0.2-0.3-0.5-0.3-0.9c0-0.5,0.2-0.8,0.5-1.1
		s0.9-0.4,1.5-0.4c0.3,0,0.6,0,0.8,0.1c0.3,0.1,0.5,0.2,0.8,0.3c0.2,0.1,0.5,0.3,0.7,0.5l0.3-0.5c-0.2-0.2-0.4-0.4-0.7-0.6
		c-0.3-0.2-0.6-0.3-0.9-0.3c-0.3-0.1-0.6-0.1-1-0.1c-0.5,0-1,0.1-1.4,0.3c-0.4,0.2-0.7,0.4-1,0.8s-0.3,0.7-0.3,1.1
		c0,0.5,0.2,0.9,0.5,1.3c0.3,0.3,0.8,0.6,1.5,0.7l1.3,0.3c0.5,0.1,0.9,0.3,1.1,0.5c0.2,0.2,0.4,0.5,0.4,0.8c0,0.5-0.2,0.8-0.5,1.1
		c-0.4,0.3-0.9,0.4-1.6,0.4c-0.3,0-0.6,0-0.9-0.1c-0.3-0.1-0.6-0.2-0.9-0.3c-0.3-0.1-0.5-0.3-0.8-0.5l-0.3,0.5
		c0.2,0.2,0.5,0.4,0.8,0.5c0.3,0.2,0.6,0.3,1,0.3c0.4,0.1,0.7,0.1,1.1,0.1c0.6,0,1.1-0.1,1.5-0.3c0.4-0.2,0.8-0.4,1-0.7
		c0.2-0.3,0.4-0.7,0.4-1.1c0-0.5-0.2-0.9-0.5-1.2C186.7,57.6,186.1,57.4,185.5,57.2z"/>
	<path class="st10" d="M192.9,60.5c-0.2,0-0.4,0.1-0.5,0.1c-0.6,0-1.1-0.2-1.4-0.5s-0.4-0.9-0.4-1.6v-4.4h2.5v-0.6h-2.5v-2.4h-0.7
		v2.4h-1.5v0.6h1.5v4.6c0,0.8,0.2,1.5,0.6,1.9c0.4,0.5,1,0.7,1.8,0.7c0.2,0,0.4,0,0.7-0.1c0.2-0.1,0.4-0.1,0.5-0.2l-0.2-0.5
		C193.2,60.5,193.1,60.5,192.9,60.5z"/>
	<rect x="194.5" y="50.4" class="st10" width="1" height="1"/>
	<rect x="194.7" y="53.5" class="st10" width="0.7" height="7.6"/>
	<path class="st10" d="M202.9,53.7c-0.4-0.2-0.9-0.3-1.5-0.3c-0.7,0-1.3,0.2-1.8,0.5c-0.4,0.3-0.7,0.6-0.9,1.1v-1.4H198v7.6h0.7
		v-4.4c0-0.6,0.1-1,0.3-1.5c0.2-0.4,0.5-0.7,0.9-1s0.9-0.3,1.4-0.3c0.5,0,0.9,0.1,1.2,0.3s0.5,0.4,0.7,0.8c0.1,0.3,0.2,0.8,0.2,1.3
		v4.8h0.7v-4.8c0-0.6-0.1-1.2-0.3-1.6C203.6,54.2,203.3,53.9,202.9,53.7z"/>
	<path class="st10" d="M211,53.7c-0.4-0.2-0.9-0.3-1.4-0.3c-0.3,0-0.7,0-1,0.1c-0.3,0.1-0.7,0.2-1,0.3s-0.6,0.3-0.9,0.5l0.3,0.6
		c0.5-0.3,0.9-0.5,1.3-0.7c0.4-0.1,0.9-0.2,1.3-0.2c0.6,0,1.1,0.2,1.4,0.5c0.3,0.3,0.4,0.9,0.4,1.6v0.6H211c-1.2,0-2.1,0.1-2.8,0.2
		c-0.7,0.1-1.2,0.4-1.4,0.7s-0.4,0.8-0.4,1.3c0,0.4,0.1,0.8,0.3,1.1s0.5,0.6,0.9,0.8c0.4,0.2,0.8,0.3,1.3,0.3c0.5,0,0.9-0.1,1.2-0.2
		c0.4-0.2,0.7-0.4,0.9-0.7c0.1-0.2,0.3-0.4,0.4-0.6v1.4h0.6v-4.9c0-0.6-0.1-1.2-0.3-1.6C211.7,54.2,211.4,53.9,211,53.7z
		 M211.2,59.3c-0.2,0.4-0.5,0.7-0.9,1c-0.4,0.2-0.8,0.4-1.3,0.4c-0.6,0-1.1-0.2-1.4-0.5c-0.4-0.3-0.5-0.7-0.5-1.2
		c0-0.3,0.1-0.6,0.2-0.8c0.1-0.2,0.3-0.4,0.6-0.5c0.3-0.1,0.7-0.2,1.2-0.3c0.5,0,1.2-0.1,1.9-0.1h0.4v0.6
		C211.5,58.5,211.4,58.9,211.2,59.3z"/>
	<path class="st10" d="M218,60.5c-0.2,0-0.4,0.1-0.5,0.1c-0.6,0-1.1-0.2-1.4-0.5s-0.4-0.9-0.4-1.6v-4.4h2.5v-0.6h-2.5v-2.4h-0.7v2.4
		h-1.5v0.6h1.5v4.6c0,0.8,0.2,1.5,0.6,1.9c0.4,0.5,1,0.7,1.8,0.7c0.2,0,0.4,0,0.7-0.1c0.2-0.1,0.4-0.1,0.5-0.2l-0.2-0.5
		C218.4,60.5,218.2,60.5,218,60.5z"/>
	<rect x="219.8" y="53.5" class="st10" width="0.7" height="7.6"/>
	<rect x="219.6" y="50.4" class="st10" width="1" height="1"/>
	<path class="st10" d="M227.8,53.9c-0.5-0.3-1.1-0.5-1.8-0.5c-0.7,0-1.3,0.2-1.8,0.5c-0.5,0.3-0.9,0.8-1.2,1.4s-0.4,1.3-0.4,2.1
		s0.1,1.5,0.4,2.1s0.7,1,1.2,1.4c0.5,0.3,1.1,0.5,1.8,0.5c0.7,0,1.3-0.2,1.8-0.5c0.5-0.3,0.9-0.8,1.2-1.4s0.4-1.3,0.4-2.1
		s-0.1-1.5-0.4-2.1S228.3,54.2,227.8,53.9z M228,59.7c-0.5,0.6-1.1,0.9-2,0.9c-0.8,0-1.5-0.3-2-0.9c-0.5-0.6-0.7-1.4-0.7-2.4
		s0.2-1.9,0.7-2.4c0.5-0.6,1.2-0.9,2-0.9c0.8,0,1.5,0.3,2,0.9c0.5,0.6,0.7,1.4,0.7,2.4S228.5,59.2,228,59.7z"/>
	<path class="st10" d="M237.3,54.6c-0.2-0.4-0.5-0.7-0.9-1s-0.9-0.3-1.5-0.3c-0.7,0-1.3,0.2-1.8,0.5c-0.4,0.3-0.7,0.6-0.9,1.1v-1.4
		h-0.6v7.6h0.7v-4.4c0-0.6,0.1-1,0.3-1.5c0.2-0.4,0.5-0.7,0.9-1s0.9-0.3,1.4-0.3c0.5,0,0.9,0.1,1.2,0.3s0.5,0.4,0.7,0.8
		c0.1,0.3,0.2,0.8,0.2,1.3v4.8h0.7v-4.8C237.6,55.6,237.5,55.1,237.3,54.6z"/>
</g>
<g>
	<g>
		<path d="M65.1,156.5c-1.5,0-2.8-0.3-3.9-0.8s-2.1-1.4-2.7-2.5c-0.7-1.1-1-2.5-1-4.1c0-1.3,0.2-2.5,0.6-3.7c0.4-1.1,1-2.1,1.7-3
			c0.8-0.8,1.7-1.5,2.8-2c1.1-0.5,2.4-0.7,3.8-0.7c1.1,0,2.1,0.2,3.1,0.5c1,0.3,1.7,0.8,2.3,1.3l-1.4,2.8c-0.6-0.5-1.3-0.9-2-1.2
			c-0.7-0.3-1.4-0.4-2.2-0.4c-1.1,0-2,0.3-2.8,0.8c-0.8,0.5-1.3,1.2-1.7,2.2s-0.6,1.9-0.6,3.1c0,1,0.2,1.8,0.5,2.5
			c0.3,0.7,0.8,1.1,1.4,1.4s1.4,0.5,2.4,0.5c0.7,0,1.3-0.1,2-0.3c0.7-0.2,1.4-0.6,2.1-1.1l0.9,2.8c-0.4,0.4-0.9,0.7-1.6,1
			c-0.6,0.3-1.2,0.5-1.9,0.6C66.4,156.4,65.7,156.5,65.1,156.5z"/>
		<path d="M78,156.5c-1.2,0-2.2-0.2-3-0.6c-0.8-0.4-1.5-1-1.9-1.8c-0.4-0.8-0.7-1.7-0.7-2.7s0.2-2,0.5-2.8c0.3-0.8,0.8-1.5,1.4-2.1
			c0.6-0.6,1.3-1,2.1-1.3c0.8-0.3,1.6-0.4,2.4-0.4c1.2,0,2.2,0.2,3,0.6c0.8,0.4,1.5,1,1.9,1.8c0.4,0.8,0.7,1.7,0.7,2.7
			c0,1.1-0.2,2-0.5,2.8c-0.4,0.8-0.8,1.5-1.4,2.1c-0.6,0.6-1.3,1-2.1,1.3C79.7,156.4,78.8,156.5,78,156.5z M78.1,153.9
			c0.6,0,1.1-0.2,1.5-0.5c0.4-0.4,0.8-0.9,1-1.5c0.2-0.6,0.4-1.3,0.4-2.1c0-0.8-0.2-1.4-0.6-1.9c-0.4-0.4-0.9-0.6-1.6-0.6
			c-0.6,0-1.1,0.2-1.6,0.5c-0.4,0.4-0.8,0.8-1,1.5c-0.2,0.6-0.3,1.3-0.3,2.1s0.2,1.4,0.6,1.8C76.9,153.7,77.4,153.9,78.1,153.9z"/>
		<path d="M89.7,156.5c-0.8,0-1.5-0.2-2.1-0.5c-0.6-0.3-1-0.9-1.2-1.6c-0.2-0.7-0.3-1.6-0.1-2.7l1.1-6.7h3.5l-1.1,6.7
			c-0.1,0.5-0.1,0.9,0,1.2c0.1,0.3,0.2,0.6,0.5,0.7c0.2,0.2,0.5,0.2,0.9,0.2c0.5,0,0.9-0.1,1.3-0.3c0.4-0.2,0.7-0.6,0.9-1
			c0.2-0.4,0.4-0.9,0.5-1.5l0.9-6h3.5l-1.8,11.3h-3.4l0.3-2.1h0.2c-0.4,0.8-0.9,1.4-1.6,1.8S90.6,156.5,89.7,156.5z"/>
		<path d="M98.6,160.4L101,145h3.4l-0.3,1.9H104c0.3-0.4,0.6-0.8,1-1.2c0.4-0.3,0.8-0.6,1.3-0.8s1-0.3,1.6-0.3
			c0.8,0,1.6,0.2,2.2,0.6c0.6,0.4,1.1,1,1.5,1.7c0.3,0.7,0.5,1.6,0.5,2.6c0,1.3-0.2,2.5-0.7,3.5c-0.5,1-1.1,1.9-2,2.5
			c-0.9,0.6-1.9,0.9-3,0.9c-0.8,0-1.6-0.2-2.2-0.6c-0.6-0.4-1.1-1-1.4-1.7h0.2l-1,6.2H98.6z M105.7,153.9c0.6,0,1.1-0.2,1.6-0.5
			c0.4-0.4,0.8-0.9,1-1.5c0.2-0.6,0.3-1.3,0.3-2.1c0-0.8-0.2-1.4-0.6-1.9c-0.4-0.4-0.9-0.6-1.6-0.6c-0.6,0-1.1,0.2-1.6,0.5
			c-0.4,0.4-0.8,0.8-1,1.5s-0.3,1.3-0.3,2.1s0.2,1.4,0.6,1.8C104.5,153.7,105,153.9,105.7,153.9z"/>
		<path d="M119.2,156.5c-1.2,0-2.2-0.2-3-0.6c-0.8-0.4-1.5-1-1.9-1.8c-0.4-0.8-0.7-1.7-0.7-2.7s0.2-2,0.5-2.8
			c0.3-0.8,0.8-1.5,1.4-2.1c0.6-0.6,1.3-1,2.1-1.3c0.8-0.3,1.6-0.4,2.4-0.4c1.2,0,2.2,0.2,3,0.6c0.8,0.4,1.5,1,1.9,1.8
			c0.4,0.8,0.7,1.7,0.7,2.7c0,1.1-0.2,2-0.5,2.8c-0.4,0.8-0.8,1.5-1.4,2.1c-0.6,0.6-1.3,1-2.1,1.3
			C120.9,156.4,120.1,156.5,119.2,156.5z M119.3,153.9c0.6,0,1.1-0.2,1.5-0.5c0.4-0.4,0.8-0.9,1-1.5c0.2-0.6,0.4-1.3,0.4-2.1
			c0-0.8-0.2-1.4-0.6-1.9c-0.4-0.4-0.9-0.6-1.6-0.6c-0.6,0-1.1,0.2-1.6,0.5c-0.4,0.4-0.8,0.8-1,1.5c-0.2,0.6-0.3,1.3-0.3,2.1
			s0.2,1.4,0.6,1.8C118.1,153.7,118.6,153.9,119.3,153.9z"/>
		<path d="M126.9,156.3l1.8-11.3h3.4l-0.3,2.1h-0.2c0.4-0.8,0.9-1.4,1.6-1.8c0.7-0.4,1.5-0.6,2.4-0.6c0.8,0,1.5,0.2,2.1,0.5
			c0.6,0.3,1,0.9,1.2,1.6c0.2,0.7,0.3,1.6,0.1,2.7l-1.1,6.7h-3.5l1.1-6.7c0.1-0.5,0.1-0.9,0-1.2c-0.1-0.3-0.2-0.5-0.5-0.7
			c-0.2-0.2-0.5-0.3-0.9-0.3c-0.5,0-1,0.1-1.4,0.3s-0.7,0.5-0.9,1s-0.4,0.9-0.5,1.5l-1,6H126.9z"/>
		<path d="M140.3,156.3l0.4-2.2l7-7.3l0.1,0.8h-6.2l0.4-2.6h9.2l-0.3,2.2l-7.2,7.4l-0.1-0.9h6.5l-0.4,2.6H140.3z"/>
		<path d="M157.8,156.5c-1.2,0-2.2-0.2-3.1-0.6c-0.9-0.4-1.6-1-2-1.8s-0.7-1.7-0.7-2.7c0-1.3,0.3-2.4,0.8-3.4c0.6-1,1.3-1.8,2.3-2.3
			c1-0.6,2-0.9,3.3-0.9c1.3,0,2.3,0.3,3,0.8c0.8,0.5,1.3,1.3,1.6,2.2s0.3,1.9,0.2,3l-0.1,0.6h-8.3l0.3-1.8h5.8l-0.4,0.3
			c0.1-0.6,0-1-0.1-1.5c-0.1-0.4-0.4-0.8-0.7-1c-0.3-0.3-0.8-0.4-1.4-0.4c-0.6,0-1.1,0.1-1.5,0.4c-0.4,0.3-0.7,0.6-0.9,1
			s-0.4,0.9-0.5,1.4l-0.1,0.8c-0.1,0.7-0.1,1.3,0.1,1.7s0.5,0.9,1,1.1c0.5,0.3,1.1,0.4,1.8,0.4c0.6,0,1.3-0.1,1.9-0.3
			s1.1-0.5,1.6-0.8l0.8,2.3c-0.6,0.5-1.2,0.8-2.1,1C159.6,156.4,158.7,156.5,157.8,156.5z"/>
		<path d="M164.4,156.3l1.8-11.3h3.4l-0.5,2.7h-0.2c0.3-0.9,0.8-1.6,1.4-2.1c0.7-0.5,1.5-0.8,2.5-0.9l1.1-0.1l-0.1,3l-2.2,0.2
			c-0.6,0-1.1,0.2-1.5,0.4c-0.4,0.2-0.7,0.5-0.9,0.9c-0.2,0.4-0.3,0.9-0.5,1.5l-0.9,5.7H164.4z"/>
	</g>
</g>
<g>
	<g>
		<path d="M60.3,170.3v-3.9l0.1,0.4l-3-4h0.5l2.7,3.6h-0.2l2.7-3.6h0.5l-3,4l0.1-0.4v3.9H60.3z"/>
		<path d="M66.5,170.4c-0.5,0-0.9-0.1-1.2-0.3c-0.3-0.2-0.6-0.5-0.8-0.9s-0.3-0.9-0.3-1.4c0-0.5,0.1-1,0.3-1.4
			c0.2-0.4,0.5-0.7,0.8-0.9s0.8-0.3,1.2-0.3c0.5,0,0.9,0.1,1.2,0.3s0.6,0.5,0.8,0.9c0.2,0.4,0.3,0.9,0.3,1.4c0,0.5-0.1,1-0.3,1.4
			c-0.2,0.4-0.5,0.7-0.8,0.9C67.4,170.3,66.9,170.4,66.5,170.4z M66.5,170c0.6,0,1-0.2,1.4-0.6c0.3-0.4,0.5-0.9,0.5-1.7
			c0-0.7-0.2-1.3-0.5-1.7c-0.3-0.4-0.8-0.6-1.4-0.6c-0.6,0-1,0.2-1.3,0.6s-0.5,1-0.5,1.7c0,0.7,0.2,1.3,0.5,1.7S65.9,170,66.5,170z"
			/>
		<path d="M72.1,170.4c-0.4,0-0.7-0.1-1-0.2c-0.3-0.2-0.5-0.4-0.6-0.7c-0.1-0.3-0.2-0.7-0.2-1.1v-3.3h0.4v3.2c0,0.4,0,0.7,0.1,0.9
			c0.1,0.2,0.2,0.4,0.5,0.5c0.2,0.1,0.5,0.2,0.8,0.2c0.3,0,0.7-0.1,0.9-0.2c0.3-0.2,0.5-0.4,0.6-0.7c0.1-0.3,0.2-0.6,0.2-1v-3h0.4
			v5.2h-0.4V169H74c-0.1,0.4-0.4,0.8-0.7,1C72.9,170.3,72.5,170.4,72.1,170.4z"/>
		<path d="M76.1,170.3v-5.2h0.4v1.2h-0.1c0.1-0.4,0.4-0.7,0.7-0.9c0.3-0.2,0.7-0.3,1.2-0.4l0.2,0l0.1,0.4l-0.4,0
			c-0.5,0-0.9,0.2-1.2,0.5c-0.3,0.3-0.4,0.7-0.4,1.2v3.1H76.1z"/>
		<path d="M83.8,170.4c-0.2,0-0.5,0-0.7-0.1c-0.2-0.1-0.5-0.1-0.7-0.2s-0.4-0.2-0.5-0.4l0.2-0.4c0.2,0.1,0.4,0.3,0.5,0.4
			s0.4,0.2,0.6,0.2s0.4,0.1,0.6,0.1c0.5,0,0.8-0.1,1.1-0.3c0.2-0.2,0.4-0.4,0.4-0.7c0-0.2-0.1-0.4-0.2-0.6c-0.2-0.1-0.4-0.3-0.8-0.3
			l-0.9-0.2c-0.4-0.1-0.8-0.3-1-0.5c-0.2-0.2-0.3-0.5-0.3-0.9c0-0.3,0.1-0.5,0.2-0.8c0.2-0.2,0.4-0.4,0.7-0.5c0.3-0.1,0.6-0.2,1-0.2
			c0.2,0,0.5,0,0.7,0.1s0.4,0.1,0.6,0.2s0.3,0.2,0.5,0.4l-0.2,0.4c-0.1-0.1-0.3-0.3-0.4-0.4c-0.2-0.1-0.3-0.2-0.5-0.2
			c-0.2,0-0.4-0.1-0.6-0.1c-0.4,0-0.8,0.1-1,0.3c-0.2,0.2-0.4,0.4-0.4,0.8c0,0.2,0.1,0.4,0.2,0.6c0.1,0.2,0.4,0.3,0.7,0.3l0.9,0.2
			c0.5,0.1,0.8,0.3,1,0.5c0.2,0.2,0.3,0.5,0.3,0.8c0,0.3-0.1,0.5-0.2,0.8s-0.4,0.4-0.7,0.5S84.2,170.4,83.8,170.4z"/>
		<path d="M88.8,170.4c-0.3,0-0.6-0.1-0.9-0.2c-0.3-0.1-0.5-0.3-0.6-0.6c-0.2-0.2-0.2-0.5-0.2-0.8c0-0.4,0.1-0.7,0.3-0.9
			c0.2-0.2,0.5-0.4,1-0.5s1.1-0.1,1.9-0.1h0.4v0.4h-0.4c-0.5,0-1,0-1.3,0s-0.6,0.1-0.8,0.2c-0.2,0.1-0.3,0.2-0.4,0.3
			c-0.1,0.1-0.1,0.3-0.1,0.5c0,0.3,0.1,0.6,0.4,0.8c0.2,0.2,0.6,0.3,1,0.3c0.3,0,0.6-0.1,0.9-0.2c0.2-0.2,0.4-0.4,0.6-0.7
			c0.1-0.3,0.2-0.6,0.2-0.9v-1.2c0-0.5-0.1-0.9-0.3-1.1c-0.2-0.2-0.5-0.4-1-0.4c-0.3,0-0.6,0-0.9,0.1c-0.3,0.1-0.6,0.2-0.9,0.4
			l-0.2-0.4c0.2-0.1,0.4-0.2,0.6-0.3c0.2-0.1,0.4-0.2,0.7-0.2c0.2,0,0.5-0.1,0.7-0.1c0.4,0,0.7,0.1,1,0.2c0.3,0.1,0.4,0.3,0.6,0.6
			c0.1,0.3,0.2,0.6,0.2,1.1v3.4h-0.4V169h0.1c-0.1,0.3-0.2,0.5-0.4,0.7s-0.4,0.4-0.6,0.5C89.4,170.3,89.2,170.4,88.8,170.4z"/>
		<path d="M94.3,170.3l-2.2-5.2h0.5l2.1,5h-0.3l2.1-5H97l-2.2,5.2H94.3z"/>
		<path d="M98.1,163.7V163h0.7v0.7H98.1z M98.2,170.3v-5.2h0.4v5.2H98.2z"/>
		<path d="M100.4,170.3v-5.2h0.4v1.3h-0.1c0.1-0.4,0.4-0.8,0.7-1c0.3-0.2,0.8-0.3,1.2-0.3c0.4,0,0.8,0.1,1,0.2s0.5,0.4,0.6,0.7
			c0.1,0.3,0.2,0.7,0.2,1.1v3.3h-0.4V167c0-0.4,0-0.7-0.1-0.9s-0.2-0.4-0.5-0.5s-0.5-0.2-0.8-0.2c-0.4,0-0.7,0.1-1,0.2
			s-0.5,0.4-0.6,0.7c-0.1,0.3-0.2,0.6-0.2,1v3H100.4z"/>
		<path d="M108.5,172.3c-0.4,0-0.8-0.1-1.2-0.2c-0.4-0.1-0.7-0.3-1-0.5l0.2-0.4c0.2,0.2,0.4,0.3,0.6,0.4c0.2,0.1,0.4,0.2,0.6,0.2
			c0.2,0,0.5,0.1,0.7,0.1c0.5,0,0.9-0.2,1.2-0.5c0.3-0.3,0.4-0.7,0.4-1.3v-1.4h0.1c-0.1,0.5-0.3,0.8-0.7,1.1
			c-0.4,0.3-0.8,0.4-1.3,0.4c-0.5,0-0.9-0.1-1.2-0.3c-0.3-0.2-0.6-0.5-0.8-0.9c-0.2-0.4-0.3-0.8-0.3-1.3c0-0.5,0.1-1,0.3-1.3
			s0.5-0.7,0.8-0.9s0.8-0.3,1.2-0.3c0.5,0,0.9,0.1,1.3,0.4c0.4,0.3,0.6,0.6,0.7,1.1h-0.1v-1.4h0.4v4.9c0,0.5-0.1,0.9-0.2,1.2
			s-0.4,0.6-0.7,0.8C109.4,172.2,109,172.3,108.5,172.3z M108.3,169.8c0.6,0,1-0.2,1.4-0.6c0.3-0.4,0.5-0.9,0.5-1.6
			c0-0.7-0.2-1.2-0.5-1.6c-0.3-0.4-0.8-0.6-1.4-0.6c-0.6,0-1,0.2-1.4,0.6c-0.3,0.4-0.5,0.9-0.5,1.6c0,0.7,0.2,1.2,0.5,1.6
			S107.8,169.8,108.3,169.8z"/>
		<path d="M114.1,170.4c-0.2,0-0.5,0-0.7-0.1c-0.2-0.1-0.5-0.1-0.7-0.2s-0.4-0.2-0.5-0.4l0.2-0.4c0.2,0.1,0.4,0.3,0.5,0.4
			s0.4,0.2,0.6,0.2s0.4,0.1,0.6,0.1c0.5,0,0.8-0.1,1.1-0.3c0.2-0.2,0.4-0.4,0.4-0.7c0-0.2-0.1-0.4-0.2-0.6c-0.2-0.1-0.4-0.3-0.8-0.3
			l-0.9-0.2c-0.4-0.1-0.8-0.3-1-0.5c-0.2-0.2-0.3-0.5-0.3-0.9c0-0.3,0.1-0.5,0.2-0.8c0.2-0.2,0.4-0.4,0.7-0.5c0.3-0.1,0.6-0.2,1-0.2
			c0.2,0,0.5,0,0.7,0.1s0.4,0.1,0.6,0.2s0.3,0.2,0.5,0.4l-0.2,0.4c-0.1-0.1-0.3-0.3-0.4-0.4c-0.2-0.1-0.3-0.2-0.5-0.2
			c-0.2,0-0.4-0.1-0.6-0.1c-0.4,0-0.8,0.1-1,0.3c-0.2,0.2-0.4,0.4-0.4,0.8c0,0.2,0.1,0.4,0.2,0.6c0.1,0.2,0.4,0.3,0.7,0.3l0.9,0.2
			c0.5,0.1,0.8,0.3,1,0.5c0.2,0.2,0.3,0.5,0.3,0.8c0,0.3-0.1,0.5-0.2,0.8s-0.4,0.4-0.7,0.5S114.4,170.4,114.1,170.4z"/>
		<path d="M122.1,170.4c-0.5,0-0.9-0.1-1.2-0.3c-0.3-0.2-0.6-0.5-0.8-0.9c-0.2-0.4-0.3-0.9-0.3-1.4c0-0.5,0.1-1,0.3-1.4
			c0.2-0.4,0.5-0.7,0.8-0.9c0.3-0.2,0.8-0.3,1.2-0.3c0.5,0,0.9,0.1,1.3,0.4s0.6,0.6,0.7,1h-0.1v-3.7h0.4v7.5h-0.4v-1.3h0.1
			c-0.1,0.4-0.3,0.8-0.7,1C123,170.2,122.6,170.4,122.1,170.4z M122.1,170c0.6,0,1-0.2,1.4-0.6c0.3-0.4,0.5-0.9,0.5-1.7
			c0-0.7-0.2-1.3-0.5-1.7c-0.3-0.4-0.8-0.6-1.4-0.6c-0.6,0-1,0.2-1.3,0.6s-0.5,1-0.5,1.7c0,0.7,0.2,1.3,0.5,1.7S121.5,170,122.1,170
			z"/>
		<path d="M128.4,170.4c-0.5,0-1-0.1-1.3-0.3s-0.7-0.5-0.9-0.9s-0.3-0.9-0.3-1.4c0-0.5,0.1-1,0.3-1.4s0.5-0.7,0.8-0.9
			c0.4-0.2,0.8-0.3,1.2-0.3c0.4,0,0.8,0.1,1.1,0.3c0.3,0.2,0.6,0.5,0.7,0.8c0.2,0.4,0.3,0.8,0.3,1.3v0.3h-4.2v-0.4h4l-0.2,0.1
			c0-0.6-0.1-1.2-0.4-1.5s-0.7-0.6-1.3-0.6c-0.4,0-0.8,0.1-1.1,0.3c-0.3,0.2-0.5,0.5-0.7,0.8s-0.2,0.7-0.2,1.1v0.1
			c0,0.5,0.1,0.9,0.2,1.2c0.2,0.3,0.4,0.6,0.7,0.8c0.3,0.2,0.7,0.3,1.1,0.3c0.3,0,0.6-0.1,0.9-0.2c0.3-0.1,0.6-0.3,0.8-0.5l0.2,0.4
			c-0.2,0.2-0.5,0.4-0.9,0.5C129.1,170.3,128.7,170.4,128.4,170.4z"/>
		<path d="M133.4,170.4c-0.2,0-0.5,0-0.7-0.1c-0.2-0.1-0.5-0.1-0.7-0.2s-0.4-0.2-0.5-0.4l0.2-0.4c0.2,0.1,0.4,0.3,0.5,0.4
			c0.2,0.1,0.4,0.2,0.6,0.2s0.4,0.1,0.6,0.1c0.5,0,0.8-0.1,1.1-0.3c0.2-0.2,0.4-0.4,0.4-0.7c0-0.2-0.1-0.4-0.2-0.6
			c-0.2-0.1-0.4-0.3-0.8-0.3l-0.9-0.2c-0.4-0.1-0.8-0.3-1-0.5s-0.3-0.5-0.3-0.9c0-0.3,0.1-0.5,0.2-0.8c0.2-0.2,0.4-0.4,0.7-0.5
			s0.6-0.2,1-0.2c0.2,0,0.5,0,0.7,0.1s0.4,0.1,0.6,0.2c0.2,0.1,0.3,0.2,0.5,0.4l-0.2,0.4c-0.1-0.1-0.3-0.3-0.4-0.4
			c-0.2-0.1-0.3-0.2-0.5-0.2c-0.2,0-0.4-0.1-0.6-0.1c-0.4,0-0.8,0.1-1,0.3s-0.4,0.4-0.4,0.8c0,0.2,0.1,0.4,0.2,0.6
			c0.2,0.2,0.4,0.3,0.7,0.3l0.9,0.2c0.5,0.1,0.8,0.3,1,0.5c0.2,0.2,0.3,0.5,0.3,0.8c0,0.3-0.1,0.5-0.2,0.8s-0.4,0.4-0.7,0.5
			C134.2,170.3,133.8,170.4,133.4,170.4z"/>
		<path d="M138.7,170.4c-0.5,0-0.9-0.2-1.2-0.5c-0.3-0.3-0.4-0.7-0.4-1.3v-3.1h-1v-0.4h1v-1.6h0.4v1.6h1.7v0.4h-1.7v3
			c0,0.5,0.1,0.8,0.3,1.1c0.2,0.2,0.5,0.4,0.9,0.4c0.1,0,0.3,0,0.4,0c0.1,0,0.2-0.1,0.3-0.1l0.1,0.4c-0.1,0-0.2,0.1-0.3,0.1
			S138.8,170.4,138.7,170.4z"/>
		<path d="M140.2,163.7V163h0.7v0.7H140.2z M140.3,170.3v-5.2h0.4v5.2H140.3z"/>
		<path d="M142.6,170.3v-5.2h0.4v1.3h-0.1c0.1-0.4,0.4-0.8,0.7-1c0.3-0.2,0.8-0.3,1.2-0.3c0.4,0,0.8,0.1,1,0.2s0.5,0.4,0.6,0.7
			c0.1,0.3,0.2,0.7,0.2,1.1v3.3h-0.4V167c0-0.4,0-0.7-0.1-0.9c-0.1-0.2-0.2-0.4-0.5-0.5c-0.2-0.1-0.5-0.2-0.8-0.2
			c-0.4,0-0.7,0.1-1,0.2s-0.5,0.4-0.6,0.7s-0.2,0.6-0.2,1v3H142.6z"/>
		<path d="M150,170.4c-0.3,0-0.6-0.1-0.9-0.2c-0.3-0.1-0.5-0.3-0.6-0.6c-0.2-0.2-0.2-0.5-0.2-0.8c0-0.4,0.1-0.7,0.3-0.9
			c0.2-0.2,0.5-0.4,1-0.5c0.5-0.1,1.1-0.1,1.9-0.1h0.4v0.4h-0.4c-0.5,0-1,0-1.3,0c-0.3,0-0.6,0.1-0.8,0.2c-0.2,0.1-0.3,0.2-0.4,0.3
			c-0.1,0.1-0.1,0.3-0.1,0.5c0,0.3,0.1,0.6,0.4,0.8c0.2,0.2,0.6,0.3,1,0.3c0.3,0,0.6-0.1,0.9-0.2c0.2-0.2,0.4-0.4,0.6-0.7
			s0.2-0.6,0.2-0.9v-1.2c0-0.5-0.1-0.9-0.3-1.1s-0.5-0.4-1-0.4c-0.3,0-0.6,0-0.9,0.1s-0.6,0.2-0.9,0.4l-0.2-0.4
			c0.2-0.1,0.4-0.2,0.6-0.3c0.2-0.1,0.4-0.2,0.7-0.2c0.2,0,0.5-0.1,0.7-0.1c0.4,0,0.7,0.1,1,0.2c0.3,0.1,0.4,0.3,0.6,0.6
			c0.1,0.3,0.2,0.6,0.2,1.1v3.4h-0.4V169h0.1c-0.1,0.3-0.2,0.5-0.4,0.7s-0.4,0.4-0.6,0.5C150.6,170.3,150.3,170.4,150,170.4z"/>
		<path d="M155.8,170.4c-0.5,0-0.9-0.2-1.2-0.5c-0.3-0.3-0.4-0.7-0.4-1.3v-3.1h-1v-0.4h1v-1.6h0.4v1.6h1.7v0.4h-1.7v3
			c0,0.5,0.1,0.8,0.3,1.1c0.2,0.2,0.5,0.4,0.9,0.4c0.1,0,0.3,0,0.4,0c0.1,0,0.2-0.1,0.3-0.1l0.1,0.4c-0.1,0-0.2,0.1-0.3,0.1
			S155.9,170.4,155.8,170.4z"/>
		<path d="M157.3,163.7V163h0.7v0.7H157.3z M157.4,170.3v-5.2h0.4v5.2H157.4z"/>
		<path d="M161.6,170.4c-0.5,0-0.9-0.1-1.2-0.3c-0.3-0.2-0.6-0.5-0.8-0.9s-0.3-0.9-0.3-1.4c0-0.5,0.1-1,0.3-1.4
			c0.2-0.4,0.5-0.7,0.8-0.9s0.8-0.3,1.2-0.3c0.5,0,0.9,0.1,1.2,0.3c0.3,0.2,0.6,0.5,0.8,0.9c0.2,0.4,0.3,0.9,0.3,1.4
			c0,0.5-0.1,1-0.3,1.4c-0.2,0.4-0.5,0.7-0.8,0.9C162.5,170.3,162.1,170.4,161.6,170.4z M161.6,170c0.6,0,1-0.2,1.4-0.6
			s0.5-0.9,0.5-1.7c0-0.7-0.2-1.3-0.5-1.7s-0.8-0.6-1.4-0.6c-0.6,0-1,0.2-1.3,0.6s-0.5,1-0.5,1.7c0,0.7,0.2,1.3,0.5,1.7
			S161.1,170,161.6,170z"/>
		<path d="M165.4,170.3v-5.2h0.4v1.3h-0.1c0.1-0.4,0.4-0.8,0.7-1c0.3-0.2,0.8-0.3,1.2-0.3c0.4,0,0.8,0.1,1,0.2s0.5,0.4,0.6,0.7
			c0.1,0.3,0.2,0.7,0.2,1.1v3.3h-0.4V167c0-0.4,0-0.7-0.1-0.9c-0.1-0.2-0.2-0.4-0.5-0.5c-0.2-0.1-0.5-0.2-0.8-0.2
			c-0.4,0-0.7,0.1-1,0.2s-0.5,0.4-0.6,0.7s-0.2,0.6-0.2,1v3H165.4z"/>
	</g>
</g>
<g>
	<linearGradient id="SVGID_11_" gradientUnits="userSpaceOnUse" x1="-208.6608" y1="-71.3335" x2="-167.1229" y2="-116.3626">
		<stop  offset="0" style="stop-color:#01288B"/>
		<stop  offset="0.1528" style="stop-color:#032D8F"/>
		<stop  offset="0.3295" style="stop-color:#073B99"/>
		<stop  offset="0.5181" style="stop-color:#0F52AB"/>
		<stop  offset="0.715" style="stop-color:#1A72C3"/>
		<stop  offset="0.9166" style="stop-color:#289CE3"/>
		<stop  offset="0.9485" style="stop-color:#2AA3E8"/>
	</linearGradient>
	<linearGradient id="SVGID_12_" gradientUnits="userSpaceOnUse" x1="-216.7423" y1="-99.0889" x2="-154.4883" y2="-99.0889">
		<stop  offset="7.731959e-02" style="stop-color:#01288B"/>
		<stop  offset="1" style="stop-color:#2AA3E8"/>
	</linearGradient>
	<path class="st11" d="M-155.2-109.8l-6.7-17.9c-0.5-1.4-1.8-2.3-3.2-2.5l-21.6-1.9c-0.8-0.1-1.6,0.1-2.3,0.5l-13,7.7
		c-0.8,0.4-1.3,1.1-1.6,2L-216-88.2c-0.7,1.9,0.2,4,2.1,4.8l39.3,16.9c2,0.9,4.3-0.1,5.1-2.2l14.3-38.4
		C-154.9-108-154.9-108.9-155.2-109.8z M-169.6-117.9c-3.1,0-5.6-2.5-5.6-5.6c0-3.1,2.5-5.6,5.6-5.6c3.1,0,5.6,2.5,5.6,5.6
		C-164-120.4-166.5-117.9-169.6-117.9z"/>
	<path class="st12" d="M-174.3-69.3c-0.4,0-0.9-0.1-1.3-0.3l-0.6-0.3c-0.2-0.1-0.3-0.4-0.2-0.6c0.1-0.2,0.4-0.3,0.6-0.2l0.6,0.3
		c0.5,0.2,1.1,0.3,1.6,0.1c0.2-0.1,0.5,0.1,0.5,0.3c0.1,0.2-0.1,0.5-0.3,0.5C-173.7-69.3-174-69.3-174.3-69.3z"/>
	<path class="st12" d="M-178.4-70.8c-0.1,0-0.1,0-0.2,0l-2.4-1c-0.2-0.1-0.3-0.4-0.2-0.6c0.1-0.2,0.4-0.3,0.6-0.2l2.4,1
		c0.2,0.1,0.3,0.4,0.2,0.6C-178.1-70.9-178.3-70.8-178.4-70.8z"/>
	<path class="st12" d="M-171.2-71.4l-0.4-0.1l-0.4-0.2l0.9-2.5c0.1-0.2,0.3-0.3,0.6-0.3c0.2,0.1,0.3,0.3,0.3,0.6L-171.2-71.4z"/>
	<path class="st12" d="M-183.3-72.9c-0.1,0-0.1,0-0.2,0l-2.4-1c-0.2-0.1-0.3-0.4-0.2-0.6c0.1-0.2,0.4-0.3,0.6-0.2l2.4,1
		c0.2,0.1,0.3,0.4,0.2,0.6C-183-73-183.1-72.9-183.3-72.9z"/>
	<path class="st12" d="M-188.1-75c-0.1,0-0.1,0-0.2,0l-2.4-1c-0.2-0.1-0.3-0.4-0.2-0.6c0.1-0.2,0.4-0.3,0.6-0.2l2.4,1
		c0.2,0.1,0.3,0.4,0.2,0.6C-187.8-75.1-188-75-188.1-75z"/>
	<path class="st12" d="M-169.8-76c-0.1,0-0.1,0-0.2,0c-0.2-0.1-0.3-0.3-0.3-0.6l0.9-2.5c0.1-0.2,0.3-0.3,0.6-0.3
		c0.2,0.1,0.3,0.3,0.3,0.6l-0.9,2.5C-169.4-76.2-169.6-76-169.8-76z"/>
	<path class="st12" d="M-193-77.1c-0.1,0-0.1,0-0.2,0l-2.4-1c-0.2-0.1-0.3-0.4-0.2-0.6c0.1-0.2,0.4-0.3,0.6-0.2l2.4,1
		c0.2,0.1,0.3,0.4,0.2,0.6C-192.7-77.2-192.8-77.1-193-77.1z"/>
	<path class="st12" d="M-197.8-79.1c-0.1,0-0.1,0-0.2,0l-2.4-1c-0.2-0.1-0.3-0.4-0.2-0.6c0.1-0.2,0.4-0.3,0.6-0.2l2.4,1
		c0.2,0.1,0.3,0.4,0.2,0.6C-197.5-79.2-197.7-79.1-197.8-79.1z"/>
	<path class="st12" d="M-167.9-81c-0.1,0-0.1,0-0.2,0c-0.2-0.1-0.3-0.3-0.3-0.6l0.9-2.5c0.1-0.2,0.3-0.3,0.6-0.3
		c0.2,0.1,0.3,0.3,0.3,0.6l-0.9,2.5C-167.6-81.1-167.7-81-167.9-81z"/>
	<path class="st12" d="M-202.7-81.2c-0.1,0-0.1,0-0.2,0l-2.4-1c-0.2-0.1-0.3-0.4-0.2-0.6c0.1-0.2,0.4-0.3,0.6-0.2l2.4,1
		c0.2,0.1,0.3,0.4,0.2,0.6C-202.4-81.3-202.5-81.2-202.7-81.2z"/>
	<path class="st12" d="M-207.5-83.3c-0.1,0-0.1,0-0.2,0l-2.4-1c-0.2-0.1-0.3-0.4-0.2-0.6c0.1-0.2,0.4-0.3,0.6-0.2l2.4,1
		c0.2,0.1,0.3,0.4,0.2,0.6C-207.2-83.4-207.4-83.3-207.5-83.3z"/>
	<path class="st12" d="M-212.2-85.6c-0.1,0-0.2-0.1-0.3-0.2c-0.5-0.6-0.8-1.4-0.8-2.1c0-0.2,0-0.5,0.1-0.7c0-0.1,0.1-0.1,0.1-0.2
		c0-0.1,0-0.2,0-0.2l0.9-2.5c0.1-0.2,0.3-0.3,0.6-0.3c0.2,0.1,0.3,0.3,0.3,0.6l-0.9,2.5c0,0.1-0.1,0.1-0.1,0.1c0,0.1,0,0.1,0,0.2
		c0,0.2-0.1,0.3-0.1,0.5c0,0.6,0.2,1.1,0.6,1.6c0.2,0.2,0.1,0.5,0,0.6C-212-85.7-212.1-85.6-212.2-85.6z"/>
	<path class="st12" d="M-166.1-85.9c-0.1,0-0.1,0-0.2,0c-0.2-0.1-0.3-0.3-0.3-0.6l0.9-2.5c0.1-0.2,0.3-0.3,0.6-0.3
		c0.2,0.1,0.3,0.3,0.3,0.6l-0.9,2.5C-165.7-86-165.9-85.9-166.1-85.9z"/>
	<path class="st12" d="M-164.2-90.9c-0.1,0-0.1,0-0.2,0c-0.2-0.1-0.3-0.3-0.3-0.6l0.9-2.5c0.1-0.2,0.3-0.3,0.6-0.3
		c0.2,0.1,0.3,0.3,0.3,0.6l-0.9,2.5C-163.9-91-164.1-90.9-164.2-90.9z"/>
	<path class="st12" d="M-210.9-93.4c-0.1,0-0.1,0-0.2,0c-0.2-0.1-0.3-0.3-0.3-0.6l0.9-2.5c0.1-0.2,0.3-0.3,0.6-0.3
		c0.2,0.1,0.3,0.3,0.3,0.6l-0.9,2.5C-210.6-93.6-210.7-93.4-210.9-93.4z"/>
	<path class="st12" d="M-162.4-95.8c-0.1,0-0.1,0-0.2,0c-0.2-0.1-0.3-0.3-0.3-0.6l0.9-2.5c0.1-0.2,0.3-0.3,0.6-0.3
		c0.2,0.1,0.3,0.3,0.3,0.6l-0.9,2.5C-162.1-95.9-162.2-95.8-162.4-95.8z"/>
	<path class="st12" d="M-209.1-98.4c-0.1,0-0.1,0-0.2,0c-0.2-0.1-0.3-0.3-0.3-0.6l0.9-2.5c0.1-0.2,0.3-0.3,0.6-0.3
		c0.2,0.1,0.3,0.3,0.3,0.6l-0.9,2.5C-208.8-98.5-208.9-98.4-209.1-98.4z"/>
	<path class="st12" d="M-160.6-100.8c-0.1,0-0.1,0-0.2,0c-0.2-0.1-0.3-0.3-0.3-0.6l0.9-2.5c0.1-0.2,0.3-0.3,0.6-0.3
		c0.2,0.1,0.3,0.3,0.3,0.6l-0.9,2.5C-160.2-100.9-160.4-100.8-160.6-100.8z"/>
	<path class="st12" d="M-207.3-103.4c-0.1,0-0.1,0-0.2,0c-0.2-0.1-0.3-0.3-0.3-0.6l0.9-2.5c0.1-0.2,0.3-0.3,0.6-0.3
		c0.2,0.1,0.3,0.3,0.3,0.6l-0.9,2.5C-206.9-103.5-207.1-103.4-207.3-103.4z"/>
	<path class="st12" d="M-158.7-105.7c-0.1,0-0.1,0-0.2,0c-0.2-0.1-0.3-0.3-0.3-0.6l0.1-0.1c0.1-0.3,0.2-0.6,0.2-0.8
		c0-0.3-0.1-0.6-0.2-0.9l-0.2-0.4c-0.1-0.2,0-0.5,0.3-0.6c0.2-0.1,0.5,0,0.6,0.3l0.2,0.4c0.1,0.4,0.2,0.8,0.2,1.2
		c0,0.4-0.1,0.8-0.2,1.2l-0.1,0.1C-158.4-105.8-158.6-105.7-158.7-105.7z"/>
	<path class="st12" d="M-205.5-108.3c-0.1,0-0.1,0-0.2,0c-0.2-0.1-0.3-0.3-0.3-0.6l0.9-2.5c0.1-0.2,0.3-0.3,0.6-0.3
		c0.2,0.1,0.3,0.3,0.3,0.6l-0.9,2.5C-205.1-108.4-205.3-108.3-205.5-108.3z"/>
	<path class="st12" d="M-159.8-110.7c-0.2,0-0.3-0.1-0.4-0.3l-0.9-2.5c-0.1-0.2,0-0.5,0.3-0.6c0.2-0.1,0.5,0,0.6,0.3l0.9,2.5
		c0.1,0.2,0,0.5-0.3,0.6C-159.7-110.8-159.7-110.7-159.8-110.7z"/>
	<path class="st12" d="M-203.7-113.3c-0.1,0-0.1,0-0.2,0c-0.2-0.1-0.3-0.3-0.3-0.6l0.9-2.5c0.1-0.2,0.3-0.3,0.6-0.3
		c0.2,0.1,0.3,0.3,0.3,0.6l-0.9,2.5C-203.3-113.4-203.5-113.3-203.7-113.3z"/>
	<path class="st12" d="M-161.6-115.7c-0.2,0-0.3-0.1-0.4-0.3l-0.9-2.5c-0.1-0.2,0-0.5,0.3-0.6c0.2-0.1,0.5,0,0.6,0.3l0.9,2.5
		c0.1,0.2,0,0.5-0.3,0.6C-161.5-115.7-161.6-115.7-161.6-115.7z"/>
	<path class="st12" d="M-201.9-118.2c-0.1,0-0.1,0-0.2,0c-0.2-0.1-0.3-0.3-0.3-0.6l0.2-0.6c0.3-0.7,0.8-1.3,1.4-1.7
		c0.2-0.1,0.5-0.1,0.6,0.2c0.1,0.2,0.1,0.5-0.2,0.6c-0.5,0.3-0.9,0.7-1,1.3l-0.2,0.6C-201.5-118.3-201.7-118.2-201.9-118.2z"/>
	<path class="st12" d="M-198.1-121.7c-0.2,0-0.3-0.1-0.4-0.2c-0.1-0.2-0.1-0.5,0.2-0.6l2.3-1.3c0.2-0.1,0.5-0.1,0.6,0.2
		c0.1,0.2,0.1,0.5-0.2,0.6l-2.3,1.3C-198-121.7-198-121.7-198.1-121.7z"/>
	<path class="st12" d="M-193.6-124.4c-0.2,0-0.3-0.1-0.4-0.2c-0.1-0.2-0.1-0.5,0.2-0.6l2.3-1.3c0.2-0.1,0.5-0.1,0.6,0.2
		c0.1,0.2,0.1,0.5-0.2,0.6l-2.3,1.3C-193.4-124.4-193.5-124.4-193.6-124.4z"/>
	<path class="st12" d="M-176-126.8C-176.1-126.8-176.1-126.8-176-126.8l-2.7-0.2c-0.2,0-0.4-0.2-0.4-0.5c0-0.2,0.2-0.4,0.5-0.4
		l2.6,0.2c0.2,0,0.4,0.2,0.4,0.5C-175.6-127-175.8-126.8-176-126.8z"/>
	<path class="st12" d="M-189-127.1c-0.2,0-0.3-0.1-0.4-0.2c-0.1-0.2-0.1-0.5,0.2-0.6l0.5-0.3c0.6-0.4,1.3-0.5,2-0.4l0.3,0
		c0.2,0,0.4,0.2,0.4,0.5c0,0.2-0.2,0.4-0.5,0.4l-0.3,0c-0.5,0-1,0.1-1.4,0.3l-0.5,0.3C-188.9-127.1-189-127.1-189-127.1z"/>
	<path class="st12" d="M-181.3-127.2C-181.3-127.2-181.3-127.2-181.3-127.2l-2.7-0.2c-0.2,0-0.4-0.2-0.4-0.5c0-0.2,0.2-0.4,0.5-0.4
		l2.6,0.2c0.2,0,0.4,0.2,0.4,0.5C-180.9-127.4-181.1-127.2-181.3-127.2z"/>
	<g>
		<linearGradient id="SVGID_13_" gradientUnits="userSpaceOnUse" x1="-201.1681" y1="-102.2498" x2="-166.9895" y2="-102.2498">
			<stop  offset="0" style="stop-color:#FEAC11"/>
			<stop  offset="1" style="stop-color:#E74D08"/>
		</linearGradient>
		<path class="st13" d="M-194.3-99.4c-1.5,0-2.7-0.3-3.7-0.9c-1-0.6-1.8-1.4-2.3-2.4c-0.5-1-0.8-2.2-0.8-3.6c0-2,0.3-3.8,1-5.4
			c0.7-1.6,1.6-2.9,2.8-3.9c1.2-0.9,2.7-1.4,4.4-1.4c1.5,0,2.7,0.3,3.7,0.9c1,0.6,1.8,1.4,2.3,2.4c0.5,1,0.8,2.2,0.8,3.6
			c0,2.1-0.3,3.9-1,5.5c-0.7,1.6-1.6,2.9-2.8,3.8C-191.1-99.9-192.6-99.4-194.3-99.4z M-194.4-103.2c0.7,0,1.3-0.3,1.8-1
			c0.5-0.7,0.9-1.6,1.1-2.6c0.3-1.1,0.4-2.2,0.4-3.3c0-1.1-0.1-1.8-0.5-2.3c-0.3-0.4-0.8-0.7-1.4-0.7c-0.7,0-1.3,0.3-1.8,1
			c-0.5,0.7-0.9,1.5-1.1,2.6c-0.3,1.1-0.4,2.2-0.4,3.3c0,1.1,0.1,1.8,0.5,2.3C-195.5-103.4-195-103.2-194.4-103.2z M-192.6-86.6
			l-3.6-2.5l20.7-28.7l3.5,2.5L-192.6-86.6z M-175.2-87.6c-1.5,0-2.7-0.3-3.7-0.8c-1-0.6-1.8-1.3-2.3-2.4c-0.5-1-0.8-2.2-0.8-3.6
			c0-2,0.3-3.8,1-5.4c0.7-1.6,1.6-2.9,2.8-3.9c1.2-0.9,2.7-1.4,4.4-1.4c1.5,0,2.7,0.3,3.7,0.9s1.8,1.4,2.3,2.4
			c0.5,1,0.8,2.2,0.8,3.6c0,2-0.3,3.9-1,5.5c-0.6,1.6-1.6,2.9-2.8,3.8C-171.9-88.1-173.4-87.6-175.2-87.6z M-175.2-91.4
			c0.8,0,1.4-0.3,1.9-1c0.5-0.7,0.9-1.5,1.1-2.6c0.3-1.1,0.4-2.2,0.4-3.3c0-1.1-0.2-1.8-0.5-2.3c-0.3-0.4-0.8-0.7-1.4-0.7
			c-0.8,0-1.4,0.3-1.9,1c-0.5,0.7-0.9,1.5-1.1,2.6c-0.3,1.1-0.4,2.2-0.4,3.3c0,1.1,0.2,1.8,0.5,2.3
			C-176.3-91.7-175.8-91.4-175.2-91.4z"/>
	</g>
</g>
<linearGradient id="SVGID_14_" gradientUnits="userSpaceOnUse" x1="-14.4443" y1="-90.1676" x2="-10.7958" y2="-17.1969">
	<stop  offset="0" style="stop-color:#FEAC11"/>
	<stop  offset="1" style="stop-color:#E74D08"/>
</linearGradient>
<rect x="-42.4" y="-66" class="st14" width="60.3" height="38.9"/>
<linearGradient id="SVGID_15_" gradientUnits="userSpaceOnUse" x1="60.5219" y1="-84.6457" x2="53.2306" y2="-19.9352">
	<stop  offset="0" style="stop-color:#005DAB"/>
	<stop  offset="0.7088" style="stop-color:#00347A"/>
	<stop  offset="1" style="stop-color:#002366"/>
</linearGradient>
<rect x="30.2" y="-66" class="st15" width="52.1" height="38.9"/>
<linearGradient id="SVGID_16_" gradientUnits="userSpaceOnUse" x1="-162.8147" y1="-38.7206" x2="-126.3551" y2="-57.1808">
	<stop  offset="0" style="stop-color:#8DDAFD"/>
	<stop  offset="0.3219" style="stop-color:#5BAEFE"/>
	<stop  offset="0.6171" style="stop-color:#358CFE"/>
	<stop  offset="0.853" style="stop-color:#1E77FF"/>
	<stop  offset="1" style="stop-color:#156FFF"/>
</linearGradient>
<rect x="-163" y="-59" class="st16" width="39" height="21"/>
<linearGradient id="SVGID_17_" gradientUnits="userSpaceOnUse" x1="-164" y1="0.5" x2="-137" y2="0.5">
	<stop  offset="0" style="stop-color:#A2BCDF"/>
	<stop  offset="1" style="stop-color:#F5F6FA"/>
</linearGradient>
<rect x="-164" y="-7" class="st17" width="27" height="15"/>
<g>
	<path class="st18" d="M-247.4-78.4c0.3-1.5-3.6-1.5-3.3,0c-0.3-1.5-3.9,0-3.1,1.3c-0.8-1.2-3.6,1.5-2.4,2.4
		c-1.2-0.8-2.7,2.8-1.3,3.1c-1.5-0.3-1.5,3.6,0,3.3c-1.5,0.3,0,3.9,1.3,3.1c-1.2,0.8,1.5,3.6,2.4,2.4c-0.8,1.2,2.8,2.7,3.1,1.3
		c-0.3,1.5,3.6,1.5,3.3,0c0.3,1.5,3.9,0,3.1-1.3c0.8,1.2,3.6-1.5,2.4-2.4c1.2,0.8,2.7-2.8,1.3-3.1c1.5,0.3,1.5-3.6,0-3.3
		c1.5-0.3,0-3.9-1.3-3.1c1.2-0.8-1.5-3.6-2.4-2.4C-243.5-78.4-247.1-79.9-247.4-78.4z"/>
</g>
<linearGradient id="SVGID_18_" gradientUnits="userSpaceOnUse" x1="-92.1768" y1="70.0239" x2="-39.4524" y2="6.2502">
	<stop  offset="0" style="stop-color:#8DDAFD"/>
	<stop  offset="0.3219" style="stop-color:#5BAEFE"/>
	<stop  offset="0.6171" style="stop-color:#358CFE"/>
	<stop  offset="0.853" style="stop-color:#1E77FF"/>
	<stop  offset="1" style="stop-color:#156FFF"/>
</linearGradient>
<path class="st19" d="M-44.9,67.7L-76.2,76c-2.8,0.7-5.7-0.6-7-3.2l-19.2-39.6c-1.5-3.1-0.1-6.8,3-8.2l42.8-19.2
	c1.6-0.7,3.3-0.7,4.9,0l15.6,6.8c2.1,0.9,3.5,2.9,3.6,5.2l1.9,34.7c0.5-0.2,1.1-0.3,1.7-0.3c0.1,0,0.3,0,0.4,0l-1.9-36.1
	c-0.1-2.3-1.5-4.3-3.6-5.2l-17.1-7.5c-1.6-0.7-3.3-0.7-4.9,0l-46.5,20.8c-3.1,1.4-4.5,5.1-3,8.2l21,43.1c1.3,2.6,4.2,3.9,7,3.2
	l32.7-8.6C-45,69.8-45,69.4-45,69C-45,68.5-45,68.1-44.9,67.7z"/>
<linearGradient id="SVGID_19_" gradientUnits="userSpaceOnUse" x1="-91.6098" y1="70.4927" x2="-38.8854" y2="6.719">
	<stop  offset="0" style="stop-color:#8DDAFD"/>
	<stop  offset="0.185" style="stop-color:#70B2F1"/>
	<stop  offset="0.4571" style="stop-color:#497DE2"/>
	<stop  offset="0.6935" style="stop-color:#2D57D7"/>
	<stop  offset="0.8824" style="stop-color:#1B40D0"/>
	<stop  offset="1" style="stop-color:#1537CE"/>
</linearGradient>
<path class="st20" d="M-42.1,64.2c-0.5-2.4,0.6-5.2,3-7.1c1.7-1.3,3.6-1.9,5.4-1.8c0.6-1.3,1.8-2.3,3.1-2.7l-1.9-34.7
	c-0.1-2.3-1.5-4.3-3.6-5.2l-15.6-6.8c-1.6-0.7-3.3-0.7-4.9,0L-99.4,25c-3.1,1.4-4.5,5.1-3,8.2l19.2,39.6c1.3,2.6,4.2,3.9,7,3.2
	l31.3-8.2C-44.5,66.2-43.5,64.9-42.1,64.2z"/>
<linearGradient id="SVGID_20_" gradientUnits="userSpaceOnUse" x1="-89.6252" y1="68.0922" x2="-40.5137" y2="8.6885">
	<stop  offset="0" style="stop-color:#1537CE"/>
	<stop  offset="1" style="stop-color:#8DDAFD"/>
</linearGradient>
<path class="st21" d="M-42.1,64.2c-0.5-2.4,0.6-5.2,3-7.1c1.7-1.3,3.6-1.9,5.4-1.8c0.6-1.3,1.8-2.3,3.1-2.7l-1.9-34.7
	c-0.1-2.3-1.5-4.3-3.6-5.2l-15.6-6.8c-1.6-0.7-3.3-0.7-4.9,0L-99.4,25c-3.1,1.4-4.5,5.1-3,8.2l19.2,39.6c1.3,2.6,4.2,3.9,7,3.2
	l31.3-8.2C-44.5,66.2-43.5,64.9-42.1,64.2z"/>
<g>
	<linearGradient id="SVGID_21_" gradientUnits="userSpaceOnUse" x1="-83.8195" y1="40.7522" x2="-43.2851" y2="40.7522">
		<stop  offset="0" style="stop-color:#A2BCDF"/>
		<stop  offset="5.167401e-02" style="stop-color:#AFC5E3"/>
		<stop  offset="0.1753" style="stop-color:#C9D7EC"/>
		<stop  offset="0.3128" style="stop-color:#DCE5F2"/>
		<stop  offset="0.4699" style="stop-color:#EAEFF7"/>
		<stop  offset="0.6633" style="stop-color:#F3F4F9"/>
		<stop  offset="1" style="stop-color:#F5F6FA"/>
	</linearGradient>
	<path class="st22" d="M-45.7,21.5c-5.5-2.4-12-2.8-18.4-1.1s-11.8,5.2-15.4,10c-0.4,0.6-0.8,1.1-1.2,1.7
		c-2.9,4.7-3.9,10.1-2.6,15.1c2.4,9.1,11.7,15,22.3,15c0.5,0,1,0,1.5,0c0.1,0,0.2,0,0.3,0c-7.9-1.6-13.7-8-13.7-15.7
		c0-3.8,1.4-7.2,3.8-10c0.7-1.2,1.6-2.4,2.9-3.4c1.6-1,3-1.7,4.9-2.2c1.7-0.4,3.3-0.6,5-0.6c1.3,0,2.6,0.2,3.8,0.4
		c0.9,0.2,1.7,0.5,2.5,0.8c0.5,0.2,0.9,0.5,1.4,0.7l0.2-0.4l5.1-8.9C-44.1,22.3-44.9,21.8-45.7,21.5z"/>
	<linearGradient id="SVGID_22_" gradientUnits="userSpaceOnUse" x1="-72.9006" y1="49.244" x2="-41.7051" y2="49.244">
		<stop  offset="0" style="stop-color:#A2BCDF"/>
		<stop  offset="3.534353e-02" style="stop-color:#AAC2E2"/>
		<stop  offset="0.1758" style="stop-color:#C5D5EA"/>
		<stop  offset="0.3287" style="stop-color:#DAE3F1"/>
		<stop  offset="0.4984" style="stop-color:#E9EEF6"/>
		<stop  offset="0.6977" style="stop-color:#F2F4F9"/>
		<stop  offset="1" style="stop-color:#F5F6FA"/>
	</linearGradient>
	<path class="st23" d="M-41.7,55.1l-6.9-8.2c-2,1.7-4.6,3.1-7.5,3.9c-2.7,0.7-5.3,0.8-7.7,0.4c-1.5-0.5-2.8-1.3-3.7-2.2
		c-2.2-2.2-4.3-7.8-1.6-12.7c-2.4,2.7-3.8,6.2-3.8,10c0,7.7,5.9,14.2,13.7,15.7c1.9-0.1,3.9-0.4,5.8-0.9
		C-48.8,60-44.9,57.8-41.7,55.1z"/>
</g>
<linearGradient id="SVGID_23_" gradientUnits="userSpaceOnUse" x1="-97.3873" y1="32.2788" x2="-87.3243" y2="32.2788">
	<stop  offset="0" style="stop-color:#F5F6FA"/>
	<stop  offset="0.1159" style="stop-color:#E8EDF6"/>
	<stop  offset="0.4997" style="stop-color:#C2D2E9"/>
	<stop  offset="0.8079" style="stop-color:#ABC2E2"/>
	<stop  offset="1" style="stop-color:#A2BCDF"/>
</linearGradient>
<circle class="st24" cx="-92.4" cy="32.3" r="5"/>
<linearGradient id="SVGID_24_" gradientUnits="userSpaceOnUse" x1="-98.0581" y1="32.2788" x2="-86.6534" y2="32.2788">
	<stop  offset="0" style="stop-color:#A2BCDF"/>
	<stop  offset="1" style="stop-color:#F5F6FA"/>
</linearGradient>
<path class="st25" d="M-92.4,26.6c-3.1,0-5.7,2.6-5.7,5.7c0,3.1,2.6,5.7,5.7,5.7c3.1,0,5.7-2.6,5.7-5.7
	C-86.7,29.1-89.2,26.6-92.4,26.6z M-92.4,37.3c-2.8,0-5-2.3-5-5s2.3-5,5-5c2.8,0,5,2.3,5,5S-89.6,37.3-92.4,37.3z"/>
<linearGradient id="SVGID_25_" gradientUnits="userSpaceOnUse" x1="-53.1092" y1="57.8842" x2="-24.5981" y2="57.8842">
	<stop  offset="0" style="stop-color:#FEAC11"/>
	<stop  offset="1" style="stop-color:#E74D08"/>
</linearGradient>
<path class="st26" d="M-28.9,53.6c-2,0-3.7,1.3-4.1,3.3c0,0,0,0.1,0,0.1l-4.3-0.3l-3.7-0.3l-12.1-0.9c-0.2,2.2,4.1,4,6.3,4.2
	l5.8,0.5l3.7,0.3l0.2,0l0.1,0c0.8-0.8,1.8-1.2,3-1.2c0.1,0,0.2,0,0.3,0c0.3,0,0.7,0.1,1,0.2c0,0.1,0.1,0.1,0.1,0.2
	c0.2,0.4,0.5,0.8,0.9,1.2l0.1,0.1c0,0,0.1,0.1,0.1,0.1l0.1,0.1l0,0c0.7,0.6,1.7,0.9,2.6,0.9c2.3,0,4.3-1.9,4.3-4.3
	C-24.6,55.5-26.5,53.6-28.9,53.6z M-38.9,59.6c-0.5,0-1-0.4-1-1s0.4-1,1-1c0.5,0,1,0.4,1,1S-38.4,59.6-38.9,59.6z M-28.9,60.6
	c-0.6,0-1.2-0.2-1.7-0.6l-0.1-0.1l0,0c0,0-0.1-0.1-0.1-0.1l0,0c-0.2-0.2-0.4-0.5-0.5-0.7c-0.2-0.4-0.3-0.8-0.3-1.2
	c0-0.2,0-0.4,0.1-0.6c0.3-1.2,1.4-2.1,2.6-2.1c1.5,0,2.7,1.2,2.7,2.7C-26.1,59.4-27.4,60.6-28.9,60.6z"/>
<linearGradient id="SVGID_26_" gradientUnits="userSpaceOnUse" x1="-39.8832" y1="58.5822" x2="-37.9289" y2="58.5822">
	<stop  offset="0" style="stop-color:#005DAB"/>
	<stop  offset="0.7088" style="stop-color:#00347A"/>
	<stop  offset="1" style="stop-color:#002366"/>
</linearGradient>
<circle class="st27" cx="-38.9" cy="58.6" r="1"/>
<g>
	<linearGradient id="SVGID_27_" gradientUnits="userSpaceOnUse" x1="-40.9999" y1="50.1796" x2="-37.3496" y2="50.1796">
		<stop  offset="0" style="stop-color:#FEAC11"/>
		<stop  offset="1" style="stop-color:#E74D08"/>
	</linearGradient>
	<path class="st28" d="M-37.3,56.7l-3.7-0.3V43.6c1.9,0,3.6,3.1,3.6,5.7c0,0.2,0,0.4,0,0.6L-37.3,56.7z"/>
	<linearGradient id="SVGID_28_" gradientUnits="userSpaceOnUse" x1="-43.9313" y1="66.7635" x2="-35.4163" y2="66.7635">
		<stop  offset="0" style="stop-color:#FEAC11"/>
		<stop  offset="1" style="stop-color:#E74D08"/>
	</linearGradient>
	<path class="st29" d="M-37.3,60.6l-3.7-0.3v4.6c-1.7,0.6-2.9,2.2-2.9,4c0,2.3,1.9,4.3,4.3,4.3c2.3,0,4.3-1.9,4.3-4.3
		c0-0.8-0.2-1.6-0.6-2.3l-0.2-0.4h0c-0.2-0.3-0.5-0.6-0.8-0.8c-0.3-0.2-0.6-0.4-1-0.5l-0.2-0.7c0-0.2,0-0.4,0-0.6
		c0-1.1,0.4-2.1,1.1-2.8c0.1-0.1,0.2-0.2,0.3-0.3l-0.1,0 M-39.7,71.7c-1.5,0-2.7-1.2-2.7-2.7s1.2-2.7,2.7-2.7c0.6,0,1.1,0.2,1.6,0.5
		c0.3,0.2,0.5,0.5,0.7,0.7l0,0.1C-37.1,68-37,68.5-37,69C-37,70.5-38.2,71.7-39.7,71.7z"/>
</g>
<linearGradient id="SVGID_29_" gradientUnits="userSpaceOnUse" x1="16.3182" y1="62.9931" x2="58.9805" y2="11.3902">
	<stop  offset="0" style="stop-color:#8DDAFD"/>
	<stop  offset="0.3219" style="stop-color:#5BAEFE"/>
	<stop  offset="0.6171" style="stop-color:#358CFE"/>
	<stop  offset="0.853" style="stop-color:#1E77FF"/>
	<stop  offset="1" style="stop-color:#156FFF"/>
</linearGradient>
<path class="st30" d="M54.6,61.1l-25.3,6.7c-2.3,0.6-4.6-0.5-5.6-2.6l-15.6-32c-1.2-2.5-0.1-5.5,2.4-6.6l34.7-15.5
	c1.3-0.6,2.7-0.6,4,0l12.6,5.5c1.7,0.7,2.8,2.4,2.9,4.2l1.5,28c0.4-0.1,0.9-0.2,1.4-0.2c0.1,0,0.2,0,0.3,0l-1.6-29.2
	c-0.1-1.8-1.2-3.5-2.9-4.2L49.5,9.2c-1.3-0.6-2.7-0.5-4,0L7.9,26c-2.5,1.1-3.6,4.1-2.4,6.6l17,34.9c1,2.1,3.4,3.2,5.6,2.6l26.5-7
	c-0.1-0.3-0.1-0.7-0.1-1C54.5,61.8,54.5,61.5,54.6,61.1z"/>
<linearGradient id="SVGID_30_" gradientUnits="userSpaceOnUse" x1="16.777" y1="63.3724" x2="59.4393" y2="11.7695">
	<stop  offset="0" style="stop-color:#8DDAFD"/>
	<stop  offset="0.185" style="stop-color:#70B2F1"/>
	<stop  offset="0.4571" style="stop-color:#497DE2"/>
	<stop  offset="0.6935" style="stop-color:#2D57D7"/>
	<stop  offset="0.8824" style="stop-color:#1B40D0"/>
	<stop  offset="1" style="stop-color:#1537CE"/>
</linearGradient>
<path class="st31" d="M56.8,58.3c-0.4-1.9,0.5-4.2,2.4-5.7c1.4-1.1,3-1.6,4.4-1.5c0.5-1,1.4-1.8,2.5-2.2l-1.5-28
	c-0.1-1.8-1.2-3.5-2.9-4.2l-12.6-5.5c-1.3-0.6-2.7-0.5-4,0L10.5,26.6c-2.5,1.1-3.6,4.1-2.4,6.6l15.6,32c1,2.1,3.4,3.2,5.6,2.6
	l25.3-6.7C54.9,59.9,55.7,58.8,56.8,58.3z"/>
<linearGradient id="SVGID_31_" gradientUnits="userSpaceOnUse" x1="18.3828" y1="61.4301" x2="58.1218" y2="13.3631">
	<stop  offset="0" style="stop-color:#1537CE"/>
	<stop  offset="1" style="stop-color:#8DDAFD"/>
</linearGradient>
<path class="st32" d="M56.8,58.3c-0.4-1.9,0.5-4.2,2.4-5.7c1.4-1.1,3-1.6,4.4-1.5c0.5-1,1.4-1.8,2.5-2.2l-1.5-28
	c-0.1-1.8-1.2-3.5-2.9-4.2l-12.6-5.5c-1.3-0.6-2.7-0.5-4,0L10.5,26.6c-2.5,1.1-3.6,4.1-2.4,6.6l15.6,32c1,2.1,3.4,3.2,5.6,2.6
	l25.3-6.7C54.9,59.9,55.7,58.8,56.8,58.3z"/>
<g>
	<linearGradient id="SVGID_32_" gradientUnits="userSpaceOnUse" x1="23.0806" y1="39.3077" x2="55.8793" y2="39.3077">
		<stop  offset="0" style="stop-color:#A2BCDF"/>
		<stop  offset="5.167401e-02" style="stop-color:#AFC5E3"/>
		<stop  offset="0.1753" style="stop-color:#C9D7EC"/>
		<stop  offset="0.3128" style="stop-color:#DCE5F2"/>
		<stop  offset="0.4699" style="stop-color:#EAEFF7"/>
		<stop  offset="0.6633" style="stop-color:#F3F4F9"/>
		<stop  offset="1" style="stop-color:#F5F6FA"/>
	</linearGradient>
	<path class="st33" d="M53.9,23.7c-4.5-1.9-9.7-2.3-14.9-0.9c-5.1,1.3-9.6,4.2-12.5,8.1c-0.3,0.5-0.7,0.9-0.9,1.4
		c-2.4,3.8-3.1,8.2-2.1,12.2c1.9,7.4,9.4,12.1,18,12.1c0.4,0,0.8,0,1.2,0c0.1,0,0.2,0,0.3,0c-6.4-1.3-11.1-6.5-11.1-12.7
		c0-3.1,1.1-5.9,3-8.1c0.5-1,1.3-1.9,2.4-2.8c1.3-0.8,2.4-1.4,3.9-1.8c1.3-0.4,2.7-0.5,4-0.5c1.1,0,2.1,0.1,3.1,0.4
		c0.7,0.2,1.4,0.4,2.1,0.7c0.4,0.2,0.8,0.4,1.1,0.6l0.2-0.3l4.1-7.2C55.3,24.3,54.6,24,53.9,23.7z"/>
	<linearGradient id="SVGID_33_" gradientUnits="userSpaceOnUse" x1="31.9157" y1="46.1789" x2="57.1578" y2="46.1789">
		<stop  offset="0" style="stop-color:#A2BCDF"/>
		<stop  offset="3.534353e-02" style="stop-color:#AAC2E2"/>
		<stop  offset="0.1758" style="stop-color:#C5D5EA"/>
		<stop  offset="0.3287" style="stop-color:#DAE3F1"/>
		<stop  offset="0.4984" style="stop-color:#E9EEF6"/>
		<stop  offset="0.6977" style="stop-color:#F2F4F9"/>
		<stop  offset="1" style="stop-color:#F5F6FA"/>
	</linearGradient>
	<path class="st34" d="M57.2,50.9l-5.6-6.6c-1.6,1.4-3.7,2.5-6.1,3.1c-2.2,0.6-4.3,0.6-6.3,0.3c-1.3-0.4-2.3-1-3-1.7
		c-1.7-1.7-3.5-6.3-1.3-10.2c-1.9,2.2-3,5-3,8.1c0,6.2,4.8,11.5,11.1,12.7c1.6-0.1,3.1-0.3,4.7-0.7C51.4,54.9,54.6,53.1,57.2,50.9z"
		/>
</g>
<linearGradient id="SVGID_34_" gradientUnits="userSpaceOnUse" x1="12.1021" y1="32.4514" x2="20.2447" y2="32.4514">
	<stop  offset="0" style="stop-color:#F5F6FA"/>
	<stop  offset="0.1159" style="stop-color:#E8EDF6"/>
	<stop  offset="0.4997" style="stop-color:#C2D2E9"/>
	<stop  offset="0.8079" style="stop-color:#ABC2E2"/>
	<stop  offset="1" style="stop-color:#A2BCDF"/>
</linearGradient>
<circle class="st35" cx="16.2" cy="32.5" r="4.1"/>
<linearGradient id="SVGID_35_" gradientUnits="userSpaceOnUse" x1="11.5593" y1="32.4514" x2="20.7875" y2="32.4514">
	<stop  offset="0" style="stop-color:#A2BCDF"/>
	<stop  offset="1" style="stop-color:#F5F6FA"/>
</linearGradient>
<path class="st36" d="M16.2,27.8c-2.5,0-4.6,2.1-4.6,4.6s2.1,4.6,4.6,4.6s4.6-2.1,4.6-4.6S18.7,27.8,16.2,27.8z M16.2,36.5
	c-2.2,0-4.1-1.8-4.1-4.1s1.8-4.1,4.1-4.1s4.1,1.8,4.1,4.1S18.4,36.5,16.2,36.5z"/>
<linearGradient id="SVGID_36_" gradientUnits="userSpaceOnUse" x1="47.9301" y1="53.1702" x2="71" y2="53.1702">
	<stop  offset="0" style="stop-color:#FEAC11"/>
	<stop  offset="1" style="stop-color:#E74D08"/>
</linearGradient>
<path class="st37" d="M67.6,49.7c-1.6,0-3,1.1-3.4,2.6c0,0,0,0.1,0,0.1l-3.5-0.2l-3-0.2l-9.8-0.7c-0.1,1.8,3.3,3.2,5.1,3.4l4.7,0.4
	l3,0.3l0.1,0l0.1,0c0.6-0.6,1.5-1,2.4-1c0.1,0,0.2,0,0.2,0c0.3,0,0.5,0.1,0.8,0.1c0,0.1,0,0.1,0.1,0.2c0.2,0.4,0.4,0.7,0.7,0.9l0,0
	c0,0,0.1,0.1,0.1,0.1l0.1,0.1l0,0c0.6,0.5,1.4,0.7,2.1,0.7c1.9,0,3.4-1.5,3.4-3.4S69.5,49.7,67.6,49.7z M59.4,54.5
	c-0.4,0-0.8-0.4-0.8-0.8c0-0.4,0.4-0.8,0.8-0.8s0.8,0.4,0.8,0.8C60.2,54.2,59.9,54.5,59.4,54.5z M67.6,55.4c-0.5,0-1-0.2-1.4-0.5
	l-0.1,0l0,0c0,0,0,0-0.1-0.1l0,0c-0.2-0.2-0.3-0.4-0.4-0.6c-0.2-0.3-0.2-0.6-0.2-1c0-0.2,0-0.3,0.1-0.5c0.2-1,1.1-1.7,2.1-1.7
	c1.2,0,2.2,1,2.2,2.2S68.8,55.4,67.6,55.4z"/>
<linearGradient id="SVGID_37_" gradientUnits="userSpaceOnUse" x1="58.632" y1="53.735" x2="60.2133" y2="53.735">
	<stop  offset="0" style="stop-color:#005DAB"/>
	<stop  offset="0.7088" style="stop-color:#00347A"/>
	<stop  offset="1" style="stop-color:#002366"/>
</linearGradient>
<circle class="st38" cx="59.4" cy="53.7" r="0.8"/>
<g>
	<linearGradient id="SVGID_38_" gradientUnits="userSpaceOnUse" x1="57.7284" y1="46.936" x2="60.682" y2="46.936">
		<stop  offset="0" style="stop-color:#FEAC11"/>
		<stop  offset="1" style="stop-color:#E74D08"/>
	</linearGradient>
	<path class="st39" d="M60.7,52.2l-3-0.2V41.6c1.6,0,2.9,2.5,2.9,4.7c0,0.2,0,0.3,0,0.5L60.7,52.2z"/>
	<linearGradient id="SVGID_39_" gradientUnits="userSpaceOnUse" x1="55.3564" y1="60.355" x2="62.2464" y2="60.355">
		<stop  offset="0" style="stop-color:#FEAC11"/>
		<stop  offset="1" style="stop-color:#E74D08"/>
	</linearGradient>
	<path class="st40" d="M60.7,55.4l-3-0.3v3.8c-1.4,0.5-2.4,1.7-2.4,3.3c0,1.9,1.5,3.4,3.4,3.4c1.9,0,3.4-1.5,3.4-3.4
		c0-0.6-0.2-1.3-0.5-1.8L61.5,60h0c-0.2-0.2-0.4-0.5-0.7-0.7c-0.2-0.2-0.5-0.3-0.8-0.4l-0.1-0.5c0-0.2,0-0.3,0-0.5
		c0-0.9,0.3-1.7,0.9-2.3c0.1-0.1,0.1-0.1,0.2-0.2l-0.1,0 M58.8,64.4c-1.2,0-2.2-1-2.2-2.2s1-2.2,2.2-2.2c0.5,0,0.9,0.1,1.3,0.4
		c0.2,0.2,0.4,0.4,0.6,0.6l0,0.1c0.2,0.3,0.3,0.7,0.3,1.1C61,63.4,60,64.4,58.8,64.4z"/>
</g>
</svg>
