<?xml version="1.0" encoding="utf-8"?>
<!-- Generator: Adobe Illustrator 24.3.0, SVG Export Plug-In . SVG Version: 6.00 Build 0)  -->
<svg version="1.1" id="Layer_1" xmlns="http://www.w3.org/2000/svg" xmlns:xlink="http://www.w3.org/1999/xlink" x="0px" y="0px"
	 viewBox="0 0 981.8 262.2" style="enable-background:new 0 0 981.8 262.2;" xml:space="preserve">
<style type="text/css">
	.st0{fill:url(#SVGID_1_);}
	.st1{fill:url(#SVGID_2_);}
	.st2{fill:url(#SVGID_3_);}
	.st3{fill:#00347A;}
	.st4{fill:#F97316;}
	.st5{fill:none;}
	.st6{fill:#1E3A8A;}
	.st7{fill:url(#SVGID_4_);}
	.st8{fill:url(#SVGID_5_);}
	.st9{fill:url(#SVGID_6_);}
	.st10{fill:url(#SVGID_7_);}
	.st11{fill:url(#SVGID_8_);}
	.st12{fill:url(#SVGID_9_);}
	.st13{fill:url(#SVGID_10_);}
	.st14{fill:url(#SVGID_11_);}
	.st15{fill:url(#SVGID_12_);}
</style>
<linearGradient id="SVGID_1_" gradientUnits="userSpaceOnUse" x1="725.4749" y1="11.4358" x2="733.7092" y2="176.1235">
	<stop  offset="0" style="stop-color:#FEAC11"/>
	<stop  offset="1" style="stop-color:#E74D08"/>
</linearGradient>
<path class="st0" d="M685.9,150.6l3-18L745.5,74l0.9,6.5h-49.5l3.3-20.8h74.2l-2.8,17.8L713.9,137l-0.9-7.4h52.3l-3.2,21H685.9z"/>
<linearGradient id="SVGID_2_" gradientUnits="userSpaceOnUse" x1="818.3414" y1="6.7925" x2="826.5757" y2="171.4802">
	<stop  offset="0" style="stop-color:#FEAC11"/>
	<stop  offset="1" style="stop-color:#E74D08"/>
</linearGradient>
<path class="st1" d="M825,152.4c-9.5,0-17.8-1.7-24.8-5.2c-7-3.5-12.5-8.3-16.4-14.6c-3.9-6.3-5.8-13.6-5.8-21.9
	c0-10.4,2.3-19.5,6.8-27.4c4.5-7.9,10.6-14.2,18.4-18.7c7.7-4.6,16.5-6.9,26.2-6.9c10.1,0,18.3,2.2,24.4,6.6
	c6.1,4.4,10.3,10.3,12.6,17.7c2.3,7.4,2.8,15.5,1.6,24.3l-0.6,4.8h-66.8l2.2-14.5h46.5l-3,2.6c0.6-4.5,0.4-8.4-0.6-11.8
	c-1.1-3.4-2.9-6.1-5.7-8.2c-2.7-2-6.4-3.1-11.1-3.1c-4.7,0-8.7,1.1-11.9,3.2c-3.2,2.2-5.7,4.9-7.6,8.3c-1.9,3.4-3.1,7.1-3.7,11
	l-1.1,6.7c-0.9,5.4-0.5,10.1,1,14c1.5,3.9,4.2,6.9,8.1,9c3.8,2.1,8.5,3.2,14.1,3.2c5.2,0,10.3-0.7,15.2-2.2
	c4.9-1.5,9.2-3.7,12.8-6.7l6.5,18.4c-4.5,3.7-10,6.5-16.6,8.4C839.1,151.5,832.2,152.4,825,152.4z"/>
<linearGradient id="SVGID_3_" gradientUnits="userSpaceOnUse" x1="911.1496" y1="2.1521" x2="919.384" y2="166.8398">
	<stop  offset="0" style="stop-color:#FEAC11"/>
	<stop  offset="1" style="stop-color:#E74D08"/>
</linearGradient>
<path class="st2" d="M877.7,150.6l14.3-90.9h27.4l-3.7,22.1H914c2.2-6.9,6.1-12.5,11.6-16.8c5.5-4.3,12.3-6.7,20.5-7.3l8.7-0.6
	l-1.1,23.7l-17.8,1.7c-4.9,0.4-9,1.5-12.1,3.2c-3.1,1.8-5.4,4.3-7,7.4c-1.5,3.2-2.8,7.1-3.6,11.8l-7.2,45.6H877.7z"/>
<g>
	<polygon class="st6" points="90.9,175.1 85.3,175.1 64.3,198.6 50.9,175.1 45.8,175.1 61.6,202.8 57.6,228.1 62.3,228.1 
		66.3,202.6 	"/>
	<path class="st6" d="M109.7,192.9c-2.3-1.3-5-1.9-8.1-1.9c-3,0-5.6,0.6-7.9,1.7c-2.3,1.2-4.3,2.7-5.9,4.7c-1.6,2-2.9,4.3-3.7,7
		c-0.8,2.7-1.2,5.5-1.2,8.4c0,3.3,0.6,6.1,1.8,8.5c1.2,2.4,3,4.2,5.3,5.4c2.3,1.3,5,1.9,8.1,1.9c3,0,5.6-0.6,7.9-1.7
		c2.3-1.1,4.2-2.7,5.9-4.7c1.6-2,2.9-4.4,3.7-7c0.9-2.6,1.3-5.4,1.3-8.5c0-3.3-0.6-6.1-1.8-8.5C113.7,196,111.9,194.2,109.7,192.9z
		 M110.5,215.8c-1.1,2.8-2.6,5-4.7,6.6c-2.1,1.7-4.6,2.5-7.6,2.5c-3.4,0-6-1-7.9-3c-1.9-2-2.8-4.9-2.8-8.8c0-3.4,0.5-6.4,1.6-9.1
		c1.1-2.7,2.6-4.9,4.7-6.6c2.1-1.7,4.6-2.5,7.6-2.5c3.4,0,6,1,7.9,3c1.9,2,2.9,4.9,2.9,8.8C112.1,210,111.6,213,110.5,215.8z"/>
	<path class="st6" d="M151,211.4c-0.5,2.7-1.3,5.1-2.4,7.1c-1.2,2-2.7,3.6-4.5,4.7c-1.9,1.1-4.1,1.7-6.6,1.7c-2,0-3.5-0.4-4.7-1.2
		c-1.2-0.8-2-2-2.4-3.6c-0.4-1.6-0.4-3.7-0.1-6.1l3.5-22.2h-4.6l-3.5,22.1c-0.5,3.4-0.4,6.2,0.4,8.4c0.8,2.2,2,3.8,3.9,4.9
		c1.8,1.1,4,1.6,6.6,1.6c3.3,0,6.2-0.8,8.6-2.4c1.8-1.2,3.2-2.7,4.3-4.6l-1,6.4h4.4l5.8-36.4h-4.6L151,211.4z"/>
	<path class="st6" d="M186.3,191c-3.5,0.3-6.3,1.2-8.5,2.9c-1.4,1.1-2.5,2.4-3.4,3.9l1-6.1h-4.5l-5.8,36.4h4.7l3.2-20.6
		c0.4-2.4,1.1-4.5,2-6.2c0.9-1.8,2.3-3.2,4.1-4.2c1.8-1.1,4.1-1.7,6.9-2l3.3-0.3l-0.2-4L186.3,191z"/>
	<path class="st6" d="M235.9,193.3c-1.3-0.7-2.8-1.3-4.4-1.7c-1.6-0.4-3.2-0.6-4.9-0.6c-2.8,0-5.3,0.5-7.4,1.4c-2.2,1-3.8,2.3-5,3.9
		c-1.2,1.7-1.8,3.6-1.8,5.7c0,2.2,0.7,4.1,2.1,5.7c1.4,1.6,3.3,2.7,5.7,3.3l7.1,1.8c1.7,0.5,3,1.1,3.9,2c0.9,0.9,1.4,2.1,1.4,3.5
		c0,2.2-0.8,3.8-2.5,5c-1.7,1.2-3.9,1.7-6.8,1.7c-1.6,0-3-0.1-4.4-0.4c-1.4-0.3-2.7-0.7-4-1.3s-2.5-1.4-3.7-2.3l-2,3.3
		c1.6,1.4,3.6,2.5,6,3.3c2.5,0.8,5.1,1.2,8,1.2c2.8,0,5.2-0.4,7.3-1.3c2.1-0.9,3.7-2.1,4.9-3.7c1.2-1.6,1.8-3.6,1.8-5.8
		s-0.7-4.1-2.1-5.5c-1.4-1.4-3.4-2.5-5.9-3.1l-7.2-1.9c-1.7-0.5-2.9-1.2-3.7-2.1c-0.8-1-1.2-2.1-1.2-3.4c0-2.2,0.9-3.9,2.6-5.2
		c1.8-1.3,4.1-1.9,7-1.9c2.2,0,4.2,0.3,6,1s3.4,1.7,4.8,3.2l1.9-3.2C238.3,194.8,237.2,194,235.9,193.3z"/>
	<path class="st6" d="M272,192.8c-1.9-1.2-4.5-1.8-7.6-1.8c-1.8,0-3.5,0.2-5.2,0.5c-1.7,0.4-3.4,0.9-4.9,1.5
		c-1.6,0.7-2.9,1.4-4.1,2.3l1.5,3.5c2-1.4,3.9-2.3,5.9-3c2-0.6,4.2-0.9,6.5-0.9c3.3,0,5.6,0.8,6.9,2.4c1.3,1.6,1.7,4,1.1,7.3
		l-0.4,2.6h-5.3c-4.8,0-8.7,0.4-11.7,1.1c-3.1,0.7-5.3,1.8-6.8,3.4c-1.5,1.6-2.2,3.6-2.2,6.2c0,2.2,0.6,4,1.7,5.7
		c1.1,1.6,2.6,2.9,4.4,3.8c1.8,0.9,3.7,1.4,5.8,1.4c1.8,0,3.6-0.3,5.3-1s3.3-1.7,4.6-3c0.7-0.7,1.3-1.6,1.9-2.5l-0.9,5.9h4.4
		l3.5-22.2c0.5-3.1,0.4-5.7-0.3-7.9C275.3,195.7,273.9,194,272,192.8z M268.2,219.9c-1.2,1.7-2.7,3-4.4,3.8
		c-1.7,0.9-3.5,1.3-5.5,1.3c-2,0-3.8-0.6-5.4-1.9c-1.6-1.3-2.4-3.1-2.4-5.5c0-1.8,0.5-3.2,1.5-4.2c1-1.1,2.8-1.8,5.2-2.2
		c2.5-0.4,5.8-0.6,10.1-0.6h3.7l-0.5,3.2C270.2,216.2,269.4,218.2,268.2,219.9z"/>
	<polygon class="st6" points="298.1,223 290.2,191.7 285.4,191.7 295.1,228.1 299.8,228.1 321.1,191.7 316.1,191.7 	"/>
	<polygon class="st6" points="322.5,228.1 327.1,228.1 333,191.7 328.4,191.7 	"/>
	<polygon class="st6" points="329.2,182 335.3,182 336.2,176.3 330.1,176.3 	"/>
	<path class="st6" d="M368.7,192.6c-1.8-1.1-4.1-1.7-6.8-1.7c-3.5,0-6.4,0.8-8.9,2.5c-1.8,1.2-3.3,2.7-4.4,4.6l1-6.4h-4.5l-5.8,36.4
		h4.6l3.2-19.8c0.5-2.7,1.3-5,2.4-7c1.2-2,2.7-3.5,4.7-4.6c2-1.1,4.3-1.7,6.9-1.7c2.1,0,3.7,0.4,4.9,1.2c1.2,0.8,2,2,2.4,3.6
		c0.4,1.6,0.4,3.7,0,6.1l-3.5,22.2h4.6l3.5-22.2c0.6-3.4,0.4-6.1-0.3-8.3C371.8,195.4,370.5,193.7,368.7,192.6z"/>
	<path class="st6" d="M412.7,199.2c-0.9-2.6-2.4-4.6-4.5-6c-2.4-1.5-5.1-2.3-8.1-2.3c-3,0-5.6,0.6-7.9,1.8c-2.3,1.2-4.2,2.8-5.7,4.8
		c-1.6,2-2.7,4.3-3.5,6.8c-0.8,2.6-1.2,5.2-1.2,8c0,3,0.6,5.6,1.8,7.9c1.2,2.2,2.9,4,5,5.2c2.2,1.2,4.7,1.8,7.6,1.8
		c2.2,0,4.2-0.4,6-1.1c1.8-0.7,3.4-1.7,4.8-3c0.9-0.9,1.7-1.9,2.4-2.9l-1.2,7.6c-0.6,3.6-1.9,6.3-4,8c-2.1,1.7-4.8,2.6-8.1,2.6
		c-1.9,0-3.5-0.2-5.1-0.6c-1.5-0.4-3-1-4.3-1.8c-1.3-0.8-2.7-1.7-4.2-2.7l-1.8,3.5c2,1.6,4.3,2.8,6.9,3.9c2.6,1,5.6,1.5,8.8,1.5
		c3.1,0,5.8-0.5,8-1.6c2.2-1.1,4-2.7,5.4-4.8c1.4-2.2,2.3-4.9,2.8-8.2l5.7-35.9h-4.5L412.7,199.2z M409.7,214.5
		c-1.1,2.7-2.7,4.8-4.7,6.4c-2.1,1.6-4.6,2.4-7.7,2.4c-3.4,0-6-1-7.9-2.9c-1.9-1.9-2.8-4.7-2.8-8.2c0-3.1,0.5-5.9,1.6-8.5
		c1.1-2.6,2.6-4.8,4.7-6.4c2.1-1.6,4.7-2.4,7.7-2.4c3.4,0,6.1,1,8,2.9c1.9,1.9,2.9,4.6,2.9,8.2C411.3,209,410.7,211.8,409.7,214.5z"
		/>
	<path class="st6" d="M451.1,193.3c-1.3-0.7-2.8-1.3-4.4-1.7c-1.6-0.4-3.2-0.6-4.9-0.6c-2.8,0-5.3,0.5-7.4,1.4c-2.2,1-3.8,2.3-5,3.9
		c-1.2,1.7-1.8,3.6-1.8,5.7c0,2.2,0.7,4.1,2.1,5.7c1.4,1.6,3.3,2.7,5.7,3.3l7.1,1.8c1.7,0.5,3,1.1,3.9,2c0.9,0.9,1.4,2.1,1.4,3.5
		c0,2.2-0.8,3.8-2.5,5c-1.7,1.2-3.9,1.7-6.8,1.7c-1.6,0-3-0.1-4.4-0.4c-1.4-0.3-2.7-0.7-4-1.3s-2.5-1.4-3.7-2.3l-2,3.3
		c1.6,1.4,3.6,2.5,6,3.3c2.5,0.8,5.1,1.2,8,1.2c2.8,0,5.2-0.4,7.3-1.3c2.1-0.9,3.7-2.1,4.9-3.7c1.2-1.6,1.8-3.6,1.8-5.8
		s-0.7-4.1-2.1-5.5c-1.4-1.4-3.4-2.5-5.9-3.1l-7.2-1.9c-1.7-0.5-2.9-1.2-3.7-2.1c-0.8-1-1.2-2.1-1.2-3.4c0-2.2,0.9-3.9,2.6-5.2
		c1.8-1.3,4.1-1.9,7-1.9c2.2,0,4.2,0.3,6,1s3.4,1.7,4.8,3.2l1.9-3.2C453.5,194.8,452.4,194,451.1,193.3z"/>
	<path class="st6" d="M510.7,199.2c-0.9-2.6-2.4-4.6-4.5-6c-2.4-1.5-5-2.3-8-2.3c-3.9,0-7.2,1-10,3.1c-2.7,2.1-4.8,4.8-6.2,8.1
		c-1.4,3.4-2.1,7-2.1,11c0,3.2,0.6,6,1.8,8.3c1.2,2.3,2.8,4.1,5,5.4c2.1,1.3,4.6,1.9,7.4,1.9c2.2,0,4.2-0.4,6-1.1s3.4-1.7,4.7-3
		c0.8-0.8,1.6-1.8,2.3-2.7l-1,6.2h4.5l8.4-53h-4.6L510.7,199.2z M507.6,215.8c-1.1,2.8-2.6,5-4.7,6.6c-2.1,1.7-4.6,2.5-7.6,2.5
		c-3.4,0-6-1-7.9-3c-1.9-2-2.8-4.9-2.8-8.8c0-3.4,0.5-6.4,1.6-9.1c1.1-2.7,2.6-4.9,4.7-6.6c2.1-1.7,4.6-2.5,7.5-2.5c3.4,0,6,1,7.9,3
		c1.9,2,2.9,4.9,2.9,8.8C509.2,210,508.7,213,507.6,215.8z"/>
	<path class="st6" d="M551.2,193.7c-2.2-1.8-5.1-2.7-8.9-2.7c-4,0-7.4,1-10.3,3c-2.9,2-5.1,4.7-6.6,8c-1.5,3.3-2.3,6.9-2.3,10.8
		c0,3.3,0.7,6.1,2,8.5c1.3,2.4,3.2,4.2,5.6,5.4c2.5,1.3,5.4,1.9,8.7,1.9c2.6,0,5.2-0.4,7.7-1.3c2.5-0.9,4.6-2.1,6.3-3.8l-1.9-3.2
		c-1.7,1.6-3.5,2.7-5.5,3.4c-2,0.7-4.2,1.1-6.5,1.1c-2.9,0-5.2-0.6-7.2-1.9c-1.9-1.3-3.3-3.1-4.1-5.3c-0.7-2-0.9-4.2-0.6-6.8h28
		l0.2-1.5c0.5-3.1,0.4-6-0.4-8.8C554.8,197.7,553.3,195.4,551.2,193.7z M530.4,201.7c1.1-2.1,2.6-3.7,4.5-5.1c2-1.3,4.4-2,7.3-2
		c2.8,0,5,0.6,6.5,1.9c1.5,1.3,2.6,2.9,3.1,5c0.5,1.8,0.6,3.8,0.3,5.9h-23.9C528.7,205.5,529.4,203.6,530.4,201.7z"/>
	<path class="st6" d="M588.7,193.3c-1.3-0.7-2.8-1.3-4.4-1.7c-1.6-0.4-3.2-0.6-4.9-0.6c-2.8,0-5.3,0.5-7.4,1.4c-2.2,1-3.8,2.3-5,3.9
		c-1.2,1.7-1.8,3.6-1.8,5.7c0,2.2,0.7,4.1,2.1,5.7c1.4,1.6,3.3,2.7,5.7,3.3l7.1,1.8c1.7,0.5,3,1.1,3.9,2c0.9,0.9,1.4,2.1,1.4,3.5
		c0,2.2-0.8,3.8-2.5,5c-1.7,1.2-3.9,1.7-6.8,1.7c-1.6,0-3-0.1-4.4-0.4c-1.4-0.3-2.7-0.7-4-1.3s-2.5-1.4-3.7-2.3l-2,3.3
		c1.6,1.4,3.6,2.5,6,3.3s5.1,1.2,8,1.2c2.8,0,5.2-0.4,7.3-1.3c2.1-0.9,3.7-2.1,4.9-3.7c1.2-1.6,1.8-3.6,1.8-5.8s-0.7-4.1-2.1-5.5
		c-1.4-1.4-3.4-2.5-5.9-3.1l-7.2-1.9c-1.7-0.5-2.9-1.2-3.7-2.1c-0.8-1-1.2-2.1-1.2-3.4c0-2.2,0.9-3.9,2.6-5.2c1.8-1.3,4.1-1.9,7-1.9
		c2.2,0,4.2,0.3,6,1s3.4,1.7,4.8,3.2l1.9-3.2C591.1,194.8,590,194,588.7,193.3z"/>
	<path class="st6" d="M611.6,180.4h-4.6l-1.8,11.3h-7.1l-0.6,3.7h7.2l-3.3,20.7c-0.4,2.6-0.3,4.8,0.4,6.7c0.7,1.9,1.9,3.3,3.6,4.4
		c1.7,1,3.9,1.5,6.6,1.5c1.1,0,2.1-0.1,3.3-0.4s2-0.5,2.5-0.8l-0.6-3.7c-0.6,0.2-1.3,0.4-2,0.6c-0.8,0.2-1.6,0.3-2.5,0.3
		c-2.7,0-4.5-0.7-5.7-2.2c-1.1-1.5-1.4-3.8-0.9-7.1l3.2-20.1H621l0.6-3.7h-11.8L611.6,180.4z"/>
	<polygon class="st6" points="623.1,228.1 627.6,228.1 633.5,191.7 628.9,191.7 	"/>
	<polygon class="st6" points="629.7,182 635.8,182 636.7,176.3 630.6,176.3 	"/>
	<path class="st6" d="M669.2,192.6c-1.8-1.1-4.1-1.7-6.8-1.7c-3.5,0-6.4,0.8-8.9,2.5c-1.8,1.2-3.3,2.7-4.4,4.6l1-6.4h-4.5l-5.8,36.4
		h4.6l3.2-19.8c0.5-2.7,1.3-5,2.4-7c1.2-2,2.7-3.5,4.7-4.6c2-1.1,4.3-1.7,6.9-1.7c2.1,0,3.7,0.4,4.9,1.2c1.2,0.8,2,2,2.4,3.6
		c0.4,1.6,0.4,3.7,0,6.1l-3.5,22.2h4.6l3.5-22.2c0.6-3.4,0.4-6.1-0.3-8.3C672.4,195.4,671.1,193.7,669.2,192.6z"/>
	<path class="st6" d="M708.4,192.8c-1.9-1.2-4.5-1.8-7.6-1.8c-1.8,0-3.5,0.2-5.2,0.5c-1.7,0.4-3.4,0.9-4.9,1.5
		c-1.6,0.7-2.9,1.4-4.1,2.3l1.5,3.5c2-1.4,3.9-2.3,5.9-3c2-0.6,4.2-0.9,6.5-0.9c3.3,0,5.6,0.8,6.9,2.4c1.3,1.6,1.7,4,1.1,7.3
		l-0.4,2.6h-5.3c-4.8,0-8.7,0.4-11.7,1.1c-3.1,0.7-5.3,1.8-6.8,3.4c-1.5,1.6-2.2,3.6-2.2,6.2c0,2.2,0.6,4,1.7,5.7
		c1.1,1.6,2.6,2.9,4.4,3.8c1.8,0.9,3.7,1.4,5.8,1.4c1.8,0,3.6-0.3,5.3-1c1.7-0.7,3.3-1.7,4.6-3c0.7-0.7,1.3-1.6,1.9-2.5l-0.9,5.9
		h4.4l3.5-22.2c0.5-3.1,0.4-5.7-0.3-7.9C711.6,195.7,710.3,194,708.4,192.8z M704.6,219.9c-1.2,1.7-2.7,3-4.4,3.8
		c-1.7,0.9-3.5,1.3-5.5,1.3c-2,0-3.8-0.6-5.4-1.9c-1.6-1.3-2.4-3.1-2.4-5.5c0-1.8,0.5-3.2,1.5-4.2c1-1.1,2.8-1.8,5.2-2.2
		c2.5-0.4,5.8-0.6,10.1-0.6h3.7l-0.5,3.2C706.6,216.2,705.8,218.2,704.6,219.9z"/>
	<path class="st6" d="M734.8,180.4h-4.6l-1.8,11.3h-7.1l-0.6,3.7h7.2l-3.3,20.7c-0.4,2.6-0.3,4.8,0.4,6.7c0.7,1.9,1.9,3.3,3.6,4.4
		c1.7,1,3.9,1.5,6.6,1.5c1.1,0,2.1-0.1,3.3-0.4s2-0.5,2.5-0.8l-0.6-3.7c-0.6,0.2-1.3,0.4-2,0.6c-0.8,0.2-1.6,0.3-2.5,0.3
		c-2.7,0-4.5-0.7-5.7-2.2c-1.1-1.5-1.4-3.8-0.9-7.1l3.2-20.1h11.8l0.6-3.7H733L734.8,180.4z"/>
	<polygon class="st6" points="752.8,182 759,182 759.9,176.3 753.8,176.3 	"/>
	<polygon class="st6" points="746.2,228.1 750.8,228.1 756.6,191.7 752.1,191.7 	"/>
	<path class="st6" d="M790.2,192.9c-2.3-1.3-5-1.9-8.1-1.9c-3,0-5.6,0.6-7.9,1.7c-2.3,1.2-4.3,2.7-5.9,4.7c-1.6,2-2.9,4.3-3.7,7
		c-0.8,2.7-1.2,5.5-1.2,8.4c0,3.3,0.6,6.1,1.8,8.5c1.2,2.4,3,4.2,5.3,5.4c2.3,1.3,5,1.9,8.1,1.9c3,0,5.6-0.6,7.9-1.7
		c2.3-1.1,4.2-2.7,5.9-4.7c1.6-2,2.9-4.4,3.7-7c0.9-2.6,1.3-5.4,1.3-8.5c0-3.3-0.6-6.1-1.8-8.5C794.2,196,792.5,194.2,790.2,192.9z
		 M791,215.8c-1.1,2.8-2.6,5-4.7,6.6c-2.1,1.7-4.6,2.5-7.6,2.5c-3.4,0-6-1-7.9-3c-1.9-2-2.8-4.9-2.8-8.8c0-3.4,0.5-6.4,1.6-9.1
		c1.1-2.7,2.6-4.9,4.7-6.6c2.1-1.7,4.6-2.5,7.5-2.5c3.4,0,6,1,7.9,3c1.9,2,2.9,4.9,2.9,8.8C792.6,210,792.1,213,791,215.8z"/>
	<path class="st6" d="M837.4,197.6c-0.8-2.2-2.1-3.9-3.9-5c-1.8-1.1-4.1-1.7-6.8-1.7c-3.5,0-6.4,0.8-8.9,2.5
		c-1.8,1.2-3.3,2.7-4.4,4.6l1-6.4h-4.5l-5.8,36.4h4.6l3.2-19.8c0.5-2.7,1.3-5,2.4-7c1.2-2,2.7-3.5,4.7-4.6c2-1.1,4.3-1.7,6.9-1.7
		c2.1,0,3.7,0.4,4.9,1.2c1.2,0.8,2,2,2.4,3.6c0.4,1.6,0.4,3.7,0,6.1l-3.5,22.2h4.6l3.5-22.2C838.3,202.6,838.1,199.8,837.4,197.6z"
		/>
</g>
<linearGradient id="SVGID_4_" gradientUnits="userSpaceOnUse" x1="92.9193" y1="-28.7012" x2="70.9609" y2="166.1792">
	<stop  offset="0" style="stop-color:#005DAB"/>
	<stop  offset="0.7088" style="stop-color:#00347A"/>
	<stop  offset="1" style="stop-color:#002366"/>
</linearGradient>
<path class="st7" d="M85.8,152.4c-11.7,0-22.3-2.2-31.5-6.6c-9.3-4.4-16.6-11-21.9-19.9c-5.3-8.9-8-19.9-8-33
	c0-10.6,1.6-20.5,4.7-29.5c3.2-9,7.8-16.9,14-23.7c6.2-6.8,13.8-12.1,22.7-15.9c9-3.8,19.3-5.7,30.9-5.7c8.9,0,17.2,1.4,24.9,4.1
	c7.7,2.7,13.9,6.3,18.6,10.8l-11.1,22.8c-5.1-4.1-10.4-7.2-15.9-9.3c-5.5-2.1-11.3-3.2-17.3-3.2c-8.9,0-16.4,2.1-22.5,6.4
	S62.7,59.7,59.5,67c-3.2,7.3-4.7,15.6-4.7,24.8c0,8.2,1.3,14.9,3.8,20.1c2.5,5.3,6.4,9.1,11.5,11.6c5.1,2.5,11.5,3.7,19,3.7
	c5.3,0,10.7-0.9,16.1-2.8c5.4-1.9,11-4.8,16.7-8.7l7.6,22.6c-3.5,3.1-7.6,5.7-12.5,7.8c-4.9,2.1-10,3.7-15.4,4.7
	C96.3,151.9,91,152.4,85.8,152.4z"/>
<linearGradient id="SVGID_5_" gradientUnits="userSpaceOnUse" x1="310.3891" y1="-4.1976" x2="288.4307" y2="190.6828">
	<stop  offset="0" style="stop-color:#005DAB"/>
	<stop  offset="0.7088" style="stop-color:#00347A"/>
	<stop  offset="1" style="stop-color:#002366"/>
</linearGradient>
<path class="st8" d="M278.9,152.4c-6.4,0-11.9-1.3-16.5-4c-4.6-2.7-7.8-6.9-9.6-12.7c-1.9-5.8-2.2-13.2-0.9-22.1l8.7-54h28
	l-8.5,53.6c-0.6,3.7-0.6,6.9,0,9.5c0.6,2.7,1.9,4.6,3.7,5.9c1.9,1.3,4.3,1.9,7.4,1.9c3.8,0,7.3-0.9,10.3-2.8c3-1.9,5.5-4.5,7.5-7.8
	c2-3.3,3.3-7.4,4.1-12.1l7.4-48.4h28l-14.3,90.9h-27.4l2.8-17.2h1.5c-3.1,6.2-7.4,10.9-13,14.2C292.5,150.8,286.1,152.4,278.9,152.4
	z"/>
<linearGradient id="SVGID_6_" gradientUnits="userSpaceOnUse" x1="420.1018" y1="8.1644" x2="398.1434" y2="203.0448">
	<stop  offset="0" style="stop-color:#005DAB"/>
	<stop  offset="0.7088" style="stop-color:#00347A"/>
	<stop  offset="1" style="stop-color:#002366"/>
</linearGradient>
<path class="st9" d="M350.5,184l19.7-124.2h27.4l-2.4,15.6h-1.3c2.2-3.6,4.9-6.7,8.1-9.5c3.2-2.7,6.7-4.8,10.8-6.1
	c4-1.4,8.3-2,12.7-2c6.8,0,12.8,1.6,17.9,4.8c5.1,3.2,9.1,7.8,11.9,13.6C458,82,459.3,89,459.3,97c0,10.5-1.9,20-5.6,28.4
	c-3.7,8.4-9,15-15.9,19.8c-6.9,4.8-15,7.2-24.4,7.2c-6.8,0-12.8-1.5-18-4.6c-5.2-3.1-8.8-7.7-10.9-13.7h1.9l-8,49.9H350.5z
	 M407.8,131.7c4.9,0,9.1-1.5,12.6-4.4c3.5-2.9,6.1-6.9,8-11.9c1.9-5,2.8-10.6,2.8-16.8c0-6.6-1.5-11.5-4.5-14.9
	c-3-3.4-7.2-5.1-12.5-5.1c-4.8,0-9,1.4-12.5,4.3c-3.5,2.8-6.2,6.7-8.1,11.7c-1.9,4.9-2.8,10.6-2.8,17.1c0,6.4,1.5,11.4,4.5,14.8
	C398.3,129.9,402.5,131.7,407.8,131.7z"/>
<linearGradient id="SVGID_7_" gradientUnits="userSpaceOnUse" x1="529.4199" y1="20.4819" x2="507.4616" y2="215.3624">
	<stop  offset="0" style="stop-color:#005DAB"/>
	<stop  offset="0.7088" style="stop-color:#00347A"/>
	<stop  offset="1" style="stop-color:#002366"/>
</linearGradient>
<path class="st10" d="M516.1,152.4c-9.4,0-17.4-1.7-24.1-5.1c-6.7-3.4-11.8-8.3-15.3-14.6c-3.5-6.3-5.3-13.7-5.3-22.1
	c0-8.4,1.4-15.9,4.2-22.5c2.8-6.6,6.6-12.2,11.6-16.8c4.9-4.6,10.5-8,16.7-10.3c6.2-2.3,12.7-3.4,19.7-3.4c9.4,0,17.4,1.7,24.1,5.1
	c6.7,3.4,11.8,8.3,15.4,14.6c3.6,6.3,5.4,13.7,5.4,22.1c0,8.5-1.4,16.1-4.3,22.6c-2.8,6.6-6.7,12.1-11.6,16.7
	c-4.9,4.6-10.4,8-16.6,10.3C529.7,151.3,523.1,152.4,516.1,152.4z M516.8,131.7c4.8,0,9-1.5,12.4-4.4c3.5-2.9,6.2-6.9,8.1-11.9
	c1.9-5,2.9-10.6,2.9-16.8c0-6.6-1.5-11.5-4.6-14.9c-3.1-3.4-7.3-5.1-12.6-5.1c-4.9,0-9.1,1.4-12.6,4.3c-3.5,2.8-6.1,6.7-8,11.7
	c-1.9,4.9-2.8,10.6-2.8,17.1c0,6.4,1.5,11.4,4.6,14.8C507.3,129.9,511.5,131.7,516.8,131.7z"/>
<linearGradient id="SVGID_8_" gradientUnits="userSpaceOnUse" x1="637.1548" y1="32.6211" x2="615.1964" y2="227.5015">
	<stop  offset="0" style="stop-color:#005DAB"/>
	<stop  offset="0.7088" style="stop-color:#00347A"/>
	<stop  offset="1" style="stop-color:#002366"/>
</linearGradient>
<path class="st11" d="M578,150.6l14.3-90.9h27.4L617,76.8h-1.3c3.1-6.2,7.4-10.9,13-14.2c5.6-3.3,12.1-4.9,19.7-4.9
	c6.7,0,12.3,1.4,16.9,4.1c4.6,2.7,7.8,7,9.7,12.7c1.9,5.7,2.2,13.1,0.8,22l-8.7,54.1h-28l8.7-53.8c0.6-4,0.6-7.2-0.1-9.6
	c-0.7-2.5-1.9-4.4-3.8-5.7c-1.9-1.4-4.4-2-7.6-2c-4.2,0-7.9,0.9-10.9,2.7c-3.1,1.8-5.6,4.4-7.6,7.7c-2,3.3-3.3,7.4-3.9,12.2
	l-7.8,48.6H578z"/>
<linearGradient id="SVGID_9_" gradientUnits="userSpaceOnUse" x1="213.1674" y1="-15.1522" x2="191.2091" y2="179.7283">
	<stop  offset="0" style="stop-color:#005DAB"/>
	<stop  offset="0.7088" style="stop-color:#00347A"/>
	<stop  offset="1" style="stop-color:#002366"/>
</linearGradient>
<path class="st12" d="M258.5,155.2l-27.7-27.7c-0.2-0.2-0.3-0.4-0.5-0.5c5.6-8.5,8.4-18.1,8.4-28.6c0-14.5-5.2-27.1-15.5-37.4
	c-10.3-10.3-22.9-15.5-37.4-15.5c-14.5,0-27.1,5.2-37.4,15.5C138.3,71.3,133,83.8,133,98.3c0,14.5,5.2,27.1,15.5,37.4
	c10.3,10.3,22.8,15.5,37.4,15.5c10.5,0,20.1-2.8,28.6-8.5c0.1,0.1,0.2,0.2,0.3,0.3l27.9,27.9c1.8,2,3.8,2.5,5.2,2.5
	c0.1,0,0.1,0,0.2,0c1.4,0,3.4-0.4,5.4-2.4l5.1-5.1c2.1-2.1,2.5-4.2,2.4-5.6C261,159,260.5,157,258.5,155.2z M185.9,130.5
	c-8.9,0-16.4-3.1-22.7-9.5l0,0c-6.4-6.4-9.5-13.8-9.5-22.7c0-8.9,3.1-16.4,9.5-22.7c6.4-6.4,13.8-9.5,22.7-9.5
	c8.9,0,16.4,3.1,22.7,9.5c6.4,6.4,9.5,13.8,9.5,22.7c0,8.9-3.1,16.4-9.5,22.7C202.2,127.4,194.8,130.5,185.9,130.5z"/>
<g>
	<linearGradient id="SVGID_10_" gradientUnits="userSpaceOnUse" x1="198.4244" y1="-16.8133" x2="176.466" y2="178.0671">
		<stop  offset="0" style="stop-color:#FEAC11"/>
		<stop  offset="1" style="stop-color:#E74D08"/>
	</linearGradient>
	<path class="st13" d="M171.4,103.5c-2.1,0-3.9-0.5-5.3-1.5c-1.5-1-2.6-2.4-3.4-4.2c-0.8-1.8-1.2-4-1.2-6.5c0-3.7,0.9-6.6,2.6-8.8
		c1.7-2.2,4.2-3.2,7.3-3.2c2.1,0,3.8,0.5,5.3,1.5c1.5,1,2.6,2.4,3.4,4.2c0.8,1.8,1.2,3.9,1.2,6.4c0,2.5-0.4,4.6-1.2,6.4
		c-0.8,1.8-1.9,3.2-3.3,4.2C175.3,103.1,173.5,103.5,171.4,103.5z M171.4,98.2c1,0,1.9-0.5,2.4-1.6c0.6-1.1,0.9-2.8,0.9-5.1
		c0-2.3-0.3-4-0.9-5.1c-0.6-1-1.4-1.5-2.4-1.5c-1.1,0-1.9,0.5-2.5,1.5c-0.6,1-0.9,2.7-0.9,5.1c0,2.4,0.3,4.1,0.9,5.1
		C169.5,97.7,170.3,98.2,171.4,98.2z M176.8,121.2l-5.2-3.1l22.1-39.7l5.2,3.1L176.8,121.2z M199.2,120.1c-2.1,0-3.9-0.5-5.3-1.5
		c-1.5-1-2.6-2.4-3.4-4.2c-0.8-1.8-1.2-4-1.2-6.4c0-3.7,0.9-6.6,2.6-8.8c1.7-2.2,4.2-3.2,7.3-3.2c2.1,0,3.9,0.5,5.3,1.5
		c1.5,1,2.6,2.4,3.4,4.2c0.8,1.8,1.2,3.9,1.2,6.3c0,2.5-0.4,4.6-1.2,6.4c-0.8,1.8-1.9,3.2-3.4,4.2
		C203.1,119.6,201.3,120.1,199.2,120.1z M199.2,114.7c1.1,0,1.9-0.5,2.5-1.6c0.6-1.1,0.9-2.8,0.9-5.1c0-2.4-0.3-4-0.9-5
		c-0.6-1-1.4-1.5-2.5-1.5s-1.9,0.5-2.5,1.5c-0.6,1-0.9,2.7-0.9,5.1c0,2.4,0.3,4.2,0.9,5.2C197.3,114.2,198.1,114.7,199.2,114.7z"/>
</g>
</svg>
