<?xml version="1.0" encoding="utf-8"?>
<!-- Generator: Adobe Illustrator 24.3.0, SVG Export Plug-In . SVG Version: 6.00 Build 0)  -->
<svg version="1.1" id="Layer_1" xmlns="http://www.w3.org/2000/svg" xmlns:xlink="http://www.w3.org/1999/xlink" x="0px" y="0px"
	 viewBox="0 0 64 64" style="enable-background:new 0 0 64 64;" xml:space="preserve">
<style type="text/css">
	.st0{fill:url(#SVGID_1_);}
	.st1{fill:url(#SVGID_2_);}
	.st2{fill:url(#SVGID_3_);}
	.st3{fill:url(#SVGID_4_);}
	.st4{fill:url(#SVGID_5_);}
	.st5{fill:url(#SVGID_6_);}
	.st6{fill:url(#SVGID_7_);}
	.st7{fill:url(#SVGID_8_);}
	.st8{fill:url(#SVGID_9_);}
	.st9{fill:url(#SVGID_10_);}
	.st10{fill:url(#SVGID_11_);}
	.st11{fill:url(#SVGID_12_);}
	.st12{fill:url(#SVGID_13_);}
	.st13{fill:url(#SVGID_14_);}
	.st14{fill:url(#SVGID_15_);}
	.st15{fill:url(#SVGID_16_);}
	.st16{fill:url(#SVGID_17_);}
	.st17{fill:url(#SVGID_18_);}
	.st18{fill:url(#SVGID_19_);}
	.st19{fill:url(#SVGID_20_);}
	.st20{fill:url(#SVGID_21_);}
	.st21{fill:url(#SVGID_22_);}
	.st22{fill:url(#SVGID_23_);}
	.st23{fill:url(#SVGID_24_);}
	.st24{fill:url(#SVGID_25_);}
	.st25{fill:url(#SVGID_26_);}
	.st26{fill:url(#SVGID_27_);}
	.st27{fill:url(#SVGID_28_);}
	.st28{fill:url(#SVGID_29_);}
	.st29{fill:url(#SVGID_30_);}
	.st30{fill:url(#SVGID_31_);}
	.st31{fill:url(#SVGID_32_);}
	.st32{fill:url(#SVGID_33_);}
	.st33{fill:url(#SVGID_34_);}
	.st34{fill:url(#SVGID_35_);stroke:url(#SVGID_36_);stroke-linecap:round;stroke-miterlimit:15;}
	.st35{fill:#FFFFFF;}
	.st36{fill:url(#SVGID_37_);}
	.st37{fill:url(#SVGID_38_);stroke:url(#SVGID_39_);stroke-linecap:round;stroke-miterlimit:15;}
	.st38{fill:url(#SVGID_40_);}
	.st39{fill:url(#SVGID_41_);}
	.st40{fill:url(#SVGID_42_);}
	.st41{fill:url(#SVGID_43_);}
</style>
<g>
	<linearGradient id="SVGID_1_" gradientUnits="userSpaceOnUse" x1="12.2938" y1="55.0354" x2="48.2644" y2="16.0415">
		<stop  offset="0" style="stop-color:#01288B"/>
		<stop  offset="0.1528" style="stop-color:#032D8F"/>
		<stop  offset="0.3295" style="stop-color:#073B99"/>
		<stop  offset="0.5181" style="stop-color:#0F52AB"/>
		<stop  offset="0.715" style="stop-color:#1A72C3"/>
		<stop  offset="0.9166" style="stop-color:#289CE3"/>
		<stop  offset="0.9485" style="stop-color:#2AA3E8"/>
	</linearGradient>
	<linearGradient id="SVGID_2_" gradientUnits="userSpaceOnUse" x1="5.2285" y1="31" x2="59.2726" y2="31">
		<stop  offset="7.731959e-02" style="stop-color:#01288B"/>
		<stop  offset="1" style="stop-color:#2AA3E8"/>
	</linearGradient>
	<path style="fill:url(#SVGID_1_);stroke:url(#SVGID_2_);stroke-linecap:round;stroke-miterlimit:15;" d="M58.6,21.7L52.7,6.3
		c-0.4-1.2-1.5-2-2.8-2.1L31.2,2.5c-0.7-0.1-1.4,0.1-2,0.4L18,9.6c-0.7,0.4-1.2,1-1.4,1.7L5.9,40.4c-0.6,1.6,0.2,3.5,1.8,4.2
		l34.1,14.6c1.7,0.7,3.7-0.1,4.4-1.9l12.4-33.3C58.8,23.3,58.8,22.5,58.6,21.7z M46.1,14.7c-2.7,0-4.8-2.2-4.8-4.8
		c0-2.7,2.2-4.8,4.8-4.8c2.7,0,4.8,2.2,4.8,4.8C51,12.6,48.8,14.7,46.1,14.7z"/>
	<path class="st35" d="M42.1,56.8c-0.4,0-0.8-0.1-1.1-0.2l-0.5-0.2c-0.2-0.1-0.3-0.3-0.2-0.5c0.1-0.2,0.3-0.3,0.5-0.2l0.5,0.2
		c0.4,0.2,0.9,0.2,1.4,0.1c0.2-0.1,0.4,0.1,0.5,0.3c0.1,0.2-0.1,0.4-0.3,0.5C42.6,56.8,42.3,56.8,42.1,56.8z"/>
	<path class="st35" d="M38.5,55.5c-0.1,0-0.1,0-0.2,0l-2.1-0.9c-0.2-0.1-0.3-0.3-0.2-0.5c0.1-0.2,0.3-0.3,0.5-0.2l2.1,0.9
		c0.2,0.1,0.3,0.3,0.2,0.5C38.7,55.4,38.6,55.5,38.5,55.5z"/>
	<path class="st35" d="M44.8,55l-0.4-0.1L44,54.7l0.8-2.1c0.1-0.2,0.3-0.3,0.5-0.2c0.2,0.1,0.3,0.3,0.2,0.5L44.8,55z"/>
	<path class="st35" d="M34.3,53.7c-0.1,0-0.1,0-0.2,0L32,52.8c-0.2-0.1-0.3-0.3-0.2-0.5c0.1-0.2,0.3-0.3,0.5-0.2l2.1,0.9
		c0.2,0.1,0.3,0.3,0.2,0.5C34.5,53.6,34.4,53.7,34.3,53.7z"/>
	<path class="st35" d="M30.1,51.9c-0.1,0-0.1,0-0.2,0l-2.1-0.9c-0.2-0.1-0.3-0.3-0.2-0.5c0.1-0.2,0.3-0.3,0.5-0.2l2.1,0.9
		c0.2,0.1,0.3,0.3,0.2,0.5C30.4,51.8,30.2,51.9,30.1,51.9z"/>
	<path class="st35" d="M46,51c0,0-0.1,0-0.1,0c-0.2-0.1-0.3-0.3-0.2-0.5l0.8-2.1c0.1-0.2,0.3-0.3,0.5-0.2c0.2,0.1,0.3,0.3,0.2,0.5
		l-0.8,2.1C46.3,50.9,46.1,51,46,51z"/>
	<path class="st35" d="M25.9,50.1c-0.1,0-0.1,0-0.2,0l-2.1-0.9c-0.2-0.1-0.3-0.3-0.2-0.5c0.1-0.2,0.3-0.3,0.5-0.2l2.1,0.9
		c0.2,0.1,0.3,0.3,0.2,0.5C26.2,50,26,50.1,25.9,50.1z"/>
	<path class="st35" d="M21.7,48.3c-0.1,0-0.1,0-0.2,0l-2.1-0.9c-0.2-0.1-0.3-0.3-0.2-0.5c0.1-0.2,0.3-0.3,0.5-0.2l2.1,0.9
		c0.2,0.1,0.3,0.3,0.2,0.5C22,48.2,21.8,48.3,21.7,48.3z"/>
	<path class="st35" d="M47.6,46.7c0,0-0.1,0-0.1,0c-0.2-0.1-0.3-0.3-0.2-0.5L48,44c0.1-0.2,0.3-0.3,0.5-0.2c0.2,0.1,0.3,0.3,0.2,0.5
		l-0.8,2.1C47.9,46.6,47.7,46.7,47.6,46.7z"/>
	<path class="st35" d="M17.5,46.5c-0.1,0-0.1,0-0.2,0l-2.1-0.9C15,45.5,14.9,45.2,15,45c0.1-0.2,0.3-0.3,0.5-0.2l2.1,0.9
		c0.2,0.1,0.3,0.3,0.2,0.5C17.8,46.4,17.6,46.5,17.5,46.5z"/>
	<path class="st35" d="M13.3,44.7c-0.1,0-0.1,0-0.2,0L11,43.7c-0.2-0.1-0.3-0.3-0.2-0.5c0.1-0.2,0.3-0.3,0.5-0.2l2.1,0.9
		c0.2,0.1,0.3,0.3,0.2,0.5C13.6,44.6,13.4,44.7,13.3,44.7z"/>
	<path class="st35" d="M9.2,42.6c-0.1,0-0.2,0-0.3-0.1c-0.4-0.5-0.7-1.2-0.7-1.9c0-0.2,0-0.4,0.1-0.6c0-0.1,0-0.1,0.1-0.2
		c0-0.1,0-0.1,0-0.2l0.8-2.1c0.1-0.2,0.3-0.3,0.5-0.2c0.2,0.1,0.3,0.3,0.2,0.5l-0.8,2.1c0,0,0,0.1-0.1,0.1c0,0,0,0.1,0,0.1
		c0,0.1,0,0.3,0,0.4c0,0.5,0.2,1,0.5,1.4c0.1,0.2,0.1,0.4,0,0.5C9.4,42.6,9.3,42.6,9.2,42.6z"/>
	<path class="st35" d="M49.2,42.4c0,0-0.1,0-0.1,0c-0.2-0.1-0.3-0.3-0.2-0.5l0.8-2.1c0.1-0.2,0.3-0.3,0.5-0.2
		c0.2,0.1,0.3,0.3,0.2,0.5l-0.8,2.1C49.5,42.3,49.3,42.4,49.2,42.4z"/>
	<path class="st35" d="M50.8,38.1c0,0-0.1,0-0.1,0c-0.2-0.1-0.3-0.3-0.2-0.5l0.8-2.1c0.1-0.2,0.3-0.3,0.5-0.2
		c0.2,0.1,0.3,0.3,0.2,0.5l-0.8,2.1C51.1,38,50.9,38.1,50.8,38.1z"/>
	<path class="st35" d="M10.3,35.9c0,0-0.1,0-0.1,0c-0.2-0.1-0.3-0.3-0.2-0.5l0.8-2.1c0.1-0.2,0.3-0.3,0.5-0.2
		c0.2,0.1,0.3,0.3,0.2,0.5l-0.8,2.1C10.6,35.8,10.5,35.9,10.3,35.9z"/>
	<path class="st35" d="M52.3,33.8c0,0-0.1,0-0.1,0c-0.2-0.1-0.3-0.3-0.2-0.5l0.8-2.1c0.1-0.2,0.3-0.3,0.5-0.2
		c0.2,0.1,0.3,0.3,0.2,0.5l-0.8,2.1C52.6,33.7,52.5,33.8,52.3,33.8z"/>
	<path class="st35" d="M11.9,31.6c0,0-0.1,0-0.1,0c-0.2-0.1-0.3-0.3-0.2-0.5l0.8-2.1c0.1-0.2,0.3-0.3,0.5-0.2
		c0.2,0.1,0.3,0.3,0.2,0.5l-0.8,2.1C12.2,31.5,12.1,31.6,11.9,31.6z"/>
	<path class="st35" d="M53.9,29.5c0,0-0.1,0-0.1,0c-0.2-0.1-0.3-0.3-0.2-0.5l0.8-2.1c0.1-0.2,0.3-0.3,0.5-0.2
		c0.2,0.1,0.3,0.3,0.2,0.5l-0.8,2.1C54.2,29.4,54.1,29.5,53.9,29.5z"/>
	<path class="st35" d="M13.5,27.3c0,0-0.1,0-0.1,0c-0.2-0.1-0.3-0.3-0.2-0.5l0.8-2.1c0.1-0.2,0.3-0.3,0.5-0.2
		c0.2,0.1,0.3,0.3,0.2,0.5l-0.8,2.1C13.8,27.2,13.6,27.3,13.5,27.3z"/>
	<path class="st35" d="M55.5,25.3c0,0-0.1,0-0.1,0c-0.2-0.1-0.3-0.3-0.2-0.5l0-0.1c0.1-0.2,0.1-0.5,0.1-0.7c0-0.3,0-0.5-0.1-0.7
		l-0.1-0.4c-0.1-0.2,0-0.4,0.2-0.5c0.2-0.1,0.4,0,0.5,0.2l0.1,0.4c0.1,0.3,0.2,0.7,0.2,1c0,0.3-0.1,0.7-0.2,1l0,0.1
		C55.8,25.2,55.7,25.3,55.5,25.3z"/>
	<path class="st35" d="M15,23c0,0-0.1,0-0.1,0c-0.2-0.1-0.3-0.3-0.2-0.5l0.8-2.1c0.1-0.2,0.3-0.3,0.5-0.2c0.2,0.1,0.3,0.3,0.2,0.5
		l-0.8,2.1C15.3,22.9,15.2,23,15,23z"/>
	<path class="st35" d="M54.6,20.9c-0.2,0-0.3-0.1-0.4-0.2l-0.8-2.1c-0.1-0.2,0-0.4,0.2-0.5c0.2-0.1,0.4,0,0.5,0.2l0.8,2.1
		c0.1,0.2,0,0.4-0.2,0.5C54.7,20.9,54.7,20.9,54.6,20.9z"/>
	<path class="st35" d="M16.6,18.7c0,0-0.1,0-0.1,0c-0.2-0.1-0.3-0.3-0.2-0.5l0.8-2.1c0.1-0.2,0.3-0.3,0.5-0.2
		c0.2,0.1,0.3,0.3,0.2,0.5L17,18.5C16.9,18.6,16.8,18.7,16.6,18.7z"/>
	<path class="st35" d="M53,16.6c-0.2,0-0.3-0.1-0.4-0.2l-0.8-2.1c-0.1-0.2,0-0.4,0.2-0.5c0.2-0.1,0.4,0,0.5,0.2l0.8,2.1
		c0.1,0.2,0,0.4-0.2,0.5C53.1,16.6,53.1,16.6,53,16.6z"/>
	<path class="st35" d="M18.2,14.4c0,0-0.1,0-0.1,0c-0.2-0.1-0.3-0.3-0.2-0.5l0.2-0.5c0.2-0.6,0.7-1.1,1.2-1.5c0.2-0.1,0.4,0,0.5,0.1
		c0.1,0.2,0,0.4-0.1,0.5c-0.4,0.2-0.7,0.6-0.9,1.1l-0.2,0.5C18.5,14.3,18.3,14.4,18.2,14.4z"/>
	<path class="st35" d="M21.4,11.4c-0.1,0-0.3-0.1-0.3-0.2c-0.1-0.2,0-0.4,0.1-0.5l2-1.2c0.2-0.1,0.4,0,0.5,0.1
		c0.1,0.2,0,0.4-0.1,0.5l-2,1.2C21.6,11.4,21.5,11.4,21.4,11.4z"/>
	<path class="st35" d="M25.4,9.1c-0.1,0-0.3-0.1-0.3-0.2c-0.1-0.2,0-0.4,0.1-0.5l2-1.2c0.2-0.1,0.4,0,0.5,0.1c0.1,0.2,0,0.4-0.1,0.5
		l-2,1.2C25.5,9.1,25.4,9.1,25.4,9.1z"/>
	<path class="st35" d="M40.5,7C40.5,7,40.5,7,40.5,7l-2.3-0.2c-0.2,0-0.4-0.2-0.3-0.4c0-0.2,0.2-0.4,0.4-0.3l2.3,0.2
		c0.2,0,0.4,0.2,0.3,0.4C40.9,6.9,40.7,7,40.5,7z"/>
	<path class="st35" d="M29.3,6.8c-0.1,0-0.3-0.1-0.3-0.2c-0.1-0.2,0-0.4,0.1-0.5l0.4-0.2c0.5-0.3,1.1-0.4,1.7-0.4l0.3,0
		c0.2,0,0.4,0.2,0.3,0.4c0,0.2-0.2,0.4-0.4,0.3l-0.3,0c-0.4,0-0.9,0.1-1.3,0.3l-0.4,0.2C29.4,6.8,29.3,6.8,29.3,6.8z"/>
	<path class="st35" d="M36,6.6C36,6.6,36,6.6,36,6.6l-2.3-0.2c-0.2,0-0.4-0.2-0.3-0.4c0-0.2,0.2-0.4,0.4-0.3L36,5.9
		c0.2,0,0.4,0.2,0.3,0.4C36.4,6.5,36.2,6.6,36,6.6z"/>
	<g>
		<linearGradient id="SVGID_3_" gradientUnits="userSpaceOnUse" x1="18.7823" y1="28.2628" x2="48.3799" y2="28.2628">
			<stop  offset="0" style="stop-color:#FEAC11"/>
			<stop  offset="1" style="stop-color:#E74D08"/>
		</linearGradient>
		<path class="st2" d="M24.7,30.7c-1.3,0-2.3-0.2-3.2-0.7c-0.9-0.5-1.5-1.2-2-2.1s-0.7-1.9-0.7-3.1c0-1.7,0.3-3.3,0.8-4.7
			c0.6-1.4,1.4-2.5,2.4-3.3c1-0.8,2.3-1.2,3.8-1.2c1.3,0,2.3,0.2,3.2,0.7c0.9,0.5,1.5,1.2,2,2.1c0.5,0.9,0.7,1.9,0.7,3.1
			c0,1.8-0.3,3.4-0.8,4.8c-0.6,1.4-1.4,2.5-2.4,3.3C27.5,30.3,26.2,30.7,24.7,30.7z M24.7,27.4c0.6,0,1.2-0.3,1.6-0.9
			c0.4-0.6,0.7-1.3,1-2.3c0.2-0.9,0.3-1.9,0.3-2.8c0-0.9-0.1-1.6-0.4-2c-0.3-0.4-0.7-0.6-1.2-0.6c-0.6,0-1.2,0.3-1.6,0.9
			c-0.4,0.6-0.7,1.3-1,2.3c-0.2,0.9-0.3,1.9-0.4,2.9c0,0.9,0.1,1.6,0.4,2C23.7,27.2,24.1,27.4,24.7,27.4z M26.2,41.8l-3.1-2.2
			L41,14.7l3.1,2.1L26.2,41.8z M41.3,40.9c-1.3,0-2.3-0.2-3.2-0.7c-0.9-0.5-1.6-1.2-2-2.1c-0.4-0.9-0.7-1.9-0.7-3.1
			c0-1.7,0.3-3.3,0.8-4.7c0.6-1.4,1.4-2.5,2.4-3.3c1-0.8,2.3-1.2,3.8-1.2c1.3,0,2.3,0.2,3.2,0.7c0.9,0.5,1.5,1.2,2,2.1
			c0.5,0.9,0.7,1.9,0.7,3.1c0,1.8-0.3,3.3-0.8,4.7c-0.6,1.4-1.3,2.5-2.4,3.3C44.1,40.5,42.8,40.9,41.3,40.9z M41.2,37.6
			c0.7,0,1.2-0.3,1.6-0.9c0.4-0.6,0.8-1.3,1-2.3c0.2-0.9,0.4-1.9,0.4-2.9c0-0.9-0.1-1.6-0.4-2c-0.3-0.4-0.7-0.6-1.2-0.6
			c-0.7,0-1.2,0.3-1.6,0.9c-0.4,0.6-0.8,1.3-1,2.2c-0.2,0.9-0.3,1.9-0.3,2.9c0,0.9,0.1,1.6,0.4,2C40.3,37.4,40.7,37.6,41.2,37.6z"/>
	</g>
</g>
</svg>
