<?xml version="1.0" encoding="utf-8"?>
<!-- Generator: Adobe Illustrator 24.3.0, SVG Export Plug-In . SVG Version: 6.00 Build 0)  -->
<svg version="1.1" id="Layer_1" xmlns="http://www.w3.org/2000/svg" xmlns:xlink="http://www.w3.org/1999/xlink" x="0px" y="0px"
	 viewBox="0 0 250 72" style="enable-background:new 0 0 250 72;" xml:space="preserve">
<style type="text/css">
	.st0{fill:url(#SVGID_1_);}
	.st1{fill:url(#SVGID_2_);}
	.st2{fill:url(#SVGID_3_);}
	.st3{fill:url(#SVGID_4_);}
	.st4{fill:url(#SVGID_5_);}
	.st5{fill:url(#SVGID_6_);}
	.st6{fill:url(#SVGID_7_);}
	.st7{fill:url(#SVGID_8_);}
	.st8{fill:url(#SVGID_9_);}
	.st9{fill:url(#SVGID_10_);}
	.st10{fill:url(#SVGID_11_);}
	.st11{fill:url(#SVGID_12_);}
	.st12{fill:url(#SVGID_13_);}
	.st13{fill:url(#SVGID_14_);}
	.st14{fill:url(#SVGID_15_);}
	.st15{fill:url(#SVGID_16_);}
	.st16{fill:url(#SVGID_17_);}
	.st17{fill:url(#SVGID_18_);}
	.st18{fill:url(#SVGID_19_);}
	.st19{fill:url(#SVGID_20_);}
	.st20{fill:url(#SVGID_21_);}
	.st21{fill:url(#SVGID_22_);}
	.st22{fill:url(#SVGID_23_);}
	.st23{fill:#00347A;}
	.st24{fill:url(#SVGID_24_);}
	.st25{fill:url(#SVGID_25_);}
	.st26{fill:url(#SVGID_26_);}
	.st27{fill:url(#SVGID_27_);}
	.st28{fill:url(#SVGID_28_);}
	.st29{fill:url(#SVGID_29_);}
	.st30{fill:url(#SVGID_30_);}
	.st31{fill:url(#SVGID_31_);}
	.st32{fill:url(#SVGID_32_);}
	.st33{fill:url(#SVGID_33_);}
	.st34{fill:url(#SVGID_34_);}
</style>
<linearGradient id="SVGID_1_" gradientUnits="userSpaceOnUse" x1="13.3908" y1="-67.3299" x2="17.0393" y2="5.6408">
	<stop  offset="0" style="stop-color:#FEAC11"/>
	<stop  offset="1" style="stop-color:#E74D08"/>
</linearGradient>
<rect x="-14.6" y="-43.2" class="st0" width="60.3" height="38.9"/>
<linearGradient id="SVGID_2_" gradientUnits="userSpaceOnUse" x1="88.3571" y1="-61.8081" x2="81.0657" y2="2.9025">
	<stop  offset="0" style="stop-color:#005DAB"/>
	<stop  offset="0.7088" style="stop-color:#00347A"/>
	<stop  offset="1" style="stop-color:#002366"/>
</linearGradient>
<rect x="58" y="-43.2" class="st1" width="52.1" height="38.9"/>
<g>
	<radialGradient id="SVGID_3_" cx="-89.1649" cy="31.8376" r="50" gradientUnits="userSpaceOnUse">
		<stop  offset="0" style="stop-color:#A2BCDF"/>
		<stop  offset="1" style="stop-color:#F5F6FA"/>
	</radialGradient>
	<rect x="-139.2" y="-18.2" class="st2" width="100" height="100"/>
	<linearGradient id="SVGID_4_" gradientUnits="userSpaceOnUse" x1="-116.3417" y1="59.8615" x2="-63.6173" y2="-3.9122">
		<stop  offset="0" style="stop-color:#8DDAFD"/>
		<stop  offset="0.3219" style="stop-color:#5BAEFE"/>
		<stop  offset="0.6171" style="stop-color:#358CFE"/>
		<stop  offset="0.853" style="stop-color:#1E77FF"/>
		<stop  offset="1" style="stop-color:#156FFF"/>
	</linearGradient>
	<path class="st3" d="M-69.1,57.6l-31.3,8.2c-2.8,0.7-5.7-0.6-7-3.2L-126.5,23c-1.5-3.1-0.1-6.8,3-8.2l42.8-19.2
		c1.6-0.7,3.3-0.7,4.9,0l15.6,6.8c2.1,0.9,3.5,2.9,3.6,5.2l1.9,34.7c0.5-0.2,1.1-0.3,1.7-0.3c0.1,0,0.3,0,0.4,0l-1.9-36.1
		c-0.1-2.3-1.5-4.3-3.6-5.2l-17.1-7.5c-1.6-0.7-3.3-0.7-4.9,0l-46.5,20.8c-3.1,1.4-4.5,5.1-3,8.2l21,43.1c1.3,2.6,4.2,3.9,7,3.2
		l32.7-8.6c-0.1-0.4-0.1-0.8-0.1-1.2C-69.2,58.4-69.2,58-69.1,57.6z"/>
	<linearGradient id="SVGID_5_" gradientUnits="userSpaceOnUse" x1="-115.7747" y1="60.3303" x2="-63.0503" y2="-3.4434">
		<stop  offset="0" style="stop-color:#8DDAFD"/>
		<stop  offset="0.185" style="stop-color:#70B2F1"/>
		<stop  offset="0.4571" style="stop-color:#497DE2"/>
		<stop  offset="0.6935" style="stop-color:#2D57D7"/>
		<stop  offset="0.8824" style="stop-color:#1B40D0"/>
		<stop  offset="1" style="stop-color:#1537CE"/>
	</linearGradient>
	<path class="st4" d="M-66.3,54c-0.5-2.4,0.6-5.2,3-7.1c1.7-1.3,3.6-1.9,5.4-1.8c0.6-1.3,1.8-2.3,3.1-2.7l-1.9-34.7
		c-0.1-2.3-1.5-4.3-3.6-5.2l-15.6-6.8c-1.6-0.7-3.3-0.7-4.9,0l-42.8,19.2c-3.1,1.4-4.5,5.1-3,8.2l19.2,39.6c1.3,2.6,4.2,3.9,7,3.2
		l31.3-8.2C-68.7,56-67.7,54.7-66.3,54z"/>
	<linearGradient id="SVGID_6_" gradientUnits="userSpaceOnUse" x1="-113.7901" y1="57.9298" x2="-64.6785" y2="-1.4739">
		<stop  offset="0" style="stop-color:#1537CE"/>
		<stop  offset="1" style="stop-color:#8DDAFD"/>
	</linearGradient>
	<path class="st5" d="M-66.3,54c-0.5-2.4,0.6-5.2,3-7.1c1.7-1.3,3.6-1.9,5.4-1.8c0.6-1.3,1.8-2.3,3.1-2.7l-1.9-34.7
		c-0.1-2.3-1.5-4.3-3.6-5.2l-15.6-6.8c-1.6-0.7-3.3-0.7-4.9,0l-42.8,19.2c-3.1,1.4-4.5,5.1-3,8.2l19.2,39.6c1.3,2.6,4.2,3.9,7,3.2
		l31.3-8.2C-68.7,56-67.7,54.7-66.3,54z"/>
	<g>
		<linearGradient id="SVGID_7_" gradientUnits="userSpaceOnUse" x1="-107.9844" y1="30.5898" x2="-67.45" y2="30.5898">
			<stop  offset="0" style="stop-color:#A2BCDF"/>
			<stop  offset="5.167401e-02" style="stop-color:#AFC5E3"/>
			<stop  offset="0.1753" style="stop-color:#C9D7EC"/>
			<stop  offset="0.3128" style="stop-color:#DCE5F2"/>
			<stop  offset="0.4699" style="stop-color:#EAEFF7"/>
			<stop  offset="0.6633" style="stop-color:#F3F4F9"/>
			<stop  offset="1" style="stop-color:#F5F6FA"/>
		</linearGradient>
		<path class="st6" d="M-69.9,11.3c-5.5-2.4-12-2.8-18.4-1.1s-11.8,5.2-15.4,10c-0.4,0.6-0.8,1.1-1.2,1.7
			c-2.9,4.7-3.9,10.1-2.6,15.1c2.4,9.1,11.7,15,22.3,15c0.5,0,1,0,1.5,0c0.1,0,0.2,0,0.3,0c-7.9-1.6-13.7-8-13.7-15.7
			c0-3.8,1.4-7.2,3.8-10c0.7-1.2,1.6-2.4,2.9-3.4c1.6-1,3-1.7,4.9-2.2c1.7-0.4,3.3-0.6,5-0.6c1.3,0,2.6,0.2,3.8,0.4
			c0.9,0.2,1.7,0.5,2.5,0.8c0.5,0.2,0.9,0.5,1.4,0.7l0.2-0.4l5.1-8.9C-68.2,12.1-69,11.7-69.9,11.3z"/>
		<linearGradient id="SVGID_8_" gradientUnits="userSpaceOnUse" x1="-97.0655" y1="39.0816" x2="-65.87" y2="39.0816">
			<stop  offset="0" style="stop-color:#A2BCDF"/>
			<stop  offset="3.534353e-02" style="stop-color:#AAC2E2"/>
			<stop  offset="0.1758" style="stop-color:#C5D5EA"/>
			<stop  offset="0.3287" style="stop-color:#DAE3F1"/>
			<stop  offset="0.4984" style="stop-color:#E9EEF6"/>
			<stop  offset="0.6977" style="stop-color:#F2F4F9"/>
			<stop  offset="1" style="stop-color:#F5F6FA"/>
		</linearGradient>
		<path class="st7" d="M-65.9,44.9l-6.9-8.2c-2,1.7-4.6,3.1-7.5,3.9c-2.7,0.7-5.3,0.8-7.7,0.4c-1.5-0.5-2.8-1.3-3.7-2.2
			c-2.2-2.2-4.3-7.8-1.6-12.7c-2.4,2.7-3.8,6.2-3.8,10c0,7.7,5.9,14.2,13.7,15.7c1.9-0.1,3.9-0.4,5.8-0.9
			C-73,49.8-69,47.7-65.9,44.9z"/>
	</g>
	<linearGradient id="SVGID_9_" gradientUnits="userSpaceOnUse" x1="-121.5521" y1="22.1164" x2="-111.4891" y2="22.1164">
		<stop  offset="0" style="stop-color:#F5F6FA"/>
		<stop  offset="0.1159" style="stop-color:#E8EDF6"/>
		<stop  offset="0.4997" style="stop-color:#C2D2E9"/>
		<stop  offset="0.8079" style="stop-color:#ABC2E2"/>
		<stop  offset="1" style="stop-color:#A2BCDF"/>
	</linearGradient>
	<circle class="st8" cx="-116.5" cy="22.1" r="5"/>
	<linearGradient id="SVGID_10_" gradientUnits="userSpaceOnUse" x1="-122.223" y1="22.1164" x2="-110.8183" y2="22.1164">
		<stop  offset="0" style="stop-color:#A2BCDF"/>
		<stop  offset="1" style="stop-color:#F5F6FA"/>
	</linearGradient>
	<path class="st9" d="M-116.5,16.4c-3.1,0-5.7,2.6-5.7,5.7s2.6,5.7,5.7,5.7c3.1,0,5.7-2.6,5.7-5.7S-113.4,16.4-116.5,16.4z
		 M-116.5,27.1c-2.8,0-5-2.3-5-5s2.3-5,5-5s5,2.3,5,5S-113.7,27.1-116.5,27.1z"/>
	<linearGradient id="SVGID_11_" gradientUnits="userSpaceOnUse" x1="-77.2741" y1="47.7218" x2="-48.763" y2="47.7218">
		<stop  offset="0" style="stop-color:#FEAC11"/>
		<stop  offset="1" style="stop-color:#E74D08"/>
	</linearGradient>
	<path class="st10" d="M-53,43.5c-2,0-3.7,1.3-4.1,3.3c0,0,0,0.1,0,0.1l-4.3-0.3l-3.7-0.3l-12.1-0.9c-0.2,2.2,4.1,4,6.3,4.2l5.8,0.5
		l3.7,0.3l0.2,0l0.1,0c0.8-0.8,1.8-1.2,3-1.2c0.1,0,0.2,0,0.3,0c0.3,0,0.7,0.1,1,0.2c0,0.1,0.1,0.1,0.1,0.2c0.2,0.4,0.5,0.8,0.9,1.2
		l0.1,0.1c0,0,0.1,0.1,0.1,0.1l0.1,0.1l0,0C-54.9,51.7-54,52-53,52c2.3,0,4.3-1.9,4.3-4.3S-50.7,43.5-53,43.5z M-63.1,49.4
		c-0.5,0-1-0.4-1-1s0.4-1,1-1s1,0.4,1,1S-62.5,49.4-63.1,49.4z M-53,50.4c-0.6,0-1.2-0.2-1.7-0.6l-0.1-0.1l0,0c0,0-0.1-0.1-0.1-0.1
		l0,0c-0.2-0.2-0.4-0.5-0.5-0.7c-0.2-0.4-0.3-0.8-0.3-1.2c0-0.2,0-0.4,0.1-0.6c0.3-1.2,1.4-2.1,2.6-2.1c1.5,0,2.7,1.2,2.7,2.7
		S-51.5,50.4-53,50.4z"/>
	<linearGradient id="SVGID_12_" gradientUnits="userSpaceOnUse" x1="-64.048" y1="48.4198" x2="-62.0938" y2="48.4198">
		<stop  offset="0" style="stop-color:#005DAB"/>
		<stop  offset="0.7088" style="stop-color:#00347A"/>
		<stop  offset="1" style="stop-color:#002366"/>
	</linearGradient>
	<circle class="st11" cx="-63.1" cy="48.4" r="1"/>
	<g>
		<linearGradient id="SVGID_13_" gradientUnits="userSpaceOnUse" x1="-65.1648" y1="40.0172" x2="-61.5145" y2="40.0172">
			<stop  offset="0" style="stop-color:#FEAC11"/>
			<stop  offset="1" style="stop-color:#E74D08"/>
		</linearGradient>
		<path class="st12" d="M-61.5,46.6l-3.7-0.3V33.5c1.9,0,3.6,3.1,3.6,5.7c0,0.2,0,0.4,0,0.6L-61.5,46.6z"/>
		<linearGradient id="SVGID_14_" gradientUnits="userSpaceOnUse" x1="-68.0961" y1="56.6011" x2="-59.5812" y2="56.6011">
			<stop  offset="0" style="stop-color:#FEAC11"/>
			<stop  offset="1" style="stop-color:#E74D08"/>
		</linearGradient>
		<path class="st13" d="M-61.5,50.5l-3.7-0.3v4.6c-1.7,0.6-2.9,2.2-2.9,4c0,2.3,1.9,4.3,4.3,4.3c2.3,0,4.3-1.9,4.3-4.3
			c0-0.8-0.2-1.6-0.6-2.3l-0.2-0.4h0c-0.2-0.3-0.5-0.6-0.8-0.8c-0.3-0.2-0.6-0.4-1-0.5l-0.2-0.7c0-0.2,0-0.4,0-0.6
			c0-1.1,0.4-2.1,1.1-2.8c0.1-0.1,0.2-0.2,0.3-0.3l-0.1,0 M-63.8,61.5c-1.5,0-2.7-1.2-2.7-2.7s1.2-2.7,2.7-2.7
			c0.6,0,1.1,0.2,1.6,0.5c0.3,0.2,0.5,0.5,0.7,0.7l0,0.1c0.2,0.4,0.4,0.9,0.4,1.4C-61.1,60.3-62.3,61.5-63.8,61.5z"/>
	</g>
</g>
<linearGradient id="SVGID_15_" gradientUnits="userSpaceOnUse" x1="86.0287" y1="8.7082" x2="82.8719" y2="40.276">
	<stop  offset="0" style="stop-color:#005DAB"/>
	<stop  offset="0.7088" style="stop-color:#00347A"/>
	<stop  offset="1" style="stop-color:#002366"/>
</linearGradient>
<path class="st14" d="M85.5,37.5c-2.1,0-4.1-0.4-5.8-1.2c-1.7-0.8-3-2-4-3.6s-1.5-3.6-1.5-6c0-1.9,0.3-3.7,0.9-5.4
	c0.6-1.6,1.4-3.1,2.6-4.3c1.1-1.2,2.5-2.2,4.2-2.9c1.6-0.7,3.5-1.1,5.6-1.1c1.6,0,3.1,0.2,4.6,0.7c1.4,0.5,2.5,1.2,3.4,2l-2,4.2
	c-0.9-0.7-1.9-1.3-2.9-1.7c-1-0.4-2.1-0.6-3.2-0.6c-1.6,0-3,0.4-4.1,1.2s-2,1.8-2.5,3.2c-0.6,1.3-0.9,2.8-0.9,4.5
	c0,1.5,0.2,2.7,0.7,3.7c0.5,1,1.2,1.7,2.1,2.1c0.9,0.5,2.1,0.7,3.5,0.7c1,0,2-0.2,2.9-0.5c1-0.3,2-0.9,3.1-1.6l1.4,4.1
	c-0.6,0.6-1.4,1-2.3,1.4c-0.9,0.4-1.8,0.7-2.8,0.9C87.4,37.4,86.4,37.5,85.5,37.5z"/>
<linearGradient id="SVGID_16_" gradientUnits="userSpaceOnUse" x1="106.6273" y1="10.768" x2="103.4705" y2="42.3358">
	<stop  offset="0" style="stop-color:#005DAB"/>
	<stop  offset="0.7088" style="stop-color:#00347A"/>
	<stop  offset="1" style="stop-color:#002366"/>
</linearGradient>
<path class="st15" d="M104.2,36.5c-1.7,0-3.2-0.3-4.4-0.9c-1.2-0.6-2.2-1.5-2.8-2.7c-0.6-1.2-1-2.5-1-4c0-1.5,0.3-2.9,0.8-4.1
	c0.5-1.2,1.2-2.2,2.1-3.1c0.9-0.8,1.9-1.5,3.1-1.9c1.1-0.4,2.3-0.6,3.6-0.6c1.7,0,3.2,0.3,4.4,0.9c1.2,0.6,2.2,1.5,2.8,2.7
	c0.7,1.2,1,2.5,1,4c0,1.6-0.3,2.9-0.8,4.1c-0.5,1.2-1.2,2.2-2.1,3.1c-0.9,0.8-1.9,1.5-3,1.9C106.7,36.3,105.5,36.5,104.2,36.5z
	 M104.4,32.7c0.9,0,1.6-0.3,2.3-0.8c0.6-0.5,1.1-1.3,1.5-2.2c0.4-0.9,0.5-1.9,0.5-3.1c0-1.2-0.3-2.1-0.8-2.7
	c-0.6-0.6-1.3-0.9-2.3-0.9c-0.9,0-1.7,0.3-2.3,0.8c-0.6,0.5-1.1,1.2-1.5,2.1c-0.3,0.9-0.5,1.9-0.5,3.1c0,1.2,0.3,2.1,0.8,2.7
	C102.6,32.4,103.4,32.7,104.4,32.7z"/>
<linearGradient id="SVGID_17_" gradientUnits="userSpaceOnUse" x1="125.6047" y1="12.6658" x2="122.4479" y2="44.2336">
	<stop  offset="0" style="stop-color:#005DAB"/>
	<stop  offset="0.7088" style="stop-color:#00347A"/>
	<stop  offset="1" style="stop-color:#002366"/>
</linearGradient>
<path class="st16" d="M120.4,37.5c-1.2,0-2.2-0.2-3-0.7c-0.8-0.5-1.4-1.3-1.8-2.3c-0.3-1.1-0.4-2.4-0.2-4l1.6-9.9h5.1l-1.6,9.8
	c-0.1,0.7-0.1,1.3,0,1.7c0.1,0.5,0.3,0.8,0.7,1.1c0.3,0.2,0.8,0.4,1.4,0.4c0.7,0,1.3-0.2,1.9-0.5c0.6-0.3,1-0.8,1.4-1.4
	c0.4-0.6,0.6-1.3,0.7-2.2l1.4-8.8h5.1l-2.6,16.6h-5L126,34h0.3c-0.6,1.1-1.4,2-2.4,2.6C122.9,37.2,121.8,37.5,120.4,37.5z"/>
<linearGradient id="SVGID_18_" gradientUnits="userSpaceOnUse" x1="145.586" y1="14.6639" x2="142.4292" y2="46.2317">
	<stop  offset="0" style="stop-color:#005DAB"/>
	<stop  offset="0.7088" style="stop-color:#00347A"/>
	<stop  offset="1" style="stop-color:#002366"/>
</linearGradient>
<path class="st17" d="M133.5,43.3l3.6-22.7h5l-0.4,2.8h-0.2c0.4-0.7,0.9-1.2,1.5-1.7c0.6-0.5,1.2-0.9,2-1.1c0.7-0.2,1.5-0.4,2.3-0.4
	c1.2,0,2.3,0.3,3.3,0.9c0.9,0.6,1.7,1.4,2.2,2.5c0.5,1.1,0.8,2.3,0.8,3.8c0,1.9-0.3,3.7-1,5.2c-0.7,1.5-1.6,2.7-2.9,3.6
	c-1.3,0.9-2.7,1.3-4.5,1.3c-1.2,0-2.3-0.3-3.3-0.8c-0.9-0.6-1.6-1.4-2-2.5h0.3l-1.5,9.1H133.5z M144,33.7c0.9,0,1.7-0.3,2.3-0.8
	c0.6-0.5,1.1-1.3,1.5-2.2c0.3-0.9,0.5-1.9,0.5-3.1c0-1.2-0.3-2.1-0.8-2.7c-0.6-0.6-1.3-0.9-2.3-0.9c-0.9,0-1.6,0.3-2.3,0.8
	c-0.6,0.5-1.1,1.2-1.5,2.1c-0.3,0.9-0.5,1.9-0.5,3.1c0,1.2,0.3,2.1,0.8,2.7C142.3,33.4,143,33.7,144,33.7z"/>
<linearGradient id="SVGID_19_" gradientUnits="userSpaceOnUse" x1="165.7162" y1="16.6769" x2="162.5594" y2="48.2447">
	<stop  offset="0" style="stop-color:#005DAB"/>
	<stop  offset="0.7088" style="stop-color:#00347A"/>
	<stop  offset="1" style="stop-color:#002366"/>
</linearGradient>
<path class="st18" d="M163.8,37.5c-1.7,0-3.2-0.3-4.4-0.9c-1.2-0.6-2.2-1.5-2.8-2.7c-0.6-1.2-1-2.5-1-4c0-1.5,0.3-2.9,0.8-4.1
	c0.5-1.2,1.2-2.2,2.1-3.1c0.9-0.8,1.9-1.5,3.1-1.9c1.1-0.4,2.3-0.6,3.6-0.6c1.7,0,3.2,0.3,4.4,0.9c1.2,0.6,2.2,1.5,2.8,2.7
	c0.7,1.2,1,2.5,1,4c0,1.6-0.3,2.9-0.8,4.1c-0.5,1.2-1.2,2.2-2.1,3.1s-1.9,1.5-3,1.9S165.1,37.5,163.8,37.5z M163.9,33.7
	c0.9,0,1.6-0.3,2.3-0.8c0.6-0.5,1.1-1.3,1.5-2.2c0.3-0.9,0.5-1.9,0.5-3.1c0-1.2-0.3-2.1-0.8-2.7c-0.6-0.6-1.3-0.9-2.3-0.9
	c-0.9,0-1.7,0.3-2.3,0.8c-0.6,0.5-1.1,1.2-1.5,2.1c-0.3,0.9-0.5,1.9-0.5,3.1c0,1.2,0.3,2.1,0.8,2.7C162.2,33.4,163,33.7,163.9,33.7z
	"/>
<linearGradient id="SVGID_20_" gradientUnits="userSpaceOnUse" x1="185.4269" y1="18.648" x2="182.2702" y2="50.2158">
	<stop  offset="0" style="stop-color:#005DAB"/>
	<stop  offset="0.7088" style="stop-color:#00347A"/>
	<stop  offset="1" style="stop-color:#002366"/>
</linearGradient>
<path class="st19" d="M175.1,37.2l2.6-16.6h5l-0.5,3.1H182c0.6-1.1,1.4-2,2.4-2.6c1-0.6,2.2-0.9,3.6-0.9c1.2,0,2.2,0.2,3.1,0.7
	s1.4,1.3,1.8,2.3c0.3,1.1,0.4,2.4,0.2,4l-1.6,9.9h-5.1l1.6-9.8c0.1-0.7,0.1-1.3,0-1.8c-0.1-0.5-0.4-0.8-0.7-1.1
	c-0.3-0.2-0.8-0.4-1.4-0.4c-0.8,0-1.4,0.2-2,0.5c-0.6,0.3-1,0.8-1.4,1.4c-0.4,0.6-0.6,1.4-0.7,2.2l-1.4,8.9H175.1z"/>
<linearGradient id="SVGID_21_" gradientUnits="userSpaceOnUse" x1="201.1832" y1="37.8561" x2="206.0196" y2="15.5343">
	<stop  offset="0" style="stop-color:#FEAC11"/>
	<stop  offset="1" style="stop-color:#E74D08"/>
</linearGradient>
<path class="st20" d="M194.9,37.2l0.5-3.3l10.3-10.7l0.2,1.2h-9.1l0.6-3.8H211l-0.5,3.3L200,34.7l-0.2-1.4h9.6l-0.6,3.8H194.9z"/>
<linearGradient id="SVGID_22_" gradientUnits="userSpaceOnUse" x1="217.3636" y1="41.3619" x2="222.2" y2="19.0401">
	<stop  offset="0" style="stop-color:#FEAC11"/>
	<stop  offset="1" style="stop-color:#E74D08"/>
</linearGradient>
<path class="st21" d="M220.3,37.5c-1.7,0-3.3-0.3-4.5-0.9c-1.3-0.6-2.3-1.5-3-2.7c-0.7-1.2-1.1-2.5-1.1-4c0-1.9,0.4-3.6,1.2-5
	c0.8-1.4,1.9-2.6,3.4-3.4c1.4-0.8,3-1.3,4.8-1.3c1.9,0,3.3,0.4,4.5,1.2c1.1,0.8,1.9,1.9,2.3,3.2s0.5,2.8,0.3,4.4L228,30h-12.2
	l0.4-2.6h8.5l-0.5,0.5c0.1-0.8,0.1-1.5-0.1-2.2c-0.2-0.6-0.5-1.1-1-1.5c-0.5-0.4-1.2-0.6-2-0.6c-0.9,0-1.6,0.2-2.2,0.6
	c-0.6,0.4-1.1,0.9-1.4,1.5c-0.3,0.6-0.6,1.3-0.7,2l-0.2,1.2c-0.2,1-0.1,1.8,0.2,2.6c0.3,0.7,0.8,1.3,1.5,1.6
	c0.7,0.4,1.6,0.6,2.6,0.6c0.9,0,1.9-0.1,2.8-0.4c0.9-0.3,1.7-0.7,2.3-1.2l1.2,3.4c-0.8,0.7-1.8,1.2-3,1.5S221.6,37.5,220.3,37.5z"/>
<linearGradient id="SVGID_23_" gradientUnits="userSpaceOnUse" x1="233.3289" y1="44.821" x2="238.1653" y2="22.4992">
	<stop  offset="0" style="stop-color:#FEAC11"/>
	<stop  offset="1" style="stop-color:#E74D08"/>
</linearGradient>
<path class="st22" d="M229.9,37.2l2.6-16.6h5l-0.7,4h-0.3c0.4-1.3,1.1-2.3,2.1-3.1c1-0.8,2.3-1.2,3.7-1.3l1.6-0.1l-0.2,4.3l-3.3,0.3
	c-0.9,0.1-1.6,0.3-2.2,0.6c-0.6,0.3-1,0.8-1.3,1.4c-0.3,0.6-0.5,1.3-0.7,2.2l-1.3,8.3H229.9z"/>
<g>
	<polygon class="st23" points="83.3,46.7 82.6,46.7 78.8,51.9 75,46.7 74.2,46.7 78.4,52.4 78.4,57.8 79.1,57.8 79.1,52.4 	"/>
	<path class="st23" d="M88.1,50.6c-0.5-0.3-1.1-0.5-1.8-0.5s-1.3,0.2-1.8,0.5c-0.5,0.3-0.9,0.8-1.2,1.4C83.1,52.5,83,53.2,83,54
		s0.1,1.5,0.4,2.1c0.3,0.6,0.7,1,1.2,1.4c0.5,0.3,1.1,0.5,1.8,0.5s1.3-0.2,1.8-0.5c0.5-0.3,0.9-0.8,1.2-1.4c0.3-0.6,0.4-1.3,0.4-2.1
		s-0.1-1.5-0.4-2.1C89,51.3,88.7,50.9,88.1,50.6z M88.3,56.4c-0.5,0.6-1.1,0.9-2,0.9c-0.8,0-1.5-0.3-2-0.9c-0.5-0.6-0.7-1.4-0.7-2.4
		s0.2-1.9,0.7-2.4c0.5-0.6,1.2-0.9,2-0.9c0.8,0,1.5,0.3,2,0.9c0.5,0.6,0.7,1.4,0.7,2.4S88.8,55.9,88.3,56.4z"/>
	<path class="st23" d="M97.1,54.6c0,0.6-0.1,1-0.3,1.5c-0.2,0.4-0.5,0.7-0.9,1s-0.8,0.3-1.3,0.3c-0.5,0-0.8-0.1-1.1-0.3
		c-0.3-0.2-0.5-0.4-0.7-0.8c-0.1-0.4-0.2-0.8-0.2-1.3v-4.8h-0.7V55c0,0.6,0.1,1.2,0.3,1.6c0.2,0.4,0.5,0.8,0.9,1
		c0.4,0.2,0.9,0.3,1.5,0.3c0.6,0,1.2-0.2,1.7-0.5c0.4-0.3,0.7-0.6,0.9-1v1.4h0.6v-7.6h-0.7V54.6z"/>
	<path class="st23" d="M103.7,50c-0.7,0.1-1.3,0.2-1.8,0.5c-0.4,0.2-0.6,0.6-0.8,1v-1.4h-0.6v7.6h0.7v-4.6c0-0.7,0.2-1.3,0.7-1.8
		s1-0.7,1.8-0.8l0.5-0.1l-0.1-0.6L103.7,50z"/>
	<path class="st23" d="M112.7,53.9l-1.3-0.3c-0.5-0.1-0.8-0.3-1.1-0.5c-0.2-0.2-0.3-0.5-0.3-0.9c0-0.5,0.2-0.8,0.5-1.1
		s0.9-0.4,1.5-0.4c0.3,0,0.6,0,0.8,0.1c0.3,0.1,0.5,0.2,0.8,0.3c0.2,0.1,0.5,0.3,0.7,0.5l0.3-0.5c-0.2-0.2-0.4-0.4-0.7-0.6
		c-0.3-0.2-0.6-0.3-0.9-0.3c-0.3-0.1-0.6-0.1-1-0.1c-0.5,0-1,0.1-1.4,0.3c-0.4,0.2-0.7,0.4-1,0.8s-0.3,0.7-0.3,1.1
		c0,0.5,0.2,0.9,0.5,1.3c0.3,0.3,0.8,0.6,1.5,0.7l1.3,0.3c0.5,0.1,0.9,0.3,1.1,0.5c0.2,0.2,0.4,0.5,0.4,0.8c0,0.5-0.2,0.8-0.5,1.1
		c-0.4,0.3-0.9,0.4-1.6,0.4c-0.3,0-0.6,0-0.9-0.1c-0.3-0.1-0.6-0.2-0.9-0.3c-0.3-0.1-0.5-0.3-0.8-0.5l-0.3,0.5
		c0.2,0.2,0.5,0.4,0.8,0.5c0.3,0.2,0.6,0.3,1,0.3s0.7,0.1,1.1,0.1c0.6,0,1.1-0.1,1.5-0.3c0.4-0.2,0.8-0.4,1-0.7
		c0.2-0.3,0.4-0.7,0.4-1.1c0-0.5-0.2-0.9-0.5-1.2C113.9,54.3,113.3,54.1,112.7,53.9z"/>
	<path class="st23" d="M121.3,50.4c-0.4-0.2-0.9-0.3-1.4-0.3c-0.3,0-0.7,0-1,0.1c-0.3,0.1-0.7,0.2-1,0.3c-0.3,0.1-0.6,0.3-0.9,0.5
		l0.3,0.6c0.5-0.3,0.9-0.5,1.3-0.7c0.4-0.1,0.9-0.2,1.3-0.2c0.6,0,1.1,0.2,1.4,0.5c0.3,0.3,0.4,0.9,0.4,1.6v0.6h-0.5
		c-1.2,0-2.1,0.1-2.8,0.2c-0.7,0.1-1.2,0.4-1.4,0.7c-0.3,0.3-0.4,0.8-0.4,1.3c0,0.4,0.1,0.8,0.3,1.1s0.5,0.6,0.9,0.8
		s0.8,0.3,1.3,0.3c0.5,0,0.9-0.1,1.2-0.2c0.4-0.2,0.7-0.4,0.9-0.7c0.1-0.2,0.3-0.4,0.4-0.6v1.4h0.6v-4.9c0-0.6-0.1-1.2-0.3-1.6
		C121.9,50.9,121.6,50.6,121.3,50.4z M121.4,56c-0.2,0.4-0.5,0.7-0.9,1c-0.4,0.2-0.8,0.4-1.3,0.4c-0.6,0-1.1-0.2-1.4-0.5
		c-0.4-0.3-0.5-0.7-0.5-1.2c0-0.3,0.1-0.6,0.2-0.8c0.1-0.2,0.3-0.4,0.6-0.5c0.3-0.1,0.7-0.2,1.2-0.3c0.5,0,1.2-0.1,1.9-0.1h0.4v0.6
		C121.7,55.2,121.6,55.6,121.4,56z"/>
	<polygon class="st23" points="127.6,57.1 124.7,50.2 123.9,50.2 127.2,57.8 127.9,57.8 131.2,50.2 130.4,50.2 	"/>
	<rect x="132.8" y="50.2" class="st23" width="0.7" height="7.6"/>
	<rect x="132.7" y="47.1" class="st23" width="1" height="1"/>
	<path class="st23" d="M141,50.4c-0.4-0.2-0.9-0.3-1.5-0.3c-0.7,0-1.3,0.2-1.8,0.5c-0.4,0.3-0.7,0.6-0.9,1.1v-1.4h-0.6v7.6h0.7v-4.4
		c0-0.6,0.1-1,0.3-1.5c0.2-0.4,0.5-0.7,0.9-1s0.9-0.3,1.4-0.3c0.5,0,0.9,0.1,1.2,0.3s0.5,0.4,0.7,0.8c0.1,0.3,0.2,0.8,0.2,1.3v4.8
		h0.7V53c0-0.6-0.1-1.2-0.3-1.6C141.7,50.9,141.4,50.6,141,50.4z"/>
	<path class="st23" d="M150.5,51.7c-0.2-0.4-0.5-0.8-0.8-1.1c-0.5-0.4-1.1-0.6-1.9-0.6c-0.7,0-1.3,0.2-1.8,0.5
		c-0.5,0.3-0.9,0.8-1.2,1.3s-0.4,1.2-0.4,2c0,0.7,0.1,1.4,0.4,2s0.7,1,1.2,1.3c0.5,0.3,1.1,0.5,1.8,0.5c0.7,0,1.3-0.2,1.9-0.6
		c0.4-0.3,0.7-0.6,0.8-1.1v1.6c0,0.8-0.2,1.5-0.6,1.9c-0.4,0.4-1,0.7-1.8,0.7c-0.4,0-0.7,0-1.1-0.1c-0.3-0.1-0.6-0.2-0.9-0.3
		c-0.3-0.2-0.6-0.3-0.9-0.6l-0.3,0.5c0.4,0.4,0.9,0.6,1.5,0.8c0.5,0.2,1.1,0.3,1.8,0.3c0.7,0,1.2-0.1,1.7-0.4c0.5-0.2,0.8-0.6,1-1.1
		s0.3-1.1,0.3-1.8v-7.3h-0.7V51.7z M149.8,56.2c-0.5,0.6-1.2,0.9-2,0.9c-0.8,0-1.5-0.3-2-0.9s-0.7-1.3-0.7-2.3c0-1,0.2-1.7,0.7-2.3
		s1.2-0.9,2-0.9c0.8,0,1.5,0.3,2,0.9c0.5,0.6,0.7,1.3,0.7,2.3C150.5,54.8,150.3,55.6,149.8,56.2z"/>
	<path class="st23" d="M157,53.9l-1.3-0.3c-0.5-0.1-0.8-0.3-1.1-0.5c-0.2-0.2-0.3-0.5-0.3-0.9c0-0.5,0.2-0.8,0.5-1.1
		s0.9-0.4,1.5-0.4c0.3,0,0.6,0,0.8,0.1c0.3,0.1,0.5,0.2,0.8,0.3c0.2,0.1,0.5,0.3,0.7,0.5l0.3-0.5c-0.2-0.2-0.4-0.4-0.7-0.6
		c-0.3-0.2-0.6-0.3-0.9-0.3c-0.3-0.1-0.6-0.1-1-0.1c-0.5,0-1,0.1-1.4,0.3c-0.4,0.2-0.7,0.4-1,0.8s-0.3,0.7-0.3,1.1
		c0,0.5,0.2,0.9,0.5,1.3c0.3,0.3,0.8,0.6,1.5,0.7l1.3,0.3c0.5,0.1,0.9,0.3,1.1,0.5c0.2,0.2,0.4,0.5,0.4,0.8c0,0.5-0.2,0.8-0.5,1.1
		c-0.4,0.3-0.9,0.4-1.6,0.4c-0.3,0-0.6,0-0.9-0.1c-0.3-0.1-0.6-0.2-0.9-0.3c-0.3-0.1-0.5-0.3-0.8-0.5l-0.3,0.5
		c0.2,0.2,0.5,0.4,0.8,0.5c0.3,0.2,0.6,0.3,1,0.3c0.4,0.1,0.7,0.1,1.1,0.1c0.6,0,1.1-0.1,1.5-0.3c0.4-0.2,0.8-0.4,1-0.7
		c0.2-0.3,0.4-0.7,0.4-1.1c0-0.5-0.2-0.9-0.5-1.2C158.2,54.3,157.7,54.1,157,53.9z"/>
	<path class="st23" d="M170.7,51.7c-0.2-0.4-0.5-0.8-0.8-1.1c-0.5-0.4-1.1-0.6-1.9-0.6c-0.7,0-1.3,0.2-1.8,0.5
		c-0.5,0.3-0.9,0.8-1.2,1.4s-0.4,1.3-0.4,2.1c0,0.8,0.1,1.5,0.4,2.1s0.7,1,1.2,1.4c0.5,0.3,1.1,0.5,1.8,0.5c0.7,0,1.4-0.2,1.9-0.6
		c0.4-0.3,0.7-0.6,0.8-1v1.5h0.7V46.7h-0.7V51.7z M170,56.4c-0.5,0.6-1.1,0.9-2,0.9c-0.8,0-1.5-0.3-2-0.9c-0.5-0.6-0.7-1.4-0.7-2.4
		s0.2-1.9,0.7-2.4c0.5-0.6,1.2-0.9,2-0.9c0.8,0,1.5,0.3,2,0.9c0.5,0.6,0.7,1.4,0.7,2.4S170.5,55.9,170,56.4z"/>
	<path class="st23" d="M178.8,50.5c-0.5-0.3-1-0.4-1.7-0.4c-0.7,0-1.3,0.2-1.8,0.5c-0.5,0.3-0.9,0.8-1.2,1.4s-0.4,1.3-0.4,2.1
		c0,0.8,0.1,1.5,0.4,2.1c0.3,0.6,0.7,1,1.3,1.3c0.5,0.3,1.2,0.5,1.9,0.5c0.5,0,1.1-0.1,1.6-0.3c0.5-0.2,0.9-0.5,1.3-0.8l-0.3-0.5
		c-0.4,0.4-0.8,0.6-1.2,0.8s-0.9,0.2-1.3,0.2c-0.6,0-1.1-0.1-1.6-0.4c-0.4-0.3-0.8-0.6-1-1.1c-0.2-0.5-0.3-1-0.3-1.7h5.9v-0.4
		c0-0.8-0.1-1.4-0.4-2S179.2,50.8,178.8,50.5z M174.6,52.3c0.2-0.5,0.5-0.9,1-1.2c0.4-0.3,0.9-0.4,1.5-0.4c0.8,0,1.5,0.3,1.9,0.8
		c0.4,0.5,0.6,1.2,0.6,2.1h-5.3C174.3,53.1,174.4,52.7,174.6,52.3z"/>
	<path class="st23" d="M185.5,53.9l-1.3-0.3c-0.5-0.1-0.8-0.3-1.1-0.5c-0.2-0.2-0.3-0.5-0.3-0.9c0-0.5,0.2-0.8,0.5-1.1
		s0.9-0.4,1.5-0.4c0.3,0,0.6,0,0.8,0.1c0.3,0.1,0.5,0.2,0.8,0.3c0.2,0.1,0.5,0.3,0.7,0.5l0.3-0.5c-0.2-0.2-0.4-0.4-0.7-0.6
		c-0.3-0.2-0.6-0.3-0.9-0.3c-0.3-0.1-0.6-0.1-1-0.1c-0.5,0-1,0.1-1.4,0.3c-0.4,0.2-0.7,0.4-1,0.8s-0.3,0.7-0.3,1.1
		c0,0.5,0.2,0.9,0.5,1.3c0.3,0.3,0.8,0.6,1.5,0.7l1.3,0.3c0.5,0.1,0.9,0.3,1.1,0.5c0.2,0.2,0.4,0.5,0.4,0.8c0,0.5-0.2,0.8-0.5,1.1
		c-0.4,0.3-0.9,0.4-1.6,0.4c-0.3,0-0.6,0-0.9-0.1c-0.3-0.1-0.6-0.2-0.9-0.3c-0.3-0.1-0.5-0.3-0.8-0.5l-0.3,0.5
		c0.2,0.2,0.5,0.4,0.8,0.5c0.3,0.2,0.6,0.3,1,0.3c0.4,0.1,0.7,0.1,1.1,0.1c0.6,0,1.1-0.1,1.5-0.3c0.4-0.2,0.8-0.4,1-0.7
		c0.2-0.3,0.4-0.7,0.4-1.1c0-0.5-0.2-0.9-0.5-1.2C186.7,54.3,186.2,54.1,185.5,53.9z"/>
	<path class="st23" d="M192.9,57.2c-0.2,0-0.4,0.1-0.5,0.1c-0.6,0-1.1-0.2-1.4-0.5s-0.4-0.9-0.4-1.6v-4.4h2.5v-0.6h-2.5v-2.4H190
		v2.4h-1.5v0.6h1.5v4.6c0,0.8,0.2,1.5,0.6,1.9c0.4,0.5,1,0.7,1.8,0.7c0.2,0,0.4,0,0.7-0.1c0.2-0.1,0.4-0.1,0.5-0.2l-0.2-0.5
		C193.2,57.2,193.1,57.2,192.9,57.2z"/>
	<rect x="194.5" y="47.1" class="st23" width="1" height="1"/>
	<rect x="194.7" y="50.2" class="st23" width="0.7" height="7.6"/>
	<path class="st23" d="M202.9,50.4c-0.4-0.2-0.9-0.3-1.5-0.3c-0.7,0-1.3,0.2-1.8,0.5c-0.4,0.3-0.7,0.6-0.9,1.1v-1.4H198v7.6h0.7
		v-4.4c0-0.6,0.1-1,0.3-1.5c0.2-0.4,0.5-0.7,0.9-1s0.9-0.3,1.4-0.3c0.5,0,0.9,0.1,1.2,0.3s0.5,0.4,0.7,0.8c0.1,0.3,0.2,0.8,0.2,1.3
		v4.8h0.7V53c0-0.6-0.1-1.2-0.3-1.6C203.6,50.9,203.3,50.6,202.9,50.4z"/>
	<path class="st23" d="M211,50.4c-0.4-0.2-0.9-0.3-1.4-0.3c-0.3,0-0.7,0-1,0.1c-0.3,0.1-0.7,0.2-1,0.3s-0.6,0.3-0.9,0.5l0.3,0.6
		c0.5-0.3,0.9-0.5,1.3-0.7c0.4-0.1,0.9-0.2,1.3-0.2c0.6,0,1.1,0.2,1.4,0.5c0.3,0.3,0.4,0.9,0.4,1.6v0.6H211c-1.2,0-2.1,0.1-2.8,0.2
		c-0.7,0.1-1.2,0.4-1.4,0.7s-0.4,0.8-0.4,1.3c0,0.4,0.1,0.8,0.3,1.1s0.5,0.6,0.9,0.8c0.4,0.2,0.8,0.3,1.3,0.3c0.5,0,0.9-0.1,1.2-0.2
		c0.4-0.2,0.7-0.4,0.9-0.7c0.1-0.2,0.3-0.4,0.4-0.6v1.4h0.6v-4.9c0-0.6-0.1-1.2-0.3-1.6C211.7,50.9,211.4,50.6,211,50.4z M211.2,56
		c-0.2,0.4-0.5,0.7-0.9,1c-0.4,0.2-0.8,0.4-1.3,0.4c-0.6,0-1.1-0.2-1.4-0.5c-0.4-0.3-0.5-0.7-0.5-1.2c0-0.3,0.1-0.6,0.2-0.8
		c0.1-0.2,0.3-0.4,0.6-0.5c0.3-0.1,0.7-0.2,1.2-0.3c0.5,0,1.2-0.1,1.9-0.1h0.4v0.6C211.5,55.2,211.4,55.6,211.2,56z"/>
	<path class="st23" d="M218.1,57.2c-0.2,0-0.4,0.1-0.5,0.1c-0.6,0-1.1-0.2-1.4-0.5s-0.4-0.9-0.4-1.6v-4.4h2.5v-0.6h-2.5v-2.4h-0.7
		v2.4h-1.5v0.6h1.5v4.6c0,0.8,0.2,1.5,0.6,1.9c0.4,0.5,1,0.7,1.8,0.7c0.2,0,0.4,0,0.7-0.1c0.2-0.1,0.4-0.1,0.5-0.2l-0.2-0.5
		C218.4,57.2,218.2,57.2,218.1,57.2z"/>
	<rect x="219.8" y="50.2" class="st23" width="0.7" height="7.6"/>
	<rect x="219.6" y="47.1" class="st23" width="1" height="1"/>
	<path class="st23" d="M227.8,50.6c-0.5-0.3-1.1-0.5-1.8-0.5c-0.7,0-1.3,0.2-1.8,0.5c-0.5,0.3-0.9,0.8-1.2,1.4s-0.4,1.3-0.4,2.1
		s0.1,1.5,0.4,2.1s0.7,1,1.2,1.4c0.5,0.3,1.1,0.5,1.8,0.5c0.7,0,1.3-0.2,1.8-0.5c0.5-0.3,0.9-0.8,1.2-1.4s0.4-1.3,0.4-2.1
		s-0.1-1.5-0.4-2.1S228.3,50.9,227.8,50.6z M228,56.4c-0.5,0.6-1.1,0.9-2,0.9c-0.8,0-1.5-0.3-2-0.9c-0.5-0.6-0.7-1.4-0.7-2.4
		s0.2-1.9,0.7-2.4c0.5-0.6,1.2-0.9,2-0.9c0.8,0,1.5,0.3,2,0.9c0.5,0.6,0.7,1.4,0.7,2.4S228.5,55.9,228,56.4z"/>
	<path class="st23" d="M237.4,51.3c-0.2-0.4-0.5-0.7-0.9-1s-0.9-0.3-1.5-0.3c-0.7,0-1.3,0.2-1.8,0.5c-0.4,0.3-0.7,0.6-0.9,1.1v-1.4
		h-0.6v7.6h0.7v-4.4c0-0.6,0.1-1,0.3-1.5c0.2-0.4,0.5-0.7,0.9-1s0.9-0.3,1.4-0.3c0.5,0,0.9,0.1,1.2,0.3s0.5,0.4,0.7,0.8
		c0.1,0.3,0.2,0.8,0.2,1.3v4.8h0.7V53C237.7,52.3,237.6,51.8,237.4,51.3z"/>
</g>
<linearGradient id="SVGID_24_" gradientUnits="userSpaceOnUse" x1="16.3292" y1="59.6916" x2="58.9916" y2="8.0887">
	<stop  offset="0" style="stop-color:#8DDAFD"/>
	<stop  offset="0.3219" style="stop-color:#5BAEFE"/>
	<stop  offset="0.6171" style="stop-color:#358CFE"/>
	<stop  offset="0.853" style="stop-color:#1E77FF"/>
	<stop  offset="1" style="stop-color:#156FFF"/>
</linearGradient>
<path class="st24" d="M54.6,57.8l-25.3,6.7c-2.3,0.6-4.6-0.5-5.6-2.6l-15.6-32c-1.2-2.5-0.1-5.5,2.4-6.6L45.2,7.8
	c1.3-0.6,2.7-0.6,4,0l12.6,5.5c1.7,0.7,2.8,2.4,2.9,4.2l1.5,28c0.4-0.1,0.9-0.2,1.4-0.2c0.1,0,0.2,0,0.3,0l-1.6-29.2
	c-0.1-1.8-1.2-3.5-2.9-4.2L49.5,5.9c-1.3-0.6-2.7-0.5-4,0L7.9,22.7c-2.5,1.1-3.6,4.1-2.4,6.6l17,34.9c1,2.1,3.4,3.2,5.6,2.6l26.5-7
	c-0.1-0.3-0.1-0.7-0.1-1C54.5,58.5,54.5,58.2,54.6,57.8z"/>
<linearGradient id="SVGID_25_" gradientUnits="userSpaceOnUse" x1="16.788" y1="60.0709" x2="59.4504" y2="8.468">
	<stop  offset="0" style="stop-color:#8DDAFD"/>
	<stop  offset="0.185" style="stop-color:#70B2F1"/>
	<stop  offset="0.4571" style="stop-color:#497DE2"/>
	<stop  offset="0.6935" style="stop-color:#2D57D7"/>
	<stop  offset="0.8824" style="stop-color:#1B40D0"/>
	<stop  offset="1" style="stop-color:#1537CE"/>
</linearGradient>
<path class="st25" d="M56.9,55c-0.4-1.9,0.5-4.2,2.4-5.7c1.4-1.1,3-1.6,4.4-1.5c0.5-1,1.4-1.8,2.5-2.2l-1.5-28
	c-0.1-1.8-1.2-3.5-2.9-4.2L49.1,7.8c-1.3-0.6-2.7-0.5-4,0L10.5,23.3c-2.5,1.1-3.6,4.1-2.4,6.6l15.6,32c1,2.1,3.4,3.2,5.6,2.6
	l25.3-6.7C54.9,56.6,55.7,55.5,56.9,55z"/>
<linearGradient id="SVGID_26_" gradientUnits="userSpaceOnUse" x1="18.3939" y1="58.1286" x2="58.1329" y2="10.0616">
	<stop  offset="0" style="stop-color:#1537CE"/>
	<stop  offset="1" style="stop-color:#8DDAFD"/>
</linearGradient>
<path class="st26" d="M56.9,55c-0.4-1.9,0.5-4.2,2.4-5.7c1.4-1.1,3-1.6,4.4-1.5c0.5-1,1.4-1.8,2.5-2.2l-1.5-28
	c-0.1-1.8-1.2-3.5-2.9-4.2L49.1,7.8c-1.3-0.6-2.7-0.5-4,0L10.5,23.3c-2.5,1.1-3.6,4.1-2.4,6.6l15.6,32c1,2.1,3.4,3.2,5.6,2.6
	l25.3-6.7C54.9,56.6,55.7,55.5,56.9,55z"/>
<g>
	<linearGradient id="SVGID_27_" gradientUnits="userSpaceOnUse" x1="23.0916" y1="36.0062" x2="55.8903" y2="36.0062">
		<stop  offset="0" style="stop-color:#A2BCDF"/>
		<stop  offset="5.167401e-02" style="stop-color:#AFC5E3"/>
		<stop  offset="0.1753" style="stop-color:#C9D7EC"/>
		<stop  offset="0.3128" style="stop-color:#DCE5F2"/>
		<stop  offset="0.4699" style="stop-color:#EAEFF7"/>
		<stop  offset="0.6633" style="stop-color:#F3F4F9"/>
		<stop  offset="1" style="stop-color:#F5F6FA"/>
	</linearGradient>
	<path class="st27" d="M53.9,20.4c-4.5-1.9-9.7-2.3-14.9-0.9c-5.1,1.3-9.6,4.2-12.5,8.1c-0.3,0.5-0.7,0.9-0.9,1.4
		c-2.4,3.8-3.1,8.2-2.1,12.2c1.9,7.4,9.4,12.1,18,12.1c0.4,0,0.8,0,1.2,0c0.1,0,0.2,0,0.3,0c-6.4-1.3-11.1-6.5-11.1-12.7
		c0-3.1,1.1-5.9,3-8.1c0.5-1,1.3-1.9,2.4-2.8c1.3-0.8,2.4-1.4,3.9-1.8c1.3-0.4,2.7-0.5,4-0.5c1.1,0,2.1,0.1,3.1,0.4
		c0.7,0.2,1.4,0.4,2.1,0.7c0.4,0.2,0.8,0.4,1.1,0.6l0.2-0.3l4.1-7.2C55.3,21,54.6,20.7,53.9,20.4z"/>
	<linearGradient id="SVGID_28_" gradientUnits="userSpaceOnUse" x1="31.9267" y1="42.8774" x2="57.1688" y2="42.8774">
		<stop  offset="0" style="stop-color:#A2BCDF"/>
		<stop  offset="3.534353e-02" style="stop-color:#AAC2E2"/>
		<stop  offset="0.1758" style="stop-color:#C5D5EA"/>
		<stop  offset="0.3287" style="stop-color:#DAE3F1"/>
		<stop  offset="0.4984" style="stop-color:#E9EEF6"/>
		<stop  offset="0.6977" style="stop-color:#F2F4F9"/>
		<stop  offset="1" style="stop-color:#F5F6FA"/>
	</linearGradient>
	<path class="st28" d="M57.2,47.6L51.6,41c-1.6,1.4-3.7,2.5-6.1,3.1c-2.2,0.6-4.3,0.6-6.3,0.3c-1.3-0.4-2.3-1-3-1.7
		c-1.7-1.7-3.5-6.3-1.3-10.2c-1.9,2.2-3,5-3,8.1c0,6.2,4.8,11.5,11.1,12.7c1.6-0.1,3.1-0.3,4.7-0.7C51.4,51.6,54.6,49.8,57.2,47.6z"
		/>
</g>
<linearGradient id="SVGID_29_" gradientUnits="userSpaceOnUse" x1="12.1131" y1="29.1499" x2="20.2557" y2="29.1499">
	<stop  offset="0" style="stop-color:#F5F6FA"/>
	<stop  offset="0.1159" style="stop-color:#E8EDF6"/>
	<stop  offset="0.4997" style="stop-color:#C2D2E9"/>
	<stop  offset="0.8079" style="stop-color:#ABC2E2"/>
	<stop  offset="1" style="stop-color:#A2BCDF"/>
</linearGradient>
<circle class="st29" cx="16.2" cy="29.1" r="4.1"/>
<linearGradient id="SVGID_30_" gradientUnits="userSpaceOnUse" x1="11.5703" y1="29.1499" x2="20.7985" y2="29.1499">
	<stop  offset="0" style="stop-color:#A2BCDF"/>
	<stop  offset="1" style="stop-color:#F5F6FA"/>
</linearGradient>
<path class="st30" d="M16.2,24.5c-2.5,0-4.6,2.1-4.6,4.6s2.1,4.6,4.6,4.6c2.5,0,4.6-2.1,4.6-4.6S18.7,24.5,16.2,24.5z M16.2,33.2
	c-2.2,0-4.1-1.8-4.1-4.1s1.8-4.1,4.1-4.1s4.1,1.8,4.1,4.1S18.4,33.2,16.2,33.2z"/>
<linearGradient id="SVGID_31_" gradientUnits="userSpaceOnUse" x1="47.9411" y1="49.8687" x2="71.011" y2="49.8687">
	<stop  offset="0" style="stop-color:#FEAC11"/>
	<stop  offset="1" style="stop-color:#E74D08"/>
</linearGradient>
<path class="st31" d="M67.6,46.4c-1.6,0-3,1.1-3.4,2.6c0,0,0,0.1,0,0.1l-3.5-0.2l-3-0.2L47.9,48c-0.1,1.8,3.3,3.2,5.1,3.4l4.7,0.4
	l3,0.3l0.1,0l0.1,0c0.6-0.6,1.5-1,2.4-1c0.1,0,0.2,0,0.2,0c0.3,0,0.5,0.1,0.8,0.1c0,0.1,0,0.1,0.1,0.2c0.2,0.4,0.4,0.7,0.7,0.9l0,0
	c0,0,0.1,0.1,0.1,0.1l0.1,0.1l0,0c0.6,0.5,1.4,0.7,2.1,0.7c1.9,0,3.4-1.5,3.4-3.4S69.5,46.4,67.6,46.4z M59.4,51.2
	c-0.4,0-0.8-0.4-0.8-0.8c0-0.4,0.4-0.8,0.8-0.8s0.8,0.4,0.8,0.8C60.2,50.9,59.9,51.2,59.4,51.2z M67.6,52.1c-0.5,0-1-0.2-1.4-0.5
	l-0.1,0l0,0c0,0,0,0-0.1-0.1l0,0c-0.2-0.2-0.3-0.4-0.4-0.6c-0.2-0.3-0.2-0.6-0.2-1c0-0.2,0-0.3,0.1-0.5c0.2-1,1.1-1.7,2.1-1.7
	c1.2,0,2.2,1,2.2,2.2S68.8,52.1,67.6,52.1z"/>
<linearGradient id="SVGID_32_" gradientUnits="userSpaceOnUse" x1="58.643" y1="50.4335" x2="60.2243" y2="50.4335">
	<stop  offset="0" style="stop-color:#005DAB"/>
	<stop  offset="0.7088" style="stop-color:#00347A"/>
	<stop  offset="1" style="stop-color:#002366"/>
</linearGradient>
<circle class="st32" cx="59.4" cy="50.4" r="0.8"/>
<g>
	<linearGradient id="SVGID_33_" gradientUnits="userSpaceOnUse" x1="57.7394" y1="43.6345" x2="60.6931" y2="43.6345">
		<stop  offset="0" style="stop-color:#FEAC11"/>
		<stop  offset="1" style="stop-color:#E74D08"/>
	</linearGradient>
	<path class="st33" d="M60.7,48.9l-3-0.2V38.3c1.6,0,2.9,2.5,2.9,4.7c0,0.2,0,0.3,0,0.5L60.7,48.9z"/>
	<linearGradient id="SVGID_34_" gradientUnits="userSpaceOnUse" x1="55.3675" y1="57.0535" x2="62.2574" y2="57.0535">
		<stop  offset="0" style="stop-color:#FEAC11"/>
		<stop  offset="1" style="stop-color:#E74D08"/>
	</linearGradient>
	<path class="st34" d="M60.7,52.1l-3-0.3v3.8c-1.4,0.5-2.4,1.7-2.4,3.3c0,1.9,1.5,3.4,3.4,3.4c1.9,0,3.4-1.5,3.4-3.4
		c0-0.6-0.2-1.3-0.5-1.8l-0.2-0.3h0c-0.2-0.2-0.4-0.5-0.7-0.7c-0.2-0.2-0.5-0.3-0.8-0.4l-0.1-0.5c0-0.2,0-0.3,0-0.5
		c0-0.9,0.3-1.7,0.9-2.3c0.1-0.1,0.1-0.1,0.2-0.2l-0.1,0 M58.8,61.1c-1.2,0-2.2-1-2.2-2.2c0-1.2,1-2.2,2.2-2.2
		c0.5,0,0.9,0.1,1.3,0.4c0.2,0.2,0.4,0.4,0.6,0.6l0,0.1c0.2,0.3,0.3,0.7,0.3,1.1C61,60.1,60,61.1,58.8,61.1z"/>
</g>
</svg>
