<?xml version="1.0" encoding="utf-8"?>
<!-- Generator: Adobe Illustrator 24.3.0, SVG Export Plug-In . SVG Version: 6.00 Build 0)  -->
<svg version="1.1" id="Layer_1" xmlns="http://www.w3.org/2000/svg" xmlns:xlink="http://www.w3.org/1999/xlink" x="0px" y="0px"
	 viewBox="0 0 250 63" style="enable-background:new 0 0 250 63;" xml:space="preserve">
<style type="text/css">
	.st0{fill:url(#SVGID_1_);}
	.st1{fill:url(#SVGID_2_);}
	.st2{fill:url(#SVGID_3_);}
	.st3{fill:url(#SVGID_4_);}
	.st4{fill:url(#SVGID_5_);}
	.st5{fill:url(#SVGID_6_);}
	.st6{fill:url(#SVGID_7_);}
	.st7{fill:url(#SVGID_8_);}
	.st8{fill:url(#SVGID_9_);}
	.st9{fill:url(#SVGID_10_);}
	.st10{fill:url(#SVGID_11_);}
	.st11{fill:url(#SVGID_12_);}
	.st12{fill:url(#SVGID_13_);}
	.st13{fill:url(#SVGID_14_);}
	.st14{fill:url(#SVGID_15_);}
	.st15{fill:url(#SVGID_16_);}
	.st16{fill:url(#SVGID_17_);}
	.st17{fill:url(#SVGID_18_);}
	.st18{fill:url(#SVGID_19_);}
	.st19{fill:url(#SVGID_20_);}
	.st20{fill:url(#SVGID_21_);}
	.st21{fill:url(#SVGID_22_);}
	.st22{fill:url(#SVGID_23_);}
	.st23{fill:url(#SVGID_24_);}
	.st24{fill:url(#SVGID_25_);}
	.st25{fill:url(#SVGID_26_);}
	.st26{fill:url(#SVGID_27_);}
	.st27{fill:url(#SVGID_28_);}
	.st28{fill:url(#SVGID_29_);}
	.st29{fill:url(#SVGID_30_);}
	.st30{fill:url(#SVGID_31_);}
	.st31{fill:url(#SVGID_32_);}
	.st32{fill:url(#SVGID_33_);}
	.st33{fill:url(#SVGID_34_);}
	.st34{fill:url(#SVGID_35_);stroke:url(#SVGID_36_);stroke-linecap:round;stroke-miterlimit:15;}
	.st35{fill:#FFFFFF;}
	.st36{fill:url(#SVGID_37_);}
	.st37{fill:url(#SVGID_38_);}
	.st38{fill:url(#SVGID_39_);}
	.st39{fill:url(#SVGID_40_);}
</style>
<linearGradient id="SVGID_1_" gradientUnits="userSpaceOnUse" x1="70.4007" y1="35.5634" x2="75.2255" y2="4.2021">
	<stop  offset="0" style="stop-color:#005DAB"/>
	<stop  offset="0.7088" style="stop-color:#00347A"/>
	<stop  offset="1" style="stop-color:#002366"/>
</linearGradient>
<path class="st0" d="M73.6,33.8c-2.3,0-4.4-0.4-6.2-1.3c-1.8-0.9-3.3-2.2-4.3-3.9c-1.1-1.8-1.6-3.9-1.6-6.5c0-2.1,0.3-4,0.9-5.8
	c0.6-1.8,1.5-3.3,2.8-4.7c1.2-1.3,2.7-2.4,4.5-3.2c1.8-0.8,3.8-1.1,6.1-1.1c1.8,0,3.4,0.3,4.9,0.8c1.5,0.5,2.8,1.2,3.7,2.1l-2.2,4.5
	c-1-0.8-2-1.4-3.1-1.8c-1.1-0.4-2.2-0.6-3.4-0.6c-1.8,0-3.2,0.4-4.5,1.3s-2.1,2-2.7,3.4c-0.6,1.4-0.9,3.1-0.9,4.9
	c0,1.6,0.3,2.9,0.8,4c0.5,1,1.3,1.8,2.3,2.3c1,0.5,2.3,0.7,3.8,0.7c1.1,0,2.1-0.2,3.2-0.5c1.1-0.4,2.2-0.9,3.3-1.7l1.5,4.5
	c-0.7,0.6-1.5,1.1-2.5,1.5c-1,0.4-2,0.7-3,0.9C75.7,33.7,74.7,33.8,73.6,33.8z"/>
<linearGradient id="SVGID_2_" gradientUnits="userSpaceOnUse" x1="112.3909" y1="42.0234" x2="117.2157" y2="10.6621">
	<stop  offset="0" style="stop-color:#005DAB"/>
	<stop  offset="0.7088" style="stop-color:#00347A"/>
	<stop  offset="1" style="stop-color:#002366"/>
</linearGradient>
<path class="st1" d="M111.5,33.8c-1.3,0-2.4-0.3-3.3-0.8c-0.9-0.5-1.5-1.4-1.9-2.5c-0.4-1.1-0.4-2.6-0.2-4.4l1.7-10.7h5.5l-1.7,10.6
	c-0.1,0.7-0.1,1.4,0,1.9c0.1,0.5,0.4,0.9,0.7,1.2c0.4,0.3,0.9,0.4,1.5,0.4c0.8,0,1.4-0.2,2-0.5c0.6-0.4,1.1-0.9,1.5-1.5
	c0.4-0.7,0.7-1.5,0.8-2.4l1.5-9.6h5.5l-2.8,18H117l0.5-3.4h0.3c-0.6,1.2-1.5,2.2-2.6,2.8C114.1,33.5,112.9,33.8,111.5,33.8z"/>
<linearGradient id="SVGID_3_" gradientUnits="userSpaceOnUse" x1="134.3027" y1="45.3945" x2="139.1275" y2="14.0332">
	<stop  offset="0" style="stop-color:#005DAB"/>
	<stop  offset="0.7088" style="stop-color:#00347A"/>
	<stop  offset="1" style="stop-color:#002366"/>
</linearGradient>
<path class="st2" d="M125.6,40l3.9-24.5h5.4l-0.5,3.1h-0.3c0.4-0.7,1-1.3,1.6-1.9c0.6-0.5,1.3-0.9,2.1-1.2c0.8-0.3,1.6-0.4,2.5-0.4
	c1.3,0,2.5,0.3,3.5,1c1,0.6,1.8,1.5,2.3,2.7c0.5,1.2,0.8,2.5,0.8,4.1c0,2.1-0.4,3.9-1.1,5.6c-0.7,1.7-1.8,3-3.1,3.9
	c-1.4,1-3,1.4-4.8,1.4c-1.3,0-2.5-0.3-3.6-0.9c-1-0.6-1.7-1.5-2.2-2.7h0.4l-1.6,9.9H125.6z M136.9,29.7c1,0,1.8-0.3,2.5-0.9
	c0.7-0.6,1.2-1.4,1.6-2.3c0.4-1,0.5-2.1,0.5-3.3c0-1.3-0.3-2.3-0.9-2.9c-0.6-0.7-1.4-1-2.5-1c-1,0-1.8,0.3-2.5,0.8
	c-0.7,0.6-1.2,1.3-1.6,2.3c-0.4,1-0.5,2.1-0.5,3.4c0,1.3,0.3,2.2,0.9,2.9C135,29.4,135.9,29.7,136.9,29.7z"/>
<linearGradient id="SVGID_4_" gradientUnits="userSpaceOnUse" x1="155.3465" y1="48.632" x2="160.1713" y2="17.2707">
	<stop  offset="0" style="stop-color:#005DAB"/>
	<stop  offset="0.7088" style="stop-color:#00347A"/>
	<stop  offset="1" style="stop-color:#002366"/>
</linearGradient>
<path class="st3" d="M158.3,33.8c-1.9,0-3.4-0.3-4.8-1c-1.3-0.7-2.3-1.6-3-2.9c-0.7-1.2-1-2.7-1-4.4c0-1.7,0.3-3.1,0.8-4.5
	c0.5-1.3,1.3-2.4,2.3-3.3c1-0.9,2.1-1.6,3.3-2c1.2-0.5,2.5-0.7,3.9-0.7c1.9,0,3.4,0.3,4.8,1c1.3,0.7,2.3,1.6,3,2.9
	c0.7,1.2,1.1,2.7,1.1,4.4c0,1.7-0.3,3.2-0.8,4.5c-0.6,1.3-1.3,2.4-2.3,3.3c-1,0.9-2.1,1.6-3.3,2C161,33.6,159.7,33.8,158.3,33.8z
	 M158.5,29.7c1,0,1.8-0.3,2.5-0.9c0.7-0.6,1.2-1.4,1.6-2.3c0.4-1,0.6-2.1,0.6-3.3c0-1.3-0.3-2.3-0.9-2.9c-0.6-0.7-1.4-1-2.5-1
	c-1,0-1.8,0.3-2.5,0.8c-0.7,0.6-1.2,1.3-1.6,2.3c-0.4,1-0.5,2.1-0.5,3.4c0,1.3,0.3,2.2,0.9,2.9C156.6,29.4,157.4,29.7,158.5,29.7z"
	/>
<linearGradient id="SVGID_5_" gradientUnits="userSpaceOnUse" x1="90.3465" y1="48.632" x2="95.1713" y2="17.2707">
	<stop  offset="0" style="stop-color:#005DAB"/>
	<stop  offset="0.7088" style="stop-color:#00347A"/>
	<stop  offset="1" style="stop-color:#002366"/>
</linearGradient>
<path class="st4" d="M93.3,33.8c-1.9,0-3.4-0.3-4.8-1c-1.3-0.7-2.3-1.6-3-2.9c-0.7-1.2-1-2.7-1-4.4c0-1.7,0.3-3.1,0.8-4.5
	c0.5-1.3,1.3-2.4,2.3-3.3c1-0.9,2.1-1.6,3.3-2c1.2-0.5,2.5-0.7,3.9-0.7c1.9,0,3.4,0.3,4.8,1c1.3,0.7,2.3,1.6,3,2.9
	c0.7,1.2,1.1,2.7,1.1,4.4c0,1.7-0.3,3.2-0.8,4.5c-0.6,1.3-1.3,2.4-2.3,3.3c-1,0.9-2.1,1.6-3.3,2C96,33.6,94.7,33.8,93.3,33.8z
	 M93.5,29.7c1,0,1.8-0.3,2.5-0.9c0.7-0.6,1.2-1.4,1.6-2.3c0.4-1,0.6-2.1,0.6-3.3c0-1.3-0.3-2.3-0.9-2.9c-0.6-0.7-1.4-1-2.5-1
	c-1,0-1.8,0.3-2.5,0.8c-0.7,0.6-1.2,1.3-1.6,2.3c-0.4,1-0.5,2.1-0.5,3.4c0,1.3,0.3,2.2,0.9,2.9C91.6,29.4,92.4,29.7,93.5,29.7z"/>
<linearGradient id="SVGID_6_" gradientUnits="userSpaceOnUse" x1="176.5454" y1="51.8933" x2="181.3702" y2="20.5321">
	<stop  offset="0" style="stop-color:#005DAB"/>
	<stop  offset="0.7088" style="stop-color:#00347A"/>
	<stop  offset="1" style="stop-color:#002366"/>
</linearGradient>
<path class="st5" d="M170.6,33.5l2.8-18h5.4l-0.5,3.4H178c0.6-1.2,1.5-2.2,2.6-2.8c1.1-0.6,2.4-1,3.9-1c1.3,0,2.4,0.3,3.3,0.8
	c0.9,0.5,1.5,1.4,1.9,2.5c0.4,1.1,0.4,2.6,0.2,4.3l-1.7,10.7h-5.5l1.7-10.6c0.1-0.8,0.1-1.4,0-1.9c-0.1-0.5-0.4-0.9-0.8-1.1
	c-0.4-0.3-0.9-0.4-1.5-0.4c-0.8,0-1.6,0.2-2.2,0.5c-0.6,0.4-1.1,0.9-1.5,1.5c-0.4,0.7-0.6,1.5-0.8,2.4l-1.5,9.6H170.6z"/>
<linearGradient id="SVGID_7_" gradientUnits="userSpaceOnUse" x1="198.7143" y1="34.1684" x2="203.9412" y2="10.0443">
	<stop  offset="0" style="stop-color:#FEAC11"/>
	<stop  offset="1" style="stop-color:#E74D08"/>
</linearGradient>
<path class="st6" d="M191.9,33.5l0.6-3.6l11.2-11.6l0.2,1.3H194l0.7-4.1h14.7l-0.5,3.5l-11.4,11.8l-0.2-1.5h10.3l-0.6,4.1H191.9z"/>
<linearGradient id="SVGID_8_" gradientUnits="userSpaceOnUse" x1="216.2011" y1="37.9572" x2="221.428" y2="13.8331">
	<stop  offset="0" style="stop-color:#FEAC11"/>
	<stop  offset="1" style="stop-color:#E74D08"/>
</linearGradient>
<path class="st7" d="M219.4,33.8c-1.9,0-3.5-0.3-4.9-1c-1.4-0.7-2.5-1.6-3.2-2.9c-0.8-1.2-1.2-2.7-1.2-4.3c0-2.1,0.4-3.9,1.3-5.4
	c0.9-1.6,2.1-2.8,3.6-3.7c1.5-0.9,3.3-1.4,5.2-1.4c2,0,3.6,0.4,4.8,1.3c1.2,0.9,2,2,2.5,3.5c0.5,1.5,0.6,3.1,0.3,4.8l-0.1,1h-13.2
	l0.4-2.9h9.2l-0.6,0.5c0.1-0.9,0.1-1.7-0.1-2.3c-0.2-0.7-0.6-1.2-1.1-1.6c-0.5-0.4-1.3-0.6-2.2-0.6c-0.9,0-1.7,0.2-2.3,0.6
	c-0.6,0.4-1.1,1-1.5,1.6c-0.4,0.7-0.6,1.4-0.7,2.2l-0.2,1.3c-0.2,1.1-0.1,2,0.2,2.8c0.3,0.8,0.8,1.4,1.6,1.8
	c0.8,0.4,1.7,0.6,2.8,0.6c1,0,2-0.1,3-0.4c1-0.3,1.8-0.7,2.5-1.3l1.3,3.6c-0.9,0.7-2,1.3-3.3,1.7S220.8,33.8,219.4,33.8z"/>
<linearGradient id="SVGID_9_" gradientUnits="userSpaceOnUse" x1="233.4554" y1="41.6956" x2="238.6823" y2="17.5715">
	<stop  offset="0" style="stop-color:#FEAC11"/>
	<stop  offset="1" style="stop-color:#E74D08"/>
</linearGradient>
<path class="st8" d="M229.8,33.5l2.8-18h5.4l-0.7,4.4h-0.3c0.4-1.4,1.2-2.5,2.3-3.3c1.1-0.8,2.4-1.3,4-1.4L245,15l-0.2,4.7l-3.5,0.3
	c-1,0.1-1.8,0.3-2.4,0.6c-0.6,0.4-1.1,0.8-1.4,1.5c-0.3,0.6-0.5,1.4-0.7,2.3l-1.4,9H229.8z"/>
<g>
	<linearGradient id="SVGID_10_" gradientUnits="userSpaceOnUse" x1="66.6598" y1="59.3482" x2="66.4574" y2="44.7731">
		<stop  offset="0" style="stop-color:#005DAB"/>
		<stop  offset="0.7088" style="stop-color:#00347A"/>
		<stop  offset="1" style="stop-color:#002366"/>
	</linearGradient>
	<polygon class="st9" points="71.3,41.8 70.5,41.8 66.4,47.3 62.3,41.8 61.5,41.8 66.1,47.9 66.1,53.7 66.8,53.7 66.8,47.9 	"/>
	<linearGradient id="SVGID_11_" gradientUnits="userSpaceOnUse" x1="74.7414" y1="59.2359" x2="74.539" y2="44.6608">
		<stop  offset="0" style="stop-color:#005DAB"/>
		<stop  offset="0.7088" style="stop-color:#00347A"/>
		<stop  offset="1" style="stop-color:#002366"/>
	</linearGradient>
	<path class="st10" d="M76.6,45.9c-0.5-0.4-1.2-0.5-1.9-0.5s-1.4,0.2-1.9,0.5c-0.5,0.4-1,0.8-1.3,1.5c-0.3,0.6-0.5,1.4-0.5,2.2
		c0,0.9,0.1,1.6,0.5,2.2c0.3,0.6,0.7,1.1,1.3,1.5c0.5,0.4,1.2,0.5,1.9,0.5s1.4-0.2,1.9-0.5c0.5-0.4,1-0.8,1.3-1.5
		c0.3-0.6,0.5-1.4,0.5-2.2c0-0.9-0.2-1.6-0.5-2.2C77.5,46.7,77.1,46.2,76.6,45.9z M76.8,52.3c-0.5,0.6-1.2,0.9-2.1,0.9
		c-0.9,0-1.6-0.3-2.1-0.9c-0.5-0.6-0.8-1.5-0.8-2.6s0.3-2,0.8-2.6c0.5-0.6,1.2-0.9,2.1-0.9c0.9,0,1.6,0.3,2.1,0.9
		c0.5,0.6,0.8,1.5,0.8,2.6S77.3,51.6,76.8,52.3z"/>
	<linearGradient id="SVGID_12_" gradientUnits="userSpaceOnUse" x1="83.9365" y1="59.1082" x2="83.734" y2="44.5331">
		<stop  offset="0" style="stop-color:#005DAB"/>
		<stop  offset="0.7088" style="stop-color:#00347A"/>
		<stop  offset="1" style="stop-color:#002366"/>
	</linearGradient>
	<path class="st11" d="M86.3,50.2c0,0.6-0.1,1.1-0.4,1.6c-0.2,0.4-0.6,0.8-1,1s-0.9,0.4-1.5,0.4c-0.5,0-0.9-0.1-1.2-0.3
		c-0.3-0.2-0.6-0.5-0.7-0.8c-0.2-0.4-0.2-0.9-0.2-1.4v-5.1h-0.7v5.2c0,0.7,0.1,1.3,0.3,1.7c0.2,0.5,0.5,0.8,1,1.1
		c0.4,0.2,1,0.4,1.6,0.4c0.7,0,1.3-0.2,1.9-0.6c0.4-0.3,0.7-0.6,0.9-1.1v1.5H87v-8.2h-0.7V50.2z"/>
	<linearGradient id="SVGID_13_" gradientUnits="userSpaceOnUse" x1="91.9762" y1="58.9966" x2="91.7738" y2="44.4215">
		<stop  offset="0" style="stop-color:#005DAB"/>
		<stop  offset="0.7088" style="stop-color:#00347A"/>
		<stop  offset="1" style="stop-color:#002366"/>
	</linearGradient>
	<path class="st12" d="M93.4,45.3c-0.8,0.1-1.4,0.3-1.9,0.6c-0.4,0.3-0.7,0.6-0.9,1.1v-1.5h-0.7v8.2h0.7v-4.9c0-0.8,0.2-1.4,0.7-1.9
		c0.5-0.5,1.1-0.8,2-0.8l0.6-0.1l-0.1-0.6L93.4,45.3z"/>
	<linearGradient id="SVGID_14_" gradientUnits="userSpaceOnUse" x1="102.2729" y1="58.8536" x2="102.0705" y2="44.2785">
		<stop  offset="0" style="stop-color:#005DAB"/>
		<stop  offset="0.7088" style="stop-color:#00347A"/>
		<stop  offset="1" style="stop-color:#002366"/>
	</linearGradient>
	<path class="st13" d="M103,49.5l-1.4-0.3c-0.5-0.1-0.9-0.3-1.1-0.5c-0.2-0.2-0.4-0.5-0.4-0.9c0-0.5,0.2-0.9,0.6-1.2
		s0.9-0.5,1.6-0.5c0.3,0,0.6,0,0.9,0.1c0.3,0.1,0.6,0.2,0.8,0.3c0.3,0.2,0.5,0.3,0.7,0.6l0.3-0.6c-0.2-0.2-0.4-0.4-0.7-0.6
		c-0.3-0.2-0.6-0.3-0.9-0.4c-0.3-0.1-0.7-0.1-1.1-0.1c-0.6,0-1.1,0.1-1.6,0.3c-0.4,0.2-0.8,0.5-1,0.8s-0.4,0.8-0.4,1.2
		c0,0.6,0.2,1,0.5,1.4c0.3,0.4,0.9,0.6,1.6,0.8l1.4,0.3c0.6,0.1,1,0.3,1.2,0.5c0.3,0.2,0.4,0.5,0.4,0.9c0,0.5-0.2,0.9-0.6,1.2
		c-0.4,0.3-1,0.4-1.7,0.4c-0.3,0-0.7,0-1-0.1c-0.3-0.1-0.6-0.2-0.9-0.3c-0.3-0.1-0.6-0.3-0.9-0.6l-0.3,0.6c0.2,0.2,0.5,0.4,0.8,0.6
		c0.3,0.2,0.7,0.3,1.1,0.4s0.8,0.1,1.1,0.1c0.6,0,1.2-0.1,1.6-0.3c0.5-0.2,0.8-0.5,1.1-0.8c0.3-0.3,0.4-0.7,0.4-1.2
		c0-0.6-0.2-1-0.5-1.3C104.3,49.9,103.8,49.7,103,49.5z"/>
	<linearGradient id="SVGID_15_" gradientUnits="userSpaceOnUse" x1="110.5461" y1="58.7387" x2="110.3436" y2="44.1635">
		<stop  offset="0" style="stop-color:#005DAB"/>
		<stop  offset="0.7088" style="stop-color:#00347A"/>
		<stop  offset="1" style="stop-color:#002366"/>
	</linearGradient>
	<path class="st14" d="M112.3,45.7c-0.4-0.2-0.9-0.3-1.5-0.3c-0.4,0-0.7,0-1.1,0.1c-0.4,0.1-0.7,0.2-1.1,0.3c-0.3,0.1-0.7,0.3-1,0.5
		L108,47c0.5-0.3,1-0.6,1.4-0.7c0.4-0.1,0.9-0.2,1.4-0.2c0.7,0,1.2,0.2,1.5,0.6c0.3,0.4,0.5,1,0.5,1.8v0.7h-0.5
		c-1.3,0-2.3,0.1-3,0.2c-0.7,0.1-1.2,0.4-1.5,0.7c-0.3,0.3-0.5,0.8-0.5,1.4c0,0.5,0.1,0.9,0.4,1.2c0.2,0.4,0.6,0.7,1,0.9
		c0.4,0.2,0.9,0.3,1.4,0.3c0.5,0,0.9-0.1,1.3-0.3c0.4-0.2,0.7-0.4,1-0.8c0.2-0.2,0.3-0.4,0.4-0.7v1.5h0.7v-5.3
		c0-0.7-0.1-1.3-0.3-1.7C113,46.2,112.7,45.9,112.3,45.7z M112.5,51.8c-0.2,0.4-0.5,0.8-0.9,1c-0.4,0.3-0.8,0.4-1.4,0.4
		c-0.6,0-1.2-0.2-1.5-0.5c-0.4-0.3-0.6-0.8-0.6-1.3c0-0.3,0.1-0.6,0.2-0.8c0.1-0.2,0.4-0.4,0.7-0.5c0.3-0.1,0.8-0.2,1.3-0.3
		c0.6-0.1,1.3-0.1,2.1-0.1h0.5v0.6C112.8,50.9,112.7,51.4,112.5,51.8z"/>
	<linearGradient id="SVGID_16_" gradientUnits="userSpaceOnUse" x1="119.3242" y1="58.6167" x2="119.1218" y2="44.0416">
		<stop  offset="0" style="stop-color:#005DAB"/>
		<stop  offset="0.7088" style="stop-color:#00347A"/>
		<stop  offset="1" style="stop-color:#002366"/>
	</linearGradient>
	<polygon class="st15" points="119.1,53 116.1,45.5 115.2,45.5 118.7,53.7 119.5,53.7 123,45.5 122.2,45.5 	"/>
	<linearGradient id="SVGID_17_" gradientUnits="userSpaceOnUse" x1="125.3433" y1="58.5331" x2="125.1409" y2="43.958">
		<stop  offset="0" style="stop-color:#005DAB"/>
		<stop  offset="0.7088" style="stop-color:#00347A"/>
		<stop  offset="1" style="stop-color:#002366"/>
	</linearGradient>
	<rect x="124.9" y="45.5" class="st16" width="0.7" height="8.2"/>
	<linearGradient id="SVGID_18_" gradientUnits="userSpaceOnUse" x1="125.4396" y1="58.5318" x2="125.2372" y2="43.9567">
		<stop  offset="0" style="stop-color:#005DAB"/>
		<stop  offset="0.7088" style="stop-color:#00347A"/>
		<stop  offset="1" style="stop-color:#002366"/>
	</linearGradient>
	<rect x="124.7" y="42.1" class="st17" width="1.1" height="1.1"/>
	<linearGradient id="SVGID_19_" gradientUnits="userSpaceOnUse" x1="131.8335" y1="58.443" x2="131.6311" y2="43.8679">
		<stop  offset="0" style="stop-color:#005DAB"/>
		<stop  offset="0.7088" style="stop-color:#00347A"/>
		<stop  offset="1" style="stop-color:#002366"/>
	</linearGradient>
	<path class="st18" d="M133.7,45.7c-0.4-0.2-1-0.3-1.6-0.3c-0.7,0-1.4,0.2-1.9,0.5c-0.4,0.3-0.8,0.7-1,1.1v-1.5h-0.7v8.2h0.7V49
		c0-0.6,0.1-1.1,0.4-1.6c0.2-0.4,0.6-0.8,1-1c0.4-0.2,0.9-0.4,1.5-0.4c0.5,0,0.9,0.1,1.3,0.3s0.6,0.5,0.7,0.8
		c0.2,0.4,0.2,0.8,0.2,1.4v5.2h0.7v-5.2c0-0.7-0.1-1.3-0.3-1.7C134.5,46.3,134.1,45.9,133.7,45.7z"/>
	<linearGradient id="SVGID_20_" gradientUnits="userSpaceOnUse" x1="141.1264" y1="58.3139" x2="140.924" y2="43.7388">
		<stop  offset="0" style="stop-color:#005DAB"/>
		<stop  offset="0.7088" style="stop-color:#00347A"/>
		<stop  offset="1" style="stop-color:#002366"/>
	</linearGradient>
	<path class="st19" d="M143.9,47.1c-0.2-0.5-0.5-0.8-0.9-1.1c-0.6-0.4-1.2-0.6-2-0.6c-0.8,0-1.4,0.2-2,0.5c-0.6,0.3-1,0.8-1.3,1.4
		c-0.3,0.6-0.4,1.3-0.4,2.1c0,0.8,0.1,1.5,0.4,2.1c0.3,0.6,0.7,1.1,1.3,1.4c0.6,0.3,1.2,0.5,2,0.5c0.8,0,1.5-0.2,2-0.6
		c0.4-0.3,0.7-0.7,0.9-1.2v1.7c0,0.9-0.2,1.6-0.7,2.1c-0.4,0.5-1.1,0.7-1.9,0.7c-0.4,0-0.8,0-1.1-0.1c-0.3-0.1-0.7-0.2-1-0.3
		c-0.3-0.2-0.7-0.4-1-0.6l-0.3,0.6c0.5,0.4,1,0.7,1.6,0.9c0.6,0.2,1.2,0.3,1.9,0.3c0.7,0,1.3-0.1,1.8-0.4c0.5-0.3,0.9-0.7,1.1-1.2
		c0.2-0.5,0.4-1.2,0.4-2v-7.8h-0.7V47.1z M143.1,51.9c-0.5,0.6-1.3,0.9-2.2,0.9c-0.9,0-1.6-0.3-2.2-0.9c-0.5-0.6-0.8-1.5-0.8-2.5
		c0-1,0.3-1.9,0.8-2.5c0.5-0.6,1.3-0.9,2.2-0.9c0.9,0,1.6,0.3,2.2,0.9c0.5,0.6,0.8,1.4,0.8,2.5C143.9,50.5,143.7,51.3,143.1,51.9z"
		/>
	<linearGradient id="SVGID_21_" gradientUnits="userSpaceOnUse" x1="150.1933" y1="58.188" x2="149.9909" y2="43.6129">
		<stop  offset="0" style="stop-color:#005DAB"/>
		<stop  offset="0.7088" style="stop-color:#00347A"/>
		<stop  offset="1" style="stop-color:#002366"/>
	</linearGradient>
	<path class="st20" d="M151,49.5l-1.4-0.3c-0.5-0.1-0.9-0.3-1.1-0.5c-0.2-0.2-0.4-0.5-0.4-0.9c0-0.5,0.2-0.9,0.6-1.2
		s0.9-0.5,1.6-0.5c0.3,0,0.6,0,0.9,0.1c0.3,0.1,0.6,0.2,0.8,0.3c0.3,0.2,0.5,0.3,0.7,0.6l0.3-0.6c-0.2-0.2-0.4-0.4-0.7-0.6
		c-0.3-0.2-0.6-0.3-0.9-0.4c-0.3-0.1-0.7-0.1-1.1-0.1c-0.6,0-1.1,0.1-1.6,0.3c-0.4,0.2-0.8,0.5-1,0.8s-0.4,0.8-0.4,1.2
		c0,0.6,0.2,1,0.5,1.4c0.3,0.4,0.9,0.6,1.6,0.8l1.4,0.3c0.6,0.1,1,0.3,1.2,0.5c0.3,0.2,0.4,0.5,0.4,0.9c0,0.5-0.2,0.9-0.6,1.2
		c-0.4,0.3-1,0.4-1.7,0.4c-0.3,0-0.7,0-1-0.1c-0.3-0.1-0.6-0.2-0.9-0.3c-0.3-0.1-0.6-0.3-0.9-0.6l-0.3,0.6c0.2,0.2,0.5,0.4,0.8,0.6
		c0.3,0.2,0.7,0.3,1.1,0.4c0.4,0.1,0.8,0.1,1.1,0.1c0.6,0,1.2-0.1,1.6-0.3c0.5-0.2,0.8-0.5,1.1-0.8c0.3-0.3,0.4-0.7,0.4-1.2
		c0-0.6-0.2-1-0.5-1.3C152.3,49.9,151.7,49.7,151,49.5z"/>
	<linearGradient id="SVGID_22_" gradientUnits="userSpaceOnUse" x1="163.0489" y1="58.0095" x2="162.8464" y2="43.4343">
		<stop  offset="0" style="stop-color:#005DAB"/>
		<stop  offset="0.7088" style="stop-color:#00347A"/>
		<stop  offset="1" style="stop-color:#002366"/>
	</linearGradient>
	<path class="st21" d="M165.8,47.1c-0.2-0.5-0.5-0.8-0.9-1.1c-0.6-0.4-1.2-0.6-2-0.6c-0.7,0-1.4,0.2-1.9,0.5c-0.5,0.3-1,0.8-1.3,1.5
		s-0.4,1.4-0.4,2.3c0,0.9,0.1,1.6,0.4,2.2c0.3,0.6,0.7,1.1,1.3,1.5c0.5,0.3,1.2,0.5,1.9,0.5c0.8,0,1.5-0.2,2-0.6
		c0.4-0.3,0.7-0.7,0.9-1.1v1.6h0.7v-12h-0.7V47.1z M165,52.3c-0.5,0.6-1.2,0.9-2.1,0.9c-0.9,0-1.6-0.3-2.1-0.9
		c-0.5-0.6-0.8-1.5-0.8-2.6s0.3-2,0.8-2.6c0.5-0.6,1.2-0.9,2.1-0.9c0.9,0,1.6,0.3,2.1,0.9c0.5,0.6,0.8,1.5,0.8,2.6
		S165.6,51.6,165,52.3z"/>
	<linearGradient id="SVGID_23_" gradientUnits="userSpaceOnUse" x1="172.5699" y1="57.8772" x2="172.3675" y2="43.3021">
		<stop  offset="0" style="stop-color:#005DAB"/>
		<stop  offset="0.7088" style="stop-color:#00347A"/>
		<stop  offset="1" style="stop-color:#002366"/>
	</linearGradient>
	<path class="st22" d="M174.5,45.8c-0.5-0.3-1.1-0.5-1.8-0.5c-0.7,0-1.4,0.2-2,0.5c-0.6,0.4-1,0.9-1.3,1.5c-0.3,0.6-0.5,1.4-0.5,2.2
		c0,0.9,0.2,1.6,0.5,2.2c0.3,0.6,0.8,1.1,1.4,1.5c0.6,0.3,1.3,0.5,2.1,0.5c0.6,0,1.2-0.1,1.7-0.3c0.6-0.2,1-0.5,1.4-0.8l-0.3-0.6
		c-0.4,0.4-0.9,0.7-1.3,0.8s-0.9,0.2-1.4,0.2c-0.7,0-1.2-0.1-1.7-0.4c-0.5-0.3-0.8-0.7-1.1-1.2c-0.2-0.5-0.4-1.1-0.4-1.8h6.4v-0.4
		c0-0.8-0.1-1.5-0.4-2.1C175.4,46.6,175,46.2,174.5,45.8z M169.9,47.7c0.2-0.5,0.6-1,1-1.3c0.5-0.3,1-0.5,1.7-0.5
		c0.9,0,1.6,0.3,2,0.9c0.4,0.5,0.6,1.3,0.7,2.2h-5.7C169.7,48.6,169.8,48.2,169.9,47.7z"/>
	<linearGradient id="SVGID_24_" gradientUnits="userSpaceOnUse" x1="180.9525" y1="57.7608" x2="180.7501" y2="43.1857">
		<stop  offset="0" style="stop-color:#005DAB"/>
		<stop  offset="0.7088" style="stop-color:#00347A"/>
		<stop  offset="1" style="stop-color:#002366"/>
	</linearGradient>
	<path class="st23" d="M181.7,49.5l-1.4-0.3c-0.5-0.1-0.9-0.3-1.1-0.5c-0.2-0.2-0.4-0.5-0.4-0.9c0-0.5,0.2-0.9,0.6-1.2
		s0.9-0.5,1.6-0.5c0.3,0,0.6,0,0.9,0.1c0.3,0.1,0.6,0.2,0.8,0.3c0.3,0.2,0.5,0.3,0.7,0.6l0.3-0.6c-0.2-0.2-0.4-0.4-0.7-0.6
		c-0.3-0.2-0.6-0.3-0.9-0.4c-0.3-0.1-0.7-0.1-1.1-0.1c-0.6,0-1.1,0.1-1.6,0.3c-0.4,0.2-0.8,0.5-1,0.8c-0.2,0.4-0.4,0.8-0.4,1.2
		c0,0.6,0.2,1,0.5,1.4c0.3,0.4,0.9,0.6,1.6,0.8l1.4,0.3c0.6,0.1,1,0.3,1.2,0.5c0.3,0.2,0.4,0.5,0.4,0.9c0,0.5-0.2,0.9-0.6,1.2
		c-0.4,0.3-1,0.4-1.7,0.4c-0.3,0-0.7,0-1-0.1c-0.3-0.1-0.6-0.2-0.9-0.3c-0.3-0.1-0.6-0.3-0.9-0.6l-0.3,0.6c0.2,0.2,0.5,0.4,0.8,0.6
		c0.3,0.2,0.7,0.3,1.1,0.4c0.4,0.1,0.8,0.1,1.1,0.1c0.6,0,1.2-0.1,1.6-0.3c0.5-0.2,0.8-0.5,1.1-0.8c0.3-0.3,0.4-0.7,0.4-1.2
		c0-0.6-0.2-1-0.5-1.3C183,49.9,182.5,49.7,181.7,49.5z"/>
	<linearGradient id="SVGID_25_" gradientUnits="userSpaceOnUse" x1="187.7925" y1="57.6658" x2="187.5901" y2="43.0907">
		<stop  offset="0" style="stop-color:#005DAB"/>
		<stop  offset="0.7088" style="stop-color:#00347A"/>
		<stop  offset="1" style="stop-color:#002366"/>
	</linearGradient>
	<path class="st24" d="M189.8,53.1c-0.2,0.1-0.4,0.1-0.6,0.1c-0.7,0-1.2-0.2-1.5-0.6c-0.3-0.4-0.4-1-0.4-1.7v-4.8h2.7v-0.6h-2.7
		v-2.6h-0.7v2.6h-1.6v0.6h1.6v5c0,0.9,0.2,1.6,0.6,2.1c0.4,0.5,1.1,0.7,1.9,0.7c0.2,0,0.5,0,0.7-0.1c0.3-0.1,0.4-0.1,0.5-0.2
		l-0.2-0.6C190.1,53,190,53.1,189.8,53.1z"/>
	<linearGradient id="SVGID_26_" gradientUnits="userSpaceOnUse" x1="192.2711" y1="57.6036" x2="192.0687" y2="43.0285">
		<stop  offset="0" style="stop-color:#005DAB"/>
		<stop  offset="0.7088" style="stop-color:#00347A"/>
		<stop  offset="1" style="stop-color:#002366"/>
	</linearGradient>
	<rect x="191.5" y="42.1" class="st25" width="1.1" height="1.1"/>
	<linearGradient id="SVGID_27_" gradientUnits="userSpaceOnUse" x1="192.1748" y1="57.6049" x2="191.9724" y2="43.0298">
		<stop  offset="0" style="stop-color:#005DAB"/>
		<stop  offset="0.7088" style="stop-color:#00347A"/>
		<stop  offset="1" style="stop-color:#002366"/>
	</linearGradient>
	<rect x="191.7" y="45.5" class="st26" width="0.7" height="8.2"/>
	<linearGradient id="SVGID_28_" gradientUnits="userSpaceOnUse" x1="198.6639" y1="57.5148" x2="198.4615" y2="42.9397">
		<stop  offset="0" style="stop-color:#005DAB"/>
		<stop  offset="0.7088" style="stop-color:#00347A"/>
		<stop  offset="1" style="stop-color:#002366"/>
	</linearGradient>
	<path class="st27" d="M200.5,45.7c-0.4-0.2-1-0.3-1.6-0.3c-0.7,0-1.4,0.2-1.9,0.5c-0.4,0.3-0.8,0.7-1,1.1v-1.5h-0.7v8.2h0.7V49
		c0-0.6,0.1-1.1,0.4-1.6c0.2-0.4,0.6-0.8,1-1c0.4-0.2,0.9-0.4,1.5-0.4c0.5,0,0.9,0.1,1.3,0.3s0.6,0.5,0.7,0.8
		c0.2,0.4,0.2,0.8,0.2,1.4v5.2h0.7v-5.2c0-0.7-0.1-1.3-0.3-1.7C201.3,46.3,201,45.9,200.5,45.7z"/>
	<linearGradient id="SVGID_29_" gradientUnits="userSpaceOnUse" x1="207.5591" y1="57.3913" x2="207.3566" y2="42.8161">
		<stop  offset="0" style="stop-color:#005DAB"/>
		<stop  offset="0.7088" style="stop-color:#00347A"/>
		<stop  offset="1" style="stop-color:#002366"/>
	</linearGradient>
	<path class="st28" d="M209.4,45.7c-0.4-0.2-0.9-0.3-1.5-0.3c-0.4,0-0.7,0-1.1,0.1c-0.4,0.1-0.7,0.2-1.1,0.3c-0.3,0.1-0.7,0.3-1,0.5
		L205,47c0.5-0.3,1-0.6,1.4-0.7c0.4-0.1,0.9-0.2,1.4-0.2c0.7,0,1.2,0.2,1.5,0.6c0.3,0.4,0.5,1,0.5,1.8v0.7h-0.5
		c-1.3,0-2.3,0.1-3,0.2c-0.7,0.1-1.2,0.4-1.5,0.7c-0.3,0.3-0.4,0.8-0.4,1.4c0,0.5,0.1,0.9,0.4,1.2c0.2,0.4,0.6,0.7,1,0.9
		c0.4,0.2,0.9,0.3,1.4,0.3c0.5,0,0.9-0.1,1.3-0.3c0.4-0.2,0.7-0.4,1-0.8c0.2-0.2,0.3-0.4,0.4-0.7v1.5h0.7v-5.3
		c0-0.7-0.1-1.3-0.3-1.7C210.1,46.2,209.8,45.9,209.4,45.7z M209.5,51.8c-0.2,0.4-0.5,0.8-0.9,1c-0.4,0.3-0.8,0.4-1.4,0.4
		c-0.6,0-1.2-0.2-1.5-0.5c-0.4-0.3-0.6-0.8-0.6-1.3c0-0.3,0.1-0.6,0.2-0.8c0.1-0.2,0.4-0.4,0.7-0.5c0.3-0.1,0.8-0.2,1.3-0.3
		c0.6-0.1,1.3-0.1,2.1-0.1h0.5v0.6C209.9,50.9,209.7,51.4,209.5,51.8z"/>
	<linearGradient id="SVGID_30_" gradientUnits="userSpaceOnUse" x1="214.9356" y1="57.2888" x2="214.7331" y2="42.7137">
		<stop  offset="0" style="stop-color:#005DAB"/>
		<stop  offset="0.7088" style="stop-color:#00347A"/>
		<stop  offset="1" style="stop-color:#002366"/>
	</linearGradient>
	<path class="st29" d="M216.9,53.1c-0.2,0.1-0.4,0.1-0.6,0.1c-0.7,0-1.2-0.2-1.5-0.6c-0.3-0.4-0.4-1-0.4-1.7v-4.8h2.7v-0.6h-2.7
		v-2.6h-0.7v2.6h-1.6v0.6h1.6v5c0,0.9,0.2,1.6,0.6,2.1c0.4,0.5,1.1,0.7,1.9,0.7c0.2,0,0.5,0,0.7-0.1c0.3-0.1,0.4-0.1,0.5-0.2
		l-0.2-0.6C217.3,53,217.1,53.1,216.9,53.1z"/>
	<linearGradient id="SVGID_31_" gradientUnits="userSpaceOnUse" x1="219.3168" y1="57.228" x2="219.1144" y2="42.6528">
		<stop  offset="0" style="stop-color:#005DAB"/>
		<stop  offset="0.7088" style="stop-color:#00347A"/>
		<stop  offset="1" style="stop-color:#002366"/>
	</linearGradient>
	<rect x="218.9" y="45.5" class="st30" width="0.7" height="8.2"/>
	<linearGradient id="SVGID_32_" gradientUnits="userSpaceOnUse" x1="219.4131" y1="57.2266" x2="219.2107" y2="42.6515">
		<stop  offset="0" style="stop-color:#005DAB"/>
		<stop  offset="0.7088" style="stop-color:#00347A"/>
		<stop  offset="1" style="stop-color:#002366"/>
	</linearGradient>
	<rect x="218.7" y="42.1" class="st31" width="1.1" height="1.1"/>
	<linearGradient id="SVGID_33_" gradientUnits="userSpaceOnUse" x1="225.6834" y1="57.1395" x2="225.4809" y2="42.5644">
		<stop  offset="0" style="stop-color:#005DAB"/>
		<stop  offset="0.7088" style="stop-color:#00347A"/>
		<stop  offset="1" style="stop-color:#002366"/>
	</linearGradient>
	<path class="st32" d="M227.5,45.9c-0.5-0.4-1.2-0.5-1.9-0.5c-0.7,0-1.4,0.2-1.9,0.5c-0.5,0.4-1,0.8-1.3,1.5
		c-0.3,0.6-0.4,1.4-0.4,2.2c0,0.9,0.1,1.6,0.4,2.2s0.7,1.1,1.3,1.5c0.5,0.4,1.2,0.5,1.9,0.5c0.7,0,1.4-0.2,1.9-0.5
		c0.5-0.4,1-0.8,1.3-1.5c0.3-0.6,0.4-1.4,0.4-2.2c0-0.9-0.1-1.6-0.4-2.2C228.5,46.7,228.1,46.2,227.5,45.9z M227.7,52.3
		c-0.5,0.6-1.2,0.9-2.1,0.9c-0.9,0-1.6-0.3-2.1-0.9c-0.5-0.6-0.8-1.5-0.8-2.6s0.3-2,0.8-2.6c0.5-0.6,1.2-0.9,2.1-0.9
		c0.9,0,1.6,0.3,2.1,0.9c0.5,0.6,0.8,1.5,0.8,2.6S228.3,51.6,227.7,52.3z"/>
	<linearGradient id="SVGID_34_" gradientUnits="userSpaceOnUse" x1="234.9398" y1="57.011" x2="234.7374" y2="42.4359">
		<stop  offset="0" style="stop-color:#005DAB"/>
		<stop  offset="0.7088" style="stop-color:#00347A"/>
		<stop  offset="1" style="stop-color:#002366"/>
	</linearGradient>
	<path class="st33" d="M237.8,46.7c-0.2-0.5-0.5-0.8-1-1c-0.4-0.2-1-0.3-1.6-0.3c-0.7,0-1.4,0.2-1.9,0.5c-0.4,0.3-0.8,0.7-1,1.1
		v-1.5h-0.7v8.2h0.7V49c0-0.6,0.1-1.1,0.4-1.6c0.2-0.4,0.6-0.8,1-1c0.4-0.2,0.9-0.4,1.5-0.4c0.5,0,0.9,0.1,1.3,0.3s0.6,0.5,0.7,0.8
		c0.2,0.4,0.2,0.8,0.2,1.4v5.2h0.7v-5.2C238.1,47.8,238,47.2,237.8,46.7z"/>
</g>
<g>
	<linearGradient id="SVGID_35_" gradientUnits="userSpaceOnUse" x1="10.6533" y1="51.921" x2="42.1849" y2="17.7392">
		<stop  offset="0" style="stop-color:#01288B"/>
		<stop  offset="0.1528" style="stop-color:#032D8F"/>
		<stop  offset="0.3295" style="stop-color:#073B99"/>
		<stop  offset="0.5181" style="stop-color:#0F52AB"/>
		<stop  offset="0.715" style="stop-color:#1A72C3"/>
		<stop  offset="0.9166" style="stop-color:#289CE3"/>
		<stop  offset="0.9485" style="stop-color:#2AA3E8"/>
	</linearGradient>
	<linearGradient id="SVGID_36_" gradientUnits="userSpaceOnUse" x1="4.3982" y1="30.8518" x2="51.8964" y2="30.8518">
		<stop  offset="7.731959e-02" style="stop-color:#01288B"/>
		<stop  offset="1" style="stop-color:#2AA3E8"/>
	</linearGradient>
	<path class="st34" d="M51.2,22.7L46.1,9.2c-0.4-1-1.3-1.8-2.5-1.9L27.3,5.9C26.7,5.8,26,6,25.5,6.3l-9.9,5.8
		c-0.6,0.3-1,0.9-1.2,1.5L5.1,39.1c-0.5,1.4,0.2,3,1.6,3.7l29.9,12.8c1.5,0.7,3.3-0.1,3.9-1.7l10.8-29.2
		C51.5,24.1,51.5,23.4,51.2,22.7z M40.3,16.6c-2.3,0-4.2-1.9-4.2-4.2c0-2.3,1.9-4.2,4.2-4.2c2.3,0,4.2,1.9,4.2,4.2
		C44.6,14.7,42.7,16.6,40.3,16.6z"/>
	<path class="st35" d="M36.8,53.5c-0.3,0-0.7-0.1-1-0.2l-0.5-0.2c-0.2-0.1-0.2-0.3-0.2-0.4c0.1-0.2,0.3-0.2,0.4-0.2l0.5,0.2
		c0.4,0.2,0.8,0.2,1.2,0.1c0.2-0.1,0.4,0.1,0.4,0.2c0.1,0.2-0.1,0.4-0.2,0.4C37.2,53.5,37,53.5,36.8,53.5z"/>
	<path class="st35" d="M33.6,52.3c0,0-0.1,0-0.1,0l-1.8-0.8c-0.2-0.1-0.2-0.3-0.2-0.4c0.1-0.2,0.3-0.2,0.4-0.2l1.8,0.8
		c0.2,0.1,0.2,0.3,0.2,0.4C33.8,52.2,33.7,52.3,33.6,52.3z"/>
	<path class="st35" d="M39.1,51.8l-0.3-0.1l-0.3-0.1l0.7-1.9c0.1-0.2,0.3-0.3,0.4-0.2c0.2,0.1,0.3,0.3,0.2,0.4L39.1,51.8z"/>
	<path class="st35" d="M29.9,50.7c0,0-0.1,0-0.1,0l-1.8-0.8c-0.2-0.1-0.2-0.3-0.2-0.4c0.1-0.2,0.3-0.2,0.4-0.2l1.8,0.8
		c0.2,0.1,0.2,0.3,0.2,0.4C30.2,50.7,30,50.7,29.9,50.7z"/>
	<path class="st35" d="M26.2,49.2c0,0-0.1,0-0.1,0l-1.8-0.8c-0.2-0.1-0.2-0.3-0.2-0.4c0.1-0.2,0.3-0.2,0.4-0.2l1.8,0.8
		c0.2,0.1,0.2,0.3,0.2,0.4C26.5,49.1,26.4,49.2,26.2,49.2z"/>
	<path class="st35" d="M40.2,48.3c0,0-0.1,0-0.1,0c-0.2-0.1-0.3-0.3-0.2-0.4l0.7-1.9c0.1-0.2,0.3-0.3,0.4-0.2
		c0.2,0.1,0.3,0.3,0.2,0.4l-0.7,1.9C40.4,48.3,40.3,48.3,40.2,48.3z"/>
	<path class="st35" d="M22.5,47.6c0,0-0.1,0-0.1,0l-1.8-0.8c-0.2-0.1-0.2-0.3-0.2-0.4c0.1-0.2,0.3-0.2,0.4-0.2l1.8,0.8
		c0.2,0.1,0.2,0.3,0.2,0.4C22.8,47.5,22.7,47.6,22.5,47.6z"/>
	<path class="st35" d="M18.9,46c0,0-0.1,0-0.1,0l-1.8-0.8c-0.2-0.1-0.2-0.3-0.2-0.4c0.1-0.2,0.3-0.2,0.4-0.2l1.8,0.8
		c0.2,0.1,0.2,0.3,0.2,0.4C19.1,45.9,19,46,18.9,46z"/>
	<path class="st35" d="M41.6,44.6c0,0-0.1,0-0.1,0c-0.2-0.1-0.3-0.3-0.2-0.4l0.7-1.9c0.1-0.2,0.3-0.3,0.4-0.2
		c0.2,0.1,0.3,0.3,0.2,0.4l-0.7,1.9C41.8,44.5,41.7,44.6,41.6,44.6z"/>
	<path class="st35" d="M15.2,44.4c0,0-0.1,0-0.1,0l-1.8-0.8C13,43.5,13,43.3,13,43.2c0.1-0.2,0.3-0.2,0.4-0.2l1.8,0.8
		c0.2,0.1,0.2,0.3,0.2,0.4C15.4,44.3,15.3,44.4,15.2,44.4z"/>
	<path class="st35" d="M11.5,42.8c0,0-0.1,0-0.1,0L9.5,42c-0.2-0.1-0.2-0.3-0.2-0.4c0.1-0.2,0.3-0.2,0.4-0.2l1.8,0.8
		c0.2,0.1,0.2,0.3,0.2,0.4C11.8,42.8,11.6,42.8,11.5,42.8z"/>
	<path class="st35" d="M7.9,41.1c-0.1,0-0.2,0-0.3-0.1c-0.4-0.5-0.6-1-0.6-1.6c0-0.2,0-0.4,0.1-0.5c0-0.1,0-0.1,0.1-0.2
		c0-0.1,0-0.1,0-0.2l0.7-1.9c0.1-0.2,0.3-0.3,0.4-0.2c0.2,0.1,0.3,0.3,0.2,0.4l-0.7,1.9c0,0,0,0.1-0.1,0.1c0,0,0,0.1,0,0.1
		c0,0.1,0,0.3,0,0.4c0,0.4,0.2,0.9,0.4,1.2c0.1,0.1,0.1,0.4,0,0.5C8.1,41,8,41.1,7.9,41.1z"/>
	<path class="st35" d="M43,40.8c0,0-0.1,0-0.1,0c-0.2-0.1-0.3-0.3-0.2-0.4l0.7-1.9c0.1-0.2,0.3-0.3,0.4-0.2c0.2,0.1,0.3,0.3,0.2,0.4
		l-0.7,1.9C43.2,40.8,43.1,40.8,43,40.8z"/>
	<path class="st35" d="M44.4,37.1c0,0-0.1,0-0.1,0c-0.2-0.1-0.3-0.3-0.2-0.4l0.7-1.9c0.1-0.2,0.3-0.3,0.4-0.2
		c0.2,0.1,0.3,0.3,0.2,0.4l-0.7,1.9C44.6,37,44.5,37.1,44.4,37.1z"/>
	<path class="st35" d="M8.9,35.1c0,0-0.1,0-0.1,0c-0.2-0.1-0.3-0.3-0.2-0.4l0.7-1.9c0.1-0.2,0.3-0.3,0.4-0.2
		c0.2,0.1,0.3,0.3,0.2,0.4l-0.7,1.9C9.2,35.1,9.1,35.1,8.9,35.1z"/>
	<path class="st35" d="M45.8,33.3c0,0-0.1,0-0.1,0c-0.2-0.1-0.3-0.3-0.2-0.4l0.7-1.9c0.1-0.2,0.3-0.3,0.4-0.2
		c0.2,0.1,0.3,0.3,0.2,0.4l-0.7,1.9C46,33.2,45.9,33.3,45.8,33.3z"/>
	<path class="st35" d="M10.3,31.4c0,0-0.1,0-0.1,0c-0.2-0.1-0.3-0.3-0.2-0.4l0.7-1.9c0.1-0.2,0.3-0.3,0.4-0.2
		c0.2,0.1,0.3,0.3,0.2,0.4l-0.7,1.9C10.6,31.3,10.4,31.4,10.3,31.4z"/>
	<path class="st35" d="M47.2,29.6c0,0-0.1,0-0.1,0c-0.2-0.1-0.3-0.3-0.2-0.4l0.7-1.9c0.1-0.2,0.3-0.3,0.4-0.2
		c0.2,0.1,0.3,0.3,0.2,0.4l-0.7,1.9C47.4,29.5,47.3,29.6,47.2,29.6z"/>
	<path class="st35" d="M11.7,27.6c0,0-0.1,0-0.1,0c-0.2-0.1-0.3-0.3-0.2-0.4l0.7-1.9c0.1-0.2,0.3-0.3,0.4-0.2
		c0.2,0.1,0.3,0.3,0.2,0.4L12,27.4C12,27.5,11.8,27.6,11.7,27.6z"/>
	<path class="st35" d="M48.6,25.8c0,0-0.1,0-0.1,0c-0.2-0.1-0.3-0.3-0.2-0.4l0-0.1c0.1-0.2,0.1-0.4,0.1-0.6c0-0.2,0-0.4-0.1-0.7
		l-0.1-0.3c-0.1-0.2,0-0.4,0.2-0.4c0.2-0.1,0.4,0,0.4,0.2l0.1,0.3c0.1,0.3,0.2,0.6,0.2,0.9c0,0.3-0.1,0.6-0.2,0.9l0,0.1
		C48.8,25.7,48.7,25.8,48.6,25.8z"/>
	<path class="st35" d="M13.1,23.9c0,0-0.1,0-0.1,0c-0.2-0.1-0.3-0.3-0.2-0.4l0.7-1.9c0.1-0.2,0.3-0.3,0.4-0.2
		c0.2,0.1,0.3,0.3,0.2,0.4l-0.7,1.9C13.3,23.8,13.2,23.9,13.1,23.9z"/>
	<path class="st35" d="M47.8,22c-0.1,0-0.3-0.1-0.3-0.2l-0.7-1.9c-0.1-0.2,0-0.4,0.2-0.4c0.2-0.1,0.4,0,0.4,0.2l0.7,1.9
		c0.1,0.2,0,0.4-0.2,0.4C47.8,22,47.8,22,47.8,22z"/>
	<path class="st35" d="M14.4,20.1c0,0-0.1,0-0.1,0c-0.2-0.1-0.3-0.3-0.2-0.4l0.7-1.9c0.1-0.2,0.3-0.3,0.4-0.2
		c0.2,0.1,0.3,0.3,0.2,0.4l-0.7,1.9C14.7,20,14.6,20.1,14.4,20.1z"/>
	<path class="st35" d="M46.4,18.3c-0.1,0-0.3-0.1-0.3-0.2l-0.7-1.9c-0.1-0.2,0-0.4,0.2-0.4c0.2-0.1,0.4,0,0.4,0.2l0.7,1.9
		c0.1,0.2,0,0.4-0.2,0.4C46.4,18.2,46.4,18.3,46.4,18.3z"/>
	<path class="st35" d="M15.8,16.3c0,0-0.1,0-0.1,0c-0.2-0.1-0.3-0.3-0.2-0.4l0.2-0.5c0.2-0.5,0.6-1,1.1-1.3c0.2-0.1,0.4,0,0.5,0.1
		c0.1,0.2,0,0.4-0.1,0.5c-0.4,0.2-0.6,0.6-0.8,1l-0.2,0.5C16.1,16.2,16,16.3,15.8,16.3z"/>
	<path class="st35" d="M18.7,13.7c-0.1,0-0.2-0.1-0.3-0.2c-0.1-0.2,0-0.4,0.1-0.5l1.7-1c0.2-0.1,0.4,0,0.5,0.1
		c0.1,0.2,0,0.4-0.1,0.5l-1.7,1C18.8,13.7,18.7,13.7,18.7,13.7z"/>
	<path class="st35" d="M22.1,11.7c-0.1,0-0.2-0.1-0.3-0.2c-0.1-0.2,0-0.4,0.1-0.5l1.7-1c0.2-0.1,0.4,0,0.5,0.1
		c0.1,0.2,0,0.4-0.1,0.5l-1.7,1C22.2,11.6,22.2,11.7,22.1,11.7z"/>
	<path class="st35" d="M35.4,9.8C35.4,9.8,35.4,9.8,35.4,9.8l-2-0.2c-0.2,0-0.3-0.2-0.3-0.4c0-0.2,0.2-0.3,0.4-0.3l2,0.2
		c0.2,0,0.3,0.2,0.3,0.4C35.7,9.7,35.6,9.8,35.4,9.8z"/>
	<path class="st35" d="M25.5,9.6c-0.1,0-0.2-0.1-0.3-0.2c-0.1-0.2,0-0.4,0.1-0.5l0.4-0.2c0.4-0.3,1-0.4,1.5-0.3l0.2,0
		c0.2,0,0.3,0.2,0.3,0.4c0,0.2-0.2,0.3-0.4,0.3l-0.2,0c-0.4,0-0.8,0.1-1.1,0.3l-0.4,0.2C25.7,9.6,25.6,9.6,25.5,9.6z"/>
	<path class="st35" d="M31.4,9.5C31.4,9.5,31.4,9.5,31.4,9.5l-2-0.2c-0.2,0-0.3-0.2-0.3-0.4c0-0.2,0.2-0.3,0.4-0.3l2,0.2
		c0.2,0,0.3,0.2,0.3,0.4C31.7,9.3,31.6,9.5,31.4,9.5z"/>
	<g>
		<linearGradient id="SVGID_37_" gradientUnits="userSpaceOnUse" x1="16.3411" y1="28.4523" x2="42.2862" y2="28.4523">
			<stop  offset="0" style="stop-color:#FEAC11"/>
			<stop  offset="1" style="stop-color:#E74D08"/>
		</linearGradient>
		<path class="st36" d="M21.5,30.6c-1.1,0-2.1-0.2-2.8-0.6c-0.8-0.4-1.4-1-1.8-1.8c-0.4-0.8-0.6-1.7-0.6-2.7c0-1.5,0.2-2.9,0.7-4.1
			c0.5-1.2,1.2-2.2,2.1-2.9c0.9-0.7,2-1.1,3.3-1.1c1.1,0,2.1,0.2,2.8,0.6c0.8,0.4,1.4,1,1.8,1.8c0.4,0.8,0.6,1.7,0.6,2.7
			c0,1.6-0.2,3-0.7,4.2c-0.5,1.2-1.2,2.2-2.1,2.9C24,30.3,22.8,30.6,21.5,30.6z M21.5,27.7c0.6,0,1-0.3,1.4-0.8
			c0.4-0.5,0.7-1.2,0.8-2c0.2-0.8,0.3-1.6,0.3-2.5c0-0.8-0.1-1.4-0.4-1.7c-0.3-0.3-0.6-0.5-1.1-0.5c-0.6,0-1,0.3-1.4,0.8
			c-0.4,0.5-0.7,1.2-0.8,2c-0.2,0.8-0.3,1.6-0.3,2.5c0,0.8,0.1,1.4,0.4,1.7C20.6,27.5,21,27.7,21.5,27.7z M22.8,40.3l-2.7-1.9
			l15.7-21.8l2.7,1.9L22.8,40.3z M36.1,39.6c-1.1,0-2.1-0.2-2.8-0.6c-0.8-0.4-1.4-1-1.8-1.8c-0.4-0.8-0.6-1.7-0.6-2.7
			c0-1.5,0.2-2.9,0.7-4.1c0.5-1.2,1.2-2.2,2.1-2.9c0.9-0.7,2-1.1,3.3-1.1c1.1,0,2.1,0.2,2.8,0.6c0.8,0.4,1.4,1,1.8,1.8
			s0.6,1.7,0.6,2.8c0,1.5-0.2,2.9-0.7,4.1c-0.5,1.2-1.2,2.2-2.1,2.9C38.5,39.2,37.4,39.6,36.1,39.6z M36,36.7c0.6,0,1-0.3,1.4-0.8
			c0.4-0.5,0.7-1.2,0.9-2c0.2-0.8,0.3-1.6,0.3-2.5c0-0.8-0.1-1.4-0.4-1.7c-0.3-0.3-0.6-0.5-1.1-0.5c-0.6,0-1.1,0.3-1.4,0.8
			c-0.4,0.5-0.7,1.2-0.9,2c-0.2,0.8-0.3,1.6-0.3,2.5c0,0.8,0.1,1.4,0.4,1.7C35.2,36.5,35.6,36.7,36,36.7z"/>
	</g>
</g>
</svg>
