<?xml version="1.0" encoding="utf-8"?>
<!-- Generator: Adobe Illustrator 24.3.0, SVG Export Plug-In . SVG Version: 6.00 Build 0)  -->
<svg version="1.1" id="Layer_1" xmlns="http://www.w3.org/2000/svg" xmlns:xlink="http://www.w3.org/1999/xlink" x="0px" y="0px"
	 viewBox="0 0 250 92" style="enable-background:new 0 0 250 92;" xml:space="preserve">
<style type="text/css">
	.st0{fill-rule:evenodd;clip-rule:evenodd;fill:#FF9900;}
	.st1{fill-rule:evenodd;clip-rule:evenodd;}
</style>
<path class="st0" d="M153.5,66.1c-13.8,10.2-33.9,15.6-51.1,15.6c-24.2,0-46-8.9-62.4-23.8c-1.3-1.2-0.1-2.8,1.4-1.9
	c17.8,10.3,39.8,16.6,62.5,16.6c15.3,0,32.2-3.2,47.6-9.7C153.8,61.8,155.7,64.4,153.5,66.1"/>
<path class="st0" d="M159.2,59.5c-1.8-2.3-11.7-1.1-16.1-0.5c-1.4,0.2-1.6-1-0.3-1.9c7.9-5.6,20.9-4,22.4-2.1
	c1.5,1.9-0.4,14.9-7.8,21.1c-1.1,1-2.2,0.4-1.7-0.8C157.2,71.1,161,61.7,159.2,59.5"/>
<path class="st1" d="M143.4,17.8v-5.4c0-0.8,0.6-1.4,1.4-1.4h24.2c0.8,0,1.4,0.6,1.4,1.4v4.6c0,0.8-0.7,1.8-1.8,3.4L156,38.3
	c4.7-0.1,9.6,0.6,13.8,3c1,0.5,1.2,1.3,1.3,2.1v5.8c0,0.8-0.9,1.7-1.8,1.2c-7.4-3.9-17.3-4.3-25.6,0c-0.8,0.5-1.7-0.5-1.7-1.2v-5.5
	c0-0.9,0-2.4,0.9-3.7l14.5-20.8h-12.6C144,19.2,143.4,18.6,143.4,17.8 M55.1,51.5h-7.4c-0.7-0.1-1.3-0.6-1.3-1.3V12.5
	c0-0.8,0.6-1.4,1.4-1.4h6.9c0.7,0,1.3,0.6,1.3,1.3v4.9h0.1c1.8-4.8,5.2-7,9.7-7c4.6,0,7.5,2.2,9.6,7c1.8-4.8,5.8-7,10.2-7
	c3.1,0,6.5,1.3,8.5,4.1c2.3,3.2,1.9,7.8,1.9,11.8l0,23.8c0,0.8-0.6,1.4-1.4,1.4h-7.4c-0.7-0.1-1.3-0.6-1.3-1.4v-20
	c0-1.6,0.1-5.6-0.2-7.1c-0.5-2.5-2.2-3.3-4.3-3.3c-1.8,0-3.6,1.2-4.4,3.1c-0.8,1.9-0.7,5.1-0.7,7.2v20c0,0.8-0.6,1.4-1.4,1.4h-7.4
	c-0.7-0.1-1.3-0.6-1.3-1.4l0-20c0-4.2,0.7-10.4-4.5-10.4c-5.3,0-5.1,6-5.1,10.4v20C56.5,50.9,55.9,51.5,55.1,51.5 M191.2,10.4
	c10.9,0,16.8,9.4,16.8,21.3c0,11.5-6.5,20.7-16.8,20.7c-10.7,0-16.6-9.4-16.6-21.1C174.6,19.5,180.5,10.4,191.2,10.4 M191.2,18.1
	c-5.4,0-5.8,7.4-5.8,12c0,4.6-0.1,14.5,5.7,14.5c5.7,0,6-8,6-12.8c0-3.2-0.1-7-1.1-10C195.2,19.1,193.6,18.1,191.2,18.1 M222.2,51.5
	h-7.3c-0.7-0.1-1.3-0.6-1.3-1.4l0-37.8c0.1-0.7,0.7-1.2,1.4-1.2h6.8c0.6,0,1.2,0.5,1.3,1.1V18h0.1c2.1-5.2,4.9-7.6,10-7.6
	c3.3,0,6.5,1.2,8.6,4.5c1.9,3,1.9,8.1,1.9,11.8v23.8c-0.1,0.7-0.7,1.2-1.4,1.2H235c-0.7-0.1-1.2-0.5-1.3-1.2V29.8
	c0-4.1,0.5-10.2-4.6-10.2c-1.8,0-3.4,1.2-4.3,3c-1,2.3-1.2,4.6-1.2,7.2v20.3C223.6,50.9,223,51.5,222.2,51.5 M124.1,33.5
	c0,2.9,0.1,5.3-1.4,7.8c-1.2,2.1-3,3.3-5.1,3.3c-2.8,0-4.5-2.2-4.5-5.3c0-6.3,5.6-7.4,11-7.4L124.1,33.5 M131.5,51.4
	c-0.5,0.4-1.2,0.5-1.7,0.2c-2.4-2-2.9-3-4.2-4.9c-4,4.1-6.9,5.4-12.1,5.4c-6.2,0-11-3.8-11-11.5c0-6,3.2-10,7.8-12
	c4-1.8,9.6-2.1,13.8-2.6v-1c0-1.7,0.1-3.8-0.9-5.3c-0.9-1.4-2.6-1.9-4.1-1.9c-2.8,0-5.3,1.4-5.9,4.4c-0.1,0.7-0.6,1.3-1.3,1.3
	l-7.1-0.8c-0.6-0.1-1.3-0.6-1.1-1.5c1.6-8.7,9.5-11.3,16.5-11.3c3.6,0,8.3,1,11.1,3.7c3.6,3.3,3.2,7.8,3.2,12.7v11.5
	c0,3.4,1.4,5,2.8,6.8c0.5,0.7,0.6,1.5,0,2C135.7,47.8,133,50.2,131.5,51.4L131.5,51.4 M27.6,33.5c0,2.9,0.1,5.3-1.4,7.8
	c-1.2,2.1-3,3.3-5.1,3.3c-2.8,0-4.5-2.2-4.5-5.3c0-6.3,5.6-7.4,10.9-7.4V33.5 M35,51.4c-0.5,0.4-1.2,0.5-1.7,0.2
	c-2.4-2-2.9-3-4.2-4.9c-4,4.1-6.9,5.4-12.1,5.4c-6.2,0-11-3.8-11-11.5c0-6,3.2-10,7.8-12c4-1.8,9.6-2.1,13.8-2.6v-1
	c0-1.7,0.1-3.8-0.9-5.3c-0.9-1.4-2.6-1.9-4.1-1.9c-2.8,0-5.3,1.4-5.9,4.4c-0.1,0.7-0.6,1.3-1.3,1.3l-7.1-0.8
	c-0.6-0.1-1.3-0.6-1.1-1.5C8.8,12.6,16.6,10,23.6,10c3.6,0,8.3,1,11.1,3.7c3.6,3.3,3.2,7.8,3.2,12.7v11.5c0,3.4,1.4,5,2.8,6.8
	c0.5,0.7,0.6,1.5,0,2C39.2,47.8,36.5,50.2,35,51.4L35,51.4"/>
</svg>
