<?xml version="1.0" encoding="utf-8"?>
<!-- Generator: Adobe Illustrator 24.3.0, SVG Export Plug-In . SVG Version: 6.00 Build 0)  -->
<svg version="1.1" id="Layer_1" xmlns="http://www.w3.org/2000/svg" xmlns:xlink="http://www.w3.org/1999/xlink" x="0px" y="0px"
	 viewBox="0 0 250 149" style="enable-background:new 0 0 250 149;" xml:space="preserve">
<style type="text/css">
	.st0{fill-rule:evenodd;clip-rule:evenodd;fill:#196BDE;}
</style>
<path class="st0" d="M50.2,86.6v48.7h-3.3V86.6H50.2z M17.1,86.6v20.9c2.8-2.5,6.5-3.9,10.3-4c6.9,0,13.5,4.7,13.5,16.1
	c0,11.8-7.5,16.2-15.4,16.2c-4.1,0-8.2-1.1-11.8-3.2v-46H17.1z M104.2,103.7h0.6c8.2,0.2,13.8,6.7,13,16.2l-0.1,0.6H92.8
	c-0.1,3.3,1.2,6.4,3.5,8.7c2.3,2.3,5.4,3.6,8.7,3.5c0.2,0,0.4,0,0.6,0c2.9,0,5.8-0.8,8.4-2.1l0.6-0.3l1.2,2.9
	c-3.2,1.7-6.7,2.7-10.3,2.7c-0.3,0-0.5,0-0.8,0c-10.4-0.3-15.7-8.5-15.4-17.3c-0.1-3.9,1.4-7.8,4.2-10.6
	C96.5,105.2,100.3,103.6,104.2,103.7z M224.5,104.1V93.6l-3.4,0v10.5h-5.5v2.9h5.5v17.3c0,8,4.4,11.4,10,11.4c2.4,0,4.7-0.5,6.9-1.4
	l-1-3.1c-1.8,0.9-3.8,1.3-5.8,1.2c-4.5-0.2-6.6-3.4-6.6-8.5v-17.1h10.3v-2.9H224.5z M170.6,103.6c8,0,14.9,6,14.9,16.1
	c0,10.3-6.9,16.1-14.9,16.1c-8.9,0-14.9-7.2-14.9-16.1C155.7,110.2,162.3,103.6,170.6,103.6z M61.7,123.1v-19l-3.4,0v19.4
	c0,9.5,4.7,12.3,9.6,12.3c4.7-0.1,9.1-2.6,11.8-6.5v6H83v-31.2h-3.5v21.6c-2.9,4.3-6.6,6.8-10.7,6.8
	C65.3,132.6,61.7,130.5,61.7,123.1z M202,103.7c3,0,6,0.8,8.6,2.3l-1.3,2.7c-2.2-1.2-4.7-1.8-7.2-1.8c-5.1,0-7.4,2.5-7.4,5.2
	c0,3.1,3.2,4.4,7.4,6.1c0.4,0.2,0.8,0.3,1.1,0.5c7.5,2.9,9,6.3,9,9.2c0,4.9-4.5,8-10.6,8c-3.5,0-6.9-1-9.8-2.8l1.5-3
	c2.4,1.7,5.3,2.6,8.3,2.6c3.2,0,7.3-1.4,7.2-4.6c0-2.8-3-5-7.7-6.9c-5.3-2.1-9.9-4.1-9.9-9S195.9,103.7,202,103.7L202,103.7z
	 M128.9,110.2V86.6h-3.4v48.7h3.4v-21.4c2.1-3.5,6.1-7.1,10.6-7c3.7,0,7.2,2.4,7.2,9.2v19.3h3.4v-20c0-7-3.6-11.7-9.8-11.7
	C135.6,103.8,131.3,106.2,128.9,110.2z M17.1,111.6c2.5-2.9,6.1-4.7,9.9-4.9c5.8,0,10.4,4.7,10.4,12.9c0,9.3-5.9,13.1-12.2,13.1
	c-2.8,0-5.6-0.7-8.1-2V111.6z M170.6,106.8c-7.4,0-11.4,5.9-11.4,12.8c0,6.9,4,12.9,11.4,12.9c7.2,0,11.5-6,11.5-12.9
	C182,112.7,177.8,106.8,170.6,106.8z M93,117.1c0.4-5.8,5.2-10.3,11-10.3c0.1,0,0.3,0,0.4,0c2.8,0.1,5.4,1.2,7.3,3.3
	c1.9,2,2.9,4.8,2.7,7.5H93L93,117.1z M104.1,106.8L104.1,106.8L104.1,106.8C104.1,106.8,104.1,106.8,104.1,106.8z"/>
<path class="st0" d="M151,33.4V18.8h-14.5v14.6H151z M151,37.7v14.6h-14.5V37.7H151z M113.5,71.3V56.6H99v14.6H113.5z M132.2,56.6
	v14.6h-14.5V56.6H132.2z M151,56.6v14.6h-14.5V56.6H151z M132.2,52.3V37.7h-14.5v14.6H132.2z M113.5,37.7v14.6H99V37.7H113.5z
	 M132.2,18.8v14.6h-14.5V18.8H132.2z M113.5,33.4V18.8H99v14.6H113.5z"/>
</svg>
