<?xml version="1.0" encoding="utf-8"?>
<!-- Generator: Adobe Illustrator 24.3.0, SVG Export Plug-In . SVG Version: 6.00 Build 0)  -->
<svg version="1.1" id="Layer_1" xmlns="http://www.w3.org/2000/svg" xmlns:xlink="http://www.w3.org/1999/xlink" x="0px" y="0px"
	 viewBox="0 0 250 157" style="enable-background:new 0 0 250 157;" xml:space="preserve">
<style type="text/css">
	.st0{fill-rule:evenodd;clip-rule:evenodd;fill:#0C3678;}
	.st1{fill-rule:evenodd;clip-rule:evenodd;fill:#20A8E0;}
	.st2{fill-rule:evenodd;clip-rule:evenodd;fill:#02000D;}
	.st3{fill-rule:evenodd;clip-rule:evenodd;fill:#FFFFFF;}
</style>
<g>
	<g>
		<path class="st0" d="M147.3,136.9c-5.7,3.8-12.9,0.8-14.5-5.9c-0.8-3.3-0.6-6.5,1-9.5c1.9-3.5,5.4-4.9,8.9-4.7
			c1.8,0.1,3.5,0.6,5,1.9c0.2,0.2,0.3,0.2,0.4-0.1c0.5-1,1.4-1.3,2.5-1.3c0.8,0,1.5,0,2.3,0c0.6,0,0.6,0.2,0.6,0.7
			c0,6.6,0,13.1-0.1,19.7c0,0.4,0,0.7-0.1,1.1c-0.6,4.3-3.2,6.9-7.3,8.1c-4,1.1-7.8,0.6-11.5-1.2c-0.4-0.2-0.5-0.4-0.3-0.8
			c0.4-0.9,0.7-1.8,1.1-2.6c0.5-1.2,1.2-1.5,2.4-1.1c1.6,0.5,3.1,0.9,4.8,0.8c0.5,0,1-0.1,1.6-0.2
			C146.4,141,147.6,139.2,147.3,136.9L147.3,136.9z M147.5,127.6c0-0.7,0-1.3-0.2-2c-0.4-2-1.7-3.2-3.6-3.4
			c-2.4-0.2-3.9,0.7-4.6,2.8c-0.6,2-0.5,4,0.4,5.8c0.8,1.6,2.4,2.4,4.2,2.2c1.9-0.2,3-1.2,3.5-3
			C147.4,129.3,147.5,128.5,147.5,127.6L147.5,127.6z M12.4,118.1c0-0.7,0-1.4,0-2.1c0-1.4,0.6-2.1,2-2.1c0.8,0,1.6,0,2.4,0
			c2.2,0,3.4,1.2,3.5,3.3c0.1,2.1-1.2,3.7-3.3,3.8c-1.4,0.1-2.9,0-4.3,0c-0.4,0-0.4-0.2-0.4-0.5C12.4,119.8,12.4,119,12.4,118.1
			L12.4,118.1z M12.4,130.4c0-0.9,0-1.8,0-2.8c0-1.3,0.7-1.9,1.9-1.9c1.1,0,2.2,0,3.3,0c2.2,0,3.8,1.6,3.8,3.9
			c0,2.5-1.4,4.1-3.7,4.1c-1.6,0-3.2,0-4.7,0c-0.4,0-0.5-0.1-0.5-0.5C12.5,132.3,12.4,131.4,12.4,130.4L12.4,130.4z M45.7,128.1
			c-0.1,2.2-0.7,4.1-2.7,5.3c-3.2,1.8-7.1-0.2-7.7-3.9c-0.2-1.2-0.2-2.4,0.2-3.5c0.7-2.5,2.6-3.8,5.2-3.8c2.2,0,4.2,1.7,4.8,4
			C45.6,126.8,45.7,127.5,45.7,128.1L45.7,128.1z M69.9,128.1c0,0.7-0.1,1.4-0.3,2c-0.6,2.4-2.5,3.9-4.9,3.9c-2.4,0-4.3-1.4-5-3.8
			c-0.6-2.1-0.5-4.2,0.9-6c1.2-1.7,2.9-2.3,4.9-2c2.2,0.3,3.5,1.7,4.1,3.8C69.8,126.7,69.9,127.4,69.9,128.1L69.9,128.1z M23,123.1
			c0.3-0.3,0.6-0.5,0.8-0.7c3-2.6,3.3-7.5,0.7-10.5c-1.6-1.9-3.8-2.7-6.1-2.8c-2.9-0.2-5.9-0.1-8.8-0.1c-1.6,0-2.9,1.4-2.9,3.1
			c0,8.7,0,17.4,0,26.1c0,0.5,0.2,0.6,0.6,0.6c3.4,0,6.8,0,10.2,0c1.1,0,2.3-0.2,3.4-0.5c6.1-1.7,7.4-7,6.1-11
			C26.3,125.4,25,124,23,123.1L23,123.1z M51.7,127.9c0-6.3-4.8-11-11.2-11c-6.7,0-11.5,4.7-11.4,11.2c0,6.5,4.8,11.2,11.4,11.2
			C47.2,139.3,51.9,134.3,51.7,127.9L51.7,127.9z M53.3,128.1c0,6.4,4.7,11.2,11,11.3c6.8,0,11.6-4.6,11.6-11.1
			c0-6.6-4.7-11.4-11.2-11.4C58.1,116.9,53.3,121.5,53.3,128.1L53.3,128.1z M98.2,138.9c-1.9,0-3.7,0-5.6,0c-1.3,0-2.2-0.8-2.8-1.9
			c-0.8-1.6-1.7-3.1-2.5-4.7c-0.2-0.5-0.5-0.9-0.7-1.4c-0.4-0.7-1.1-1-1.9-0.9c-0.4,0.1-0.2,0.4-0.3,0.6c0,2.5,0,5.1,0,7.6
			c0,0.7-0.2,0.9-0.9,0.8c-1.6,0-3.3,0-4.9,0c-0.4,0-0.5-0.1-0.5-0.5c0-9.6,0-19.3,0-28.9c0-0.4,0.1-0.6,0.6-0.6
			c1.1,0,2.1-0.1,3.2,0.1c1.8,0.2,2.5,1,2.5,2.8c0,4,0,8,0,12c0,0.7,0.2,0.8,0.8,0.8c0.9,0,1.5-0.3,2-1.1c1.2-1.9,2.5-3.8,3.7-5.7
			c0.2-0.4,0.4-0.5,0.9-0.5c2.1,0,4.2,0,6.3,0c0.1,0.1,0,0.2,0,0.3c-1.9,2.9-3.9,5.7-5.8,8.6c-0.2,0.4-0.8,0.7-0.8,1
			c0,0.3,0.5,0.7,0.7,1.1c1.8,3.6,3.9,7,6,10.5C98.2,138.8,98.2,138.8,98.2,138.9L98.2,138.9z M100.1,128.1c0-3.4,0-6.8,0-10.2
			c0-0.5,0.1-0.7,0.7-0.7c1,0.1,2.1-0.1,3.1,0.1c1.4,0.2,2.3,1.1,2.4,2.5c0,0.3,0,0.5,0,0.8c0,5.9,0,11.7,0,17.6
			c0,0.6-0.2,0.8-0.8,0.7c-1.6,0-3.1,0-4.7,0c-0.6,0-0.7-0.2-0.7-0.8C100.1,134.8,100.1,131.5,100.1,128.1
			C100.1,128.1,100.1,128.1,100.1,128.1L100.1,128.1z M106.5,111.7c0,2-1.6,3.6-3.6,3.6c-2,0-3.6-1.6-3.6-3.7c0-2,1.6-3.6,3.6-3.6
			C105,108,106.5,109.6,106.5,111.7L106.5,111.7z M115.9,119.7c1.2-1.3,2.6-2.2,4.3-2.6c1.9-0.4,3.7-0.4,5.5,0.2
			c2.4,0.9,3.7,2.7,4.2,5.2c0.2,0.9,0.3,1.8,0.3,2.7c0,4.4,0,8.8,0,13.1c0,0.5-0.1,0.7-0.6,0.7c-0.8,0-1.7,0-2.5,0
			c-2.1,0-3.1-1-3.1-3.1c0-3.2,0-6.4,0-9.6c0-0.7-0.1-1.4-0.2-2c-0.3-0.9-0.9-1.5-1.9-1.6c-2.6-0.3-4.9,1.3-5.6,4.1
			c-0.2,0.7-0.3,1.4-0.3,2.2c0,3.1,0,6.3,0,9.4c0,0.5-0.1,0.6-0.6,0.6c-1.7,0-3.3,0-5,0c-0.4,0-0.6-0.1-0.6-0.6c0-6.8,0-13.7,0-20.5
			c0-0.5,0.1-0.6,0.6-0.6c1,0.1,1.9-0.1,2.9,0.1c1.3,0.2,2.2,0.8,2.5,2.1C115.8,119.6,115.9,119.6,115.9,119.7z"/>
		<path class="st1" d="M216.3,120c0.4-0.4,0.6-0.7,0.9-1c2.3-2.1,4.9-2.7,7.9-1.8c1.4,0.4,2.5,1.4,3.2,2.7c0.4,0.7,0.4,0.7,0.8,0.1
			c2.3-2.8,6-3.9,9.4-2.8c2.4,0.8,3.6,2.6,4.1,5c0.2,0.9,0.3,1.9,0.3,2.8c0,4.4,0,8.8,0,13.1c0,0.6-0.1,0.7-0.7,0.7
			c-0.8,0-1.6,0-2.4,0c-1.8,0-2.8-1-2.8-2.8c0-3.3,0-6.7,0-10c0-0.5,0-1-0.1-1.4c-0.2-1.9-1.4-2.6-3.2-2.2c-1.9,0.5-2.9,1.9-3.5,3.6
			c-0.4,1-0.6,2.1-0.5,3.2c0,3,0,6,0,9c0,0.5-0.1,0.6-0.6,0.6c-1.6,0-3.2,0-4.8,0c-0.5,0-0.6-0.1-0.6-0.6c0-4,0-8.1,0-12.1
			c0-0.5,0-1-0.1-1.5c-0.3-2-2-2.9-3.9-2.1c-1.2,0.5-1.9,1.4-2.4,2.5c-0.6,1.3-0.9,2.7-1,4.2c0,3,0,6,0,9c0,0.5-0.1,0.6-0.6,0.6
			c-1.6,0-3.2,0-4.8,0c-0.4,0-0.6,0-0.6-0.5c0-6.8,0-13.7,0-20.5c0-0.4,0.1-0.5,0.5-0.5c0.6,0,1.2,0,1.8,0
			C214.9,117.4,215.5,117.8,216.3,120L216.3,120z M191.7,128.1c0.1-2.2,0.7-4.1,2.7-5.3c3.2-1.8,7,0.1,7.6,3.9
			c0.4,2.1,0.1,4.1-1.4,5.8c-1.4,1.5-3.2,1.9-5.1,1.4c-2-0.5-3.1-2-3.7-3.9C191.7,129.3,191.7,128.7,191.7,128.1L191.7,128.1z
			 M159.5,139.2c-2,0-3.6-1.7-3.5-3.7c0-2,1.7-3.6,3.7-3.5c2,0.1,3.5,1.7,3.5,3.7C163.2,137.7,161.5,139.3,159.5,139.2L159.5,139.2z
			 M181.9,124.8c-0.3,0-0.6,0-0.9,0c-1.4,0-2-0.3-2.5-1.7c-0.2-0.5-0.6-0.7-1-0.8c-1.9-0.7-4.4,0-5.8,1.6c-2.3,2.7-1.9,7.3,0.9,9.1
			c2.1,1.4,4.4,1.4,6.7,0.4c1-0.5,2-1.1,2.8-2c0.4-0.4,0.5-0.3,0.7,0.1c0.6,1.1,1.3,2.2,2,3.3c0.2,0.4,0.2,0.6-0.1,1
			c-2.8,2.7-6.2,3.9-10,3.6c-2.8-0.2-5.2-1.2-7.2-3.2c-2.3-2.3-3.3-5.2-3.2-8.4c0.2-7.3,6.3-11.5,13-10.9c1.6,0.2,3.2,0.5,4.6,1.4
			c1.5,0.9,2.2,2.2,2.2,3.9c0,0.7,0,1.4,0,2c0,0.4-0.1,0.5-0.5,0.4C183,124.8,182.4,124.8,181.9,124.8L181.9,124.8z M185.6,128
			c0,6.5,4.7,11.3,11,11.3c6.8,0,11.6-4.6,11.6-11.2c0-6.5-4.7-11.3-11.3-11.3C190.3,116.9,185.6,121.5,185.6,128z"/>
	</g>
	<g>
		<path class="st0" d="M101,16.4h47.6c7.2,0,13.1,5.7,13.1,12.9v47.2c0,7.2-5.9,13.2-13.1,13.2H87.9l0-60.4
			C87.9,22.1,93.8,16.4,101,16.4z"/>
		<g>
			<path class="st2" d="M127.6,52c2.4,1.1,4,2.8,4.8,5.2c1.5,4.8,0,11.2-7.4,13.2c-1.3,0.4-2.7,0.6-4.1,0.6c-4.1,0-8.2,0-12.2,0
				c-0.6,0-0.8-0.1-0.8-0.7c0-10.5,0-20.9,0-31.4c0-2,1.5-3.8,3.5-3.8c3.5,0,7-0.2,10.6,0.1c2.9,0.2,5.4,1.2,7.4,3.4
				c3.1,3.6,2.7,9.5-0.8,12.6C128.3,51.4,128,51.7,127.6,52L127.6,52z M140.8,62.6c2.4,0,4.4,2,4.4,4.4c0,2.4-2,4.4-4.4,4.4
				c-2.4,0-4.4-2-4.4-4.4C136.4,64.6,138.4,62.6,140.8,62.6L140.8,62.6z M114.9,60.8c0,1.2,0,2.3,0,3.5c0,0.5,0.1,0.6,0.6,0.6
				c1.9,0,3.8,0,5.7,0c2.8,0,4.5-2,4.5-4.9c0-2.8-1.8-4.7-4.5-4.7c-1.3,0-2.6,0-4,0c-1.5,0-2.3,0.8-2.3,2.3
				C114.9,58.6,114.9,59.7,114.9,60.8L114.9,60.8z M114.9,46c0,1,0,2,0,3c0,0.3,0,0.5,0.5,0.5c1.7,0,3.4,0.1,5.2,0
				c2.5-0.1,4-2,3.9-4.5c-0.1-2.5-1.6-4-4.2-4c-1,0-1.9,0-2.9,0c-1.7,0-2.4,0.8-2.4,2.5C114.9,44.3,114.9,45.2,114.9,46z"/>
			<path class="st3" d="M127.6,51.8c2.4,1.1,4,2.8,4.8,5.2c1.5,4.8,0,11.2-7.4,13.2c-1.3,0.4-2.7,0.6-4.1,0.6c-4.1,0-8.2,0-12.2,0
				c-0.6,0-0.8-0.1-0.8-0.7c0-10.5,0-20.9,0-31.4c0-2,1.5-3.8,3.5-3.8c3.5,0,7-0.2,10.6,0.1c2.9,0.2,5.4,1.2,7.4,3.4
				c3.1,3.6,2.7,9.5-0.8,12.6C128.3,51.2,128,51.4,127.6,51.8L127.6,51.8z M114.9,60.5c0,1.2,0,2.3,0,3.5c0,0.5,0.1,0.6,0.6,0.6
				c1.9,0,3.8,0,5.7,0c2.8,0,4.5-2,4.5-4.9c0-2.8-1.8-4.7-4.5-4.7c-1.3,0-2.6,0-4,0c-1.5,0-2.3,0.8-2.3,2.3
				C114.9,58.3,114.9,59.4,114.9,60.5L114.9,60.5z M114.9,45.8c0,1,0,2,0,3c0,0.3,0,0.5,0.5,0.5c1.7,0,3.4,0.1,5.2,0
				c2.5-0.1,4-2,3.9-4.5c-0.1-2.5-1.6-4-4.2-4c-1,0-1.9,0-2.9,0c-1.7,0-2.4,0.8-2.4,2.5C114.9,44.1,114.9,44.9,114.9,45.8z"/>
			<path class="st1" d="M140.8,71.2c2.4,0,4.4-2,4.4-4.4c0-2.4-2-4.4-4.4-4.4c-2.4,0-4.4,2-4.4,4.4
				C136.4,69.2,138.4,71.2,140.8,71.2z"/>
		</g>
	</g>
</g>
</svg>
