<?xml version="1.0" encoding="utf-8"?>
<!-- Generator: Adobe Illustrator 24.3.0, SVG Export Plug-In . SVG Version: 6.00 Build 0)  -->
<svg version="1.1" id="Layer_1" xmlns="http://www.w3.org/2000/svg" xmlns:xlink="http://www.w3.org/1999/xlink" x="0px" y="0px"
	 viewBox="0 0 250 92" style="enable-background:new 0 0 250 92;" xml:space="preserve">
<style type="text/css">
	.st0{fill-rule:evenodd;clip-rule:evenodd;fill:#FF9900;}
	.st1{fill-rule:evenodd;clip-rule:evenodd;}
	.st2{fill:#FF0000;}
	.st3{fill:#FFFFFF;}
	.st4{fill:#282828;}
</style>
<path class="st0" d="M148.5-119.9c-13.8,10.2-33.9,15.6-51.1,15.6c-24.2,0-46-8.9-62.4-23.8c-1.3-1.2-0.1-2.8,1.4-1.9
	c17.8,10.3,39.8,16.6,62.5,16.6c15.3,0,32.2-3.2,47.6-9.7C148.8-124.2,150.7-121.6,148.5-119.9"/>
<path class="st0" d="M154.2-126.5c-1.8-2.3-11.7-1.1-16.1-0.5c-1.4,0.2-1.6-1-0.3-1.9c7.9-5.6,20.9-4,22.4-2.1
	c1.5,1.9-0.4,14.9-7.8,21.1c-1.1,1-2.2,0.4-1.7-0.8C152.2-114.9,156-124.3,154.2-126.5"/>
<path class="st1" d="M138.4-168.2v-5.4c0-0.8,0.6-1.4,1.4-1.4h24.2c0.8,0,1.4,0.6,1.4,1.4v4.6c0,0.8-0.7,1.8-1.8,3.4L151-147.7
	c4.7-0.1,9.6,0.6,13.8,3c1,0.5,1.2,1.3,1.3,2.1v5.8c0,0.8-0.9,1.7-1.8,1.2c-7.4-3.9-17.3-4.3-25.6,0c-0.8,0.5-1.7-0.5-1.7-1.2v-5.5
	c0-0.9,0-2.4,0.9-3.7l14.5-20.8h-12.6C139-166.8,138.4-167.4,138.4-168.2 M50.1-134.5h-7.4c-0.7-0.1-1.3-0.6-1.3-1.3v-37.8
	c0-0.8,0.6-1.4,1.4-1.4h6.9c0.7,0,1.3,0.6,1.3,1.3v4.9h0.1c1.8-4.8,5.2-7,9.7-7c4.6,0,7.5,2.2,9.6,7c1.8-4.8,5.8-7,10.2-7
	c3.1,0,6.5,1.3,8.5,4.1c2.3,3.2,1.9,7.8,1.9,11.8l0,23.8c0,0.8-0.6,1.4-1.4,1.4h-7.4c-0.7-0.1-1.3-0.6-1.3-1.4v-20
	c0-1.6,0.1-5.6-0.2-7.1c-0.5-2.5-2.2-3.3-4.3-3.3c-1.8,0-3.6,1.2-4.4,3.1c-0.8,1.9-0.7,5.1-0.7,7.2v20c0,0.8-0.6,1.4-1.4,1.4h-7.4
	c-0.7-0.1-1.3-0.6-1.3-1.4l0-20c0-4.2,0.7-10.4-4.5-10.4c-5.3,0-5.1,6-5.1,10.4v20C51.5-135.1,50.9-134.5,50.1-134.5 M186.2-175.6
	c10.9,0,16.8,9.4,16.8,21.3c0,11.5-6.5,20.7-16.8,20.7c-10.7,0-16.6-9.4-16.6-21.1C169.6-166.5,175.5-175.6,186.2-175.6
	 M186.2-167.9c-5.4,0-5.8,7.4-5.8,12c0,4.6-0.1,14.5,5.7,14.5c5.7,0,6-8,6-12.8c0-3.2-0.1-7-1.1-10
	C190.2-166.9,188.6-167.9,186.2-167.9 M217.2-134.5h-7.3c-0.7-0.1-1.3-0.6-1.3-1.4l0-37.8c0.1-0.7,0.7-1.2,1.4-1.2h6.8
	c0.6,0,1.2,0.5,1.3,1.1v5.8h0.1c2.1-5.2,4.9-7.6,10-7.6c3.3,0,6.5,1.2,8.6,4.5c1.9,3,1.9,8.1,1.9,11.8v23.8
	c-0.1,0.7-0.7,1.2-1.4,1.2H230c-0.7-0.1-1.2-0.5-1.3-1.2v-20.5c0-4.1,0.5-10.2-4.6-10.2c-1.8,0-3.4,1.2-4.3,3
	c-1,2.3-1.2,4.6-1.2,7.2v20.3C218.6-135.1,218-134.5,217.2-134.5 M119.1-152.5c0,2.9,0.1,5.3-1.4,7.8c-1.2,2.1-3,3.3-5.1,3.3
	c-2.8,0-4.5-2.2-4.5-5.3c0-6.3,5.6-7.4,11-7.4L119.1-152.5 M126.5-134.6c-0.5,0.4-1.2,0.5-1.7,0.2c-2.4-2-2.9-3-4.2-4.9
	c-4,4.1-6.9,5.4-12.1,5.4c-6.2,0-11-3.8-11-11.5c0-6,3.2-10,7.8-12c4-1.8,9.6-2.1,13.8-2.6v-1c0-1.7,0.1-3.8-0.9-5.3
	c-0.9-1.4-2.6-1.9-4.1-1.9c-2.8,0-5.3,1.4-5.9,4.4c-0.1,0.7-0.6,1.3-1.3,1.3l-7.1-0.8c-0.6-0.1-1.3-0.6-1.1-1.5
	c1.6-8.7,9.5-11.3,16.5-11.3c3.6,0,8.3,1,11.1,3.7c3.6,3.3,3.2,7.8,3.2,12.7v11.5c0,3.4,1.4,5,2.8,6.8c0.5,0.7,0.6,1.5,0,2
	C130.7-138.2,128-135.8,126.5-134.6L126.5-134.6 M22.6-152.5c0,2.9,0.1,5.3-1.4,7.8c-1.2,2.1-3,3.3-5.1,3.3c-2.8,0-4.5-2.2-4.5-5.3
	c0-6.3,5.6-7.4,10.9-7.4V-152.5 M30-134.6c-0.5,0.4-1.2,0.5-1.7,0.2c-2.4-2-2.9-3-4.2-4.9c-4,4.1-6.9,5.4-12.1,5.4
	c-6.2,0-11-3.8-11-11.5c0-6,3.2-10,7.8-12c4-1.8,9.6-2.1,13.8-2.6v-1c0-1.7,0.1-3.8-0.9-5.3c-0.9-1.4-2.6-1.9-4.1-1.9
	c-2.8,0-5.3,1.4-5.9,4.4c-0.1,0.7-0.6,1.3-1.3,1.3l-7.1-0.8c-0.6-0.1-1.3-0.6-1.1-1.5c1.6-8.7,9.5-11.3,16.5-11.3
	c3.6,0,8.3,1,11.1,3.7c3.6,3.3,3.2,7.8,3.2,12.7v11.5c0,3.4,1.4,5,2.8,6.8c0.5,0.7,0.6,1.5,0,2C34.2-138.2,31.5-135.8,30-134.6
	L30-134.6"/>
<g id="g7433">
	<path id="path7429" class="st2" d="M82.1,29.1c-0.8-3.2-3.3-5.6-6.5-6.5C69.8,21,46.8,21,46.8,21s-23,0-28.8,1.5
		c-3.1,0.8-5.6,3.4-6.5,6.5C10,34.8,10,46.8,10,46.8s0,12,1.5,17.7c0.8,3.2,3.3,5.6,6.5,6.5c5.8,1.6,28.8,1.6,28.8,1.6
		s23,0,28.8-1.5c3.2-0.8,5.6-3.3,6.5-6.5c1.5-5.8,1.5-17.7,1.5-17.7S83.7,34.8,82.1,29.1L82.1,29.1z"/>
	<path id="polygon7431" class="st3" d="M39.5,35.7v22.1l19.2-11L39.5,35.7z"/>
</g>
<g id="g7451">
	<g id="g7449">
		<path id="path7435" class="st4" d="M116.9,67.9c-1.5-1-2.5-2.5-3.1-4.6c-0.6-2.1-0.9-4.9-0.9-8.2v-4.7c0-3.5,0.4-6.2,1-8.4
			c0.7-2.1,1.8-3.6,3.3-4.6c1.5-1,3.5-1.5,5.9-1.5c2.4,0,4.3,0.5,5.8,1.5c1.5,1,2.5,2.5,3.2,4.6c0.7,2.1,1,4.9,1,8.4v4.7
			c0,3.5-0.3,6.2-1,8.3c-0.7,2.1-1.7,3.6-3.2,4.6c-1.5,1-3.5,1.5-5.9,1.5C120.4,69.4,118.3,68.9,116.9,67.9L116.9,67.9z M125.1,62.8
			c0.4-1,0.6-2.8,0.6-5.2V47.6c0-2.3-0.2-4-0.6-5.1c-0.4-1.1-1.1-1.6-2.1-1.6c-1,0-1.7,0.5-2.1,1.6c-0.4,1.1-0.6,2.8-0.6,5.1v10.1
			c0,2.4,0.2,4.1,0.6,5.2c0.4,1,1.1,1.6,2.1,1.6C124,64.4,124.7,63.9,125.1,62.8z"/>
		<path id="path7437" class="st4" d="M228.8,55.1v1.6c0,2.1,0.1,3.6,0.2,4.7s0.4,1.8,0.8,2.2c0.4,0.5,1,0.7,1.8,0.7
			c1.1,0,1.8-0.4,2.2-1.3c0.4-0.8,0.6-2.2,0.7-4.2l6.2,0.4c0.1,0.3,0.1,0.7,0.1,1.2c0,3-0.8,5.2-2.4,6.7c-1.6,1.5-3.9,2.2-6.9,2.2
			c-3.6,0-6.1-1.2-7.5-3.4s-2.2-5.7-2.2-10.4v-5.6c0-4.9,0.7-8.4,2.2-10.6c1.5-2.2,4.1-3.3,7.6-3.3c2.5,0,4.4,0.5,5.8,1.4
			c1.3,0.9,2.2,2.4,2.8,4.2c0.5,1.9,0.8,4.6,0.8,8V55h-12.2V55.1z M229.7,41.6c-0.4,0.5-0.6,1.2-0.7,2.2c-0.1,1-0.2,2.6-0.2,4.7v2.3
			h5.3v-2.3c0-2.1-0.1-3.6-0.2-4.7c-0.1-1.1-0.4-1.8-0.8-2.2c-0.4-0.4-1-0.7-1.7-0.7C230.6,40.8,230.1,41.1,229.7,41.6L229.7,41.6z"
			/>
		<path id="path7439" class="st4" d="M99.2,54.5l-8.2-29.9h7.2l2.9,13.5c0.7,3.3,1.3,6.2,1.6,8.5h0.2c0.2-1.7,0.8-4.5,1.6-8.5
			l3-13.6h7.2l-8.4,29.9v14.3h-7.2L99.2,54.5L99.2,54.5z"/>
		<path id="path7441" class="st4" d="M156.5,36.6v32.3h-5.7l-0.6-3.9H150c-1.5,3-3.9,4.5-7,4.5c-2.1,0-3.7-0.7-4.7-2.1
			s-1.5-3.6-1.5-6.6V36.6h7.3v23.7c0,1.5,0.2,2.5,0.5,3.1s0.8,0.9,1.6,0.9c0.6,0,1.2-0.2,1.8-0.6c0.6-0.4,1-0.8,1.3-1.5V36.6H156.5z
			"/>
		<path id="path7443" class="st4" d="M193.8,36.6v32.3h-5.7l-0.6-3.9h-0.2c-1.5,3-3.9,4.5-7,4.5c-2.1,0-3.7-0.7-4.7-2.1
			s-1.5-3.6-1.5-6.6V36.6h7.3v23.7c0,1.5,0.2,2.5,0.5,3.1c0.3,0.6,0.8,0.9,1.6,0.9c0.6,0,1.2-0.2,1.8-0.6c0.6-0.4,1-0.8,1.3-1.5
			V36.6H193.8z"/>
		<path id="path7445" class="st4" d="M176.2,30.5H169v38.3h-7.1V30.5h-7.2v-5.9h21.5V30.5z"/>
		<path id="path7447" class="st4" d="M217.8,41.7c-0.4-2.1-1.2-3.5-2.1-4.4s-2.4-1.4-4.1-1.4c-1.3,0-2.6,0.4-3.8,1.2
			c-1.2,0.7-2.1,1.8-2.7,3h-0.1V23h-7v45.8h6l0.7-3h0.2c0.5,1.1,1.4,1.9,2.5,2.6c1.2,0.6,2.4,1,3.8,1c2.5,0,4.2-1.2,5.4-3.4
			c1.2-2.2,1.8-5.8,1.8-10.6v-5.1C218.4,46.6,218.3,43.7,217.8,41.7L217.8,41.7z M211.2,54.9c0,2.4-0.1,4.2-0.3,5.5
			c-0.2,1.3-0.5,2.3-1,2.8c-0.5,0.5-1.1,0.8-1.8,0.8c-0.6,0-1.2-0.1-1.6-0.4c-0.5-0.3-0.9-0.7-1.2-1.3V44.1c0.2-0.8,0.7-1.6,1.3-2.2
			c0.6-0.5,1.3-0.8,1.9-0.8c0.7,0,1.3,0.3,1.7,0.8c0.4,0.6,0.7,1.6,0.8,2.9c0.2,1.4,0.2,3.3,0.2,5.8L211.2,54.9L211.2,54.9z"/>
	</g>
</g>
</svg>
