<?xml version="1.0" encoding="utf-8"?>
<!-- Generator: Adobe Illustrator 24.3.0, SVG Export Plug-In . SVG Version: 6.00 Build 0)  -->
<svg version="1.1" id="Layer_1" xmlns="http://www.w3.org/2000/svg" xmlns:xlink="http://www.w3.org/1999/xlink" x="0px" y="0px"
	 viewBox="0 0 250 91" style="enable-background:new 0 0 250 91;" xml:space="preserve">
<style type="text/css">
	.st0{fill:#0B5CFF;}
</style>
<g>
	<path class="st0" d="M56.2,72.8H15.5c-2.7,0-5.2-1.4-6.5-3.8c-1.4-2.8-0.9-6.1,1.3-8.2l28.3-28.3H18.3c-5.6,0-10.1-4.6-10.1-10.1
		h37.5c2.7,0,5.2,1.4,6.5,3.8c1.4,2.8,0.9,6.1-1.3,8.2L22.6,62.7h23.5C51.7,62.7,56.2,67.3,56.2,72.8z M217.4,21.6
		c-5.8,0-11.1,2.5-14.7,6.6c-3.6-4-8.9-6.6-14.7-6.6c-10.8,0-19.7,9.2-19.7,20v31.2c5.6,0,10.1-4.5,10.1-10.1V41.5
		c0-5.2,4-9.6,9.2-9.8c5.5-0.2,10,4.2,10,9.6v21.4c0,5.6,4.5,10.1,10.1,10.1V41.5c0-5.2,4-9.6,9.2-9.8c5.5-0.2,10,4.2,10,9.6v21.4
		c0,5.6,4.5,10.1,10.1,10.1V41.6C237.1,30.8,228.2,21.6,217.4,21.6z M107.2,47.6c0,14.3-11.7,26-26,26c-14.4,0-26-11.7-26-26
		s11.7-26,26-26S107.2,33.3,107.2,47.6z M97.1,47.6c0-8.8-7.1-15.9-15.9-15.9s-15.9,7.1-15.9,15.9s7.1,15.9,15.9,15.9
		S97.1,56.4,97.1,47.6z M163.3,47.6c0,14.3-11.7,26-26,26c-14.4,0-26-11.7-26-26s11.7-26,26-26C151.6,21.6,163.3,33.3,163.3,47.6z
		 M153.2,47.6c0-8.8-7.1-15.9-15.9-15.9c-8.8,0-15.9,7.1-15.9,15.9s7.1,15.9,15.9,15.9C146.1,63.5,153.2,56.4,153.2,47.6z"/>
</g>
</svg>
